RobotoAvar2-wdth25.ufo
<glyph name="exclam" format="2">
  <advance width="611.5744680851063"/>
  <unicode hex="0021"/>
  <outline>
    <contour>
      <point x="186.0" y="93.51063829787235" type="qcurve" smooth="yes"/>
      <point x="186.0" y="140.85106382978722"/>
      <point x="247.7872340425532" y="208.46808510638297"/>
      <point x="305.78723404255317" y="208.46808510638297" type="qcurve" smooth="yes"/>
      <point x="363.78723404255317" y="208.46808510638297"/>
      <point x="425.5744680851064" y="140.85106382978722"/>
      <point x="425.5744680851064" y="93.51063829787235" type="qcurve" smooth="yes"/>
      <point x="425.5744680851064" y="46.170212765957444"/>
      <point x="363.78723404255317" y="-21.4468085106383"/>
      <point x="305.78723404255317" y="-21.4468085106383" type="qcurve" smooth="yes"/>
      <point x="247.7872340425532" y="-21.4468085106383"/>
      <point x="186.0" y="46.170212765957444"/>
    </contour>
    <contour>
      <point x="227.14893617021278" y="410.0" type="line"/>
      <point x="212.7872340425532" y="1456.0" type="line"/>
      <point x="398.82978723404256" y="1456.0" type="line"/>
      <point x="384.468085106383" y="410.0" type="line"/>
    </contour>
  </outline>
</glyph>
<glyph name="quotedbl" format="2">
  <advance width="726.4383561643835"/>
  <unicode hex="0022"/>
  <outline>
    <contour>
      <point x="118.06382978723404" y="966.0" type="line"/>
      <point x="103.70212765957447" y="1320.0" type="line"/>
      <point x="103.70212765957447" y="1456.0" type="line"/>
      <point x="276.3404255319149" y="1456.0" type="line"/>
      <point x="276.3404255319149" y="1320.0" type="line"/>
      <point x="261.97872340425533" y="966.0" type="line"/>
    </contour>
    <contour>
      <point x="464.4596327601282" y="966.0" type="line"/>
      <point x="450.09793063246866" y="1320.0" type="line"/>
      <point x="450.09793063246866" y="1456.0" type="line"/>
      <point x="622.7362285048091" y="1456.0" type="line"/>
      <point x="622.7362285048091" y="1320.0" type="line"/>
      <point x="608.3745263771496" y="966.0" type="line"/>
    </contour>
  </outline>
</glyph>
<glyph name="numbersign" format="2">
  <advance width="1347.4534246575345"/>
  <unicode hex="0023"/>
  <outline>
    <contour>
      <point x="184.2252742691099" y="-20.000000000000004" type="line"/>
      <point x="554.101986597877" y="1501.0" type="line"/>
      <point x="696.3227658186564" y="1501.0" type="line"/>
      <point x="326.44605348988915" y="-20.000000000000004" type="line"/>
    </contour>
    <contour>
      <point x="634.2892012097492" y="-20.000000000000004" type="line"/>
      <point x="1004.1659135385164" y="1501.0" type="line"/>
      <point x="1146.3866927592958" y="1501.0" type="line"/>
      <point x="776.5099804305286" y="-20.000000000000004" type="line"/>
    </contour>
    <contour>
      <point x="58.6" y="406.80851063829795" type="line"/>
      <point x="58.6" y="539.2340425531916" type="line"/>
      <point x="1224.6319634703198" y="539.2340425531916" type="line"/>
      <point x="1224.6319634703198" y="406.80851063829795" type="line"/>
    </contour>
    <contour>
      <point x="107.36255707762558" y="941.808510638298" type="line"/>
      <point x="107.36255707762558" y="1074.2340425531918" type="line"/>
      <point x="1270.828310502283" y="1074.2340425531918" type="line"/>
      <point x="1270.828310502283" y="941.808510638298" type="line"/>
    </contour>
  </outline>
</glyph>
<glyph name="dollar" format="2">
  <advance width="905.755834061984"/>
  <unicode hex="0024"/>
  <outline>
    <contour>
      <point x="19.900000000000002" y="381.00000000000006" type="qcurve" smooth="yes"/>
      <point x="19.900000000000002" y="392.0" type="line"/>
      <point x="189.66595744680853" y="392.0" type="line"/>
      <point x="189.66595744680853" y="381.00000000000006" type="line" smooth="yes"/>
      <point x="189.66595744680853" y="260.20779220779224"/>
      <point x="326.96062624832666" y="141.1558441558442"/>
      <point x="450.0860487710095" y="141.1558441558442" type="qcurve" smooth="yes"/>
      <point x="572.4352155859298" y="141.1558441558442"/>
      <point x="704.0723501408726" y="264.1688311688312"/>
      <point x="704.0723501408726" y="365.0" type="qcurve" smooth="yes"/>
      <point x="704.0723501408726" y="457.80851063829795"/>
      <point x="582.5133294471972" y="610.936170212766"/>
      <point x="402.96305255999226" y="672.936170212766" type="qcurve" smooth="yes"/>
      <point x="224.0297969493831" y="734.1489361702129"/>
      <point x="47.814893617021276" y="946.1702127659577"/>
      <point x="47.814893617021276" y="1099.0000000000002" type="qcurve" smooth="yes"/>
      <point x="47.814893617021276" y="1254.553191489362"/>
      <point x="259.02183037015453" y="1458.0000000000002"/>
      <point x="445.94595356067236" y="1458.0000000000002" type="qcurve" smooth="yes"/>
      <point x="633.9126299426795" y="1458.0000000000002"/>
      <point x="854.7880792771788" y="1235.5957446808513"/>
      <point x="854.7880792771788" y="1076.0000000000002" type="qcurve" smooth="yes"/>
      <point x="854.7880792771788" y="1065.0" type="line"/>
      <point x="685.0221218303702" y="1065.0" type="line"/>
      <point x="685.0221218303702" y="1076.0000000000002" type="line" smooth="yes"/>
      <point x="685.0221218303702" y="1181.8441558441561"/>
      <point x="565.121570327079" y="1309.857142857143"/>
      <point x="446.1271446614204" y="1309.857142857143" type="qcurve" smooth="yes"/>
      <point x="328.2639707227583" y="1309.857142857143"/>
      <point x="215.66595744680856" y="1199.8773141751867"/>
      <point x="215.66595744680856" y="1099.0000000000002" type="qcurve" smooth="yes"/>
      <point x="215.66595744680856" y="1015.1914893617023"/>
      <point x="332.0348489264549" y="870.3191489361704"/>
      <point x="508.59678422228706" y="809.1914893617022" type="qcurve" smooth="yes"/>
      <point x="684.2548042358886" y="749.1063829787236"/>
      <point x="871.9234139706598" y="526.9148936170213"/>
      <point x="871.9234139706598" y="365.0" type="qcurve" smooth="yes"/>
      <point x="871.9234139706598" y="201.7872340425532"/>
      <point x="644.6251530166134" y="-6.000000000000001"/>
      <point x="450.26723987175757" y="-6.000000000000001" type="qcurve" smooth="yes"/>
      <point x="255.1756242106286" y="-6.000000000000001"/>
      <point x="19.900000000000002" y="201.7872340425532"/>
    </contour>
    <contour>
      <point x="381.8464684737201" y="-170.00000000000003" type="line"/>
      <point x="381.8464684737201" y="752.1826484018264" type="line"/>
      <point x="512.3571067715924" y="752.1826484018264" type="line"/>
      <point x="512.3571067715924" y="78.94805194805197" type="line"/>
      <point x="525.7613620907414" y="69.07792207792208" type="line"/>
      <point x="525.7613620907414" y="-170.00000000000003" type="line"/>
    </contour>
    <contour>
      <point x="395.250723792869" y="752.1826484018264" type="line"/>
      <point x="395.250723792869" y="1386.8831168831168" type="line"/>
      <point x="381.8464684737201" y="1396.7532467532467" type="line"/>
      <point x="381.8464684737201" y="1586.0000000000002" type="line"/>
      <point x="525.7613620907414" y="1586.0000000000002" type="line"/>
      <point x="525.7613620907414" y="752.1826484018264" type="line"/>
    </contour>
  </outline>
</glyph>
<glyph name="ampersand" format="2">
  <advance width="1122.5614300981251"/>
  <unicode hex="0026"/>
  <outline>
    <contour>
      <point x="72.87234042553193" y="380.00000000000006" type="qcurve" smooth="yes"/>
      <point x="72.87234042553193" y="535.8950314234488"/>
      <point x="262.6989872072939" y="765.5793888419947"/>
      <point x="389.55373277261947" y="856.6456739607427" type="qcurve" smooth="yes"/>
      <point x="526.5819009514726" y="954.8970186521922" type="line" smooth="yes"/>
      <point x="595.6171234769312" y="1004.5860318637936"/>
      <point x="651.6600602351112" y="1109.796628903012"/>
      <point x="651.6600602351112" y="1170.1298701298704" type="qcurve" smooth="yes"/>
      <point x="651.6600602351112" y="1241.7234042553193"/>
      <point x="578.3445955579446" y="1335.883116883117"/>
      <point x="507.31302827164103" y="1335.883116883117" type="qcurve" smooth="yes"/>
      <point x="436.0888663459343" y="1335.883116883117"/>
      <point x="356.9796949383076" y="1231.6405084277426"/>
      <point x="356.9796949383076" y="1160.2597402597405" type="qcurve" smooth="yes"/>
      <point x="356.9796949383076" y="1090.3404255319151"/>
      <point x="424.9510346837657" y="957.0803458661227"/>
      <point x="509.920334207714" y="837.3150684931506" type="qcurve" smooth="yes"/>
      <point x="1103.9614300981252" y="0.0" type="line"/>
      <point x="899.080054405907" y="0.0" type="line"/>
      <point x="372.9375303604392" y="744.0851063829788" type="line" smooth="yes"/>
      <point x="281.4273778295929" y="873.4248518410571"/>
      <point x="182.42650344894588" y="1061.617021276596"/>
      <point x="182.42650344894588" y="1160.2597402597405" type="qcurve" smooth="yes"/>
      <point x="182.42650344894588" y="1301.3617021276598"/>
      <point x="366.32711803886394" y="1486.0"/>
      <point x="505.9705625182164" y="1486.0" type="qcurve" smooth="yes"/>
      <point x="645.0923903649058" y="1486.0"/>
      <point x="816.6387836393666" y="1311.1785023487153"/>
      <point x="816.6387836393666" y="1180.0" type="qcurve" smooth="yes"/>
      <point x="816.6387836393666" y="1060.5714285714287"/>
      <point x="711.2471418603742" y="899.6096880871"/>
      <point x="630.7959198093271" y="840.9469252208979" type="qcurve" smooth="yes"/>
      <point x="495.11021738389866" y="742.6955805294483" type="line" smooth="yes"/>
      <point x="376.1254742537168" y="656.1649513412849"/>
      <point x="249.34042553191492" y="490.24454269135134"/>
      <point x="249.34042553191492" y="380.00000000000006" type="qcurve" smooth="yes"/>
      <point x="249.34042553191492" y="269.33407018513407"/>
      <point x="379.1623433401341" y="130.11688311688314"/>
      <point x="487.97862751258276" y="130.11688311688314" type="qcurve" smooth="yes"/>
      <point x="638.2536675410474" y="130.11688311688314"/>
      <point x="855.7663876976032" y="419.50649350649354"/>
      <point x="855.7663876976032" y="674.0000000000001" type="qcurve"/>
      <point x="1025.6235305547461" y="674.0000000000001" type="line"/>
      <point x="1025.6235305547461" y="380.00000000000006"/>
      <point x="715.9112017876229" y="-20.000000000000004"/>
      <point x="485.7411845902083" y="-20.000000000000004" type="qcurve" smooth="yes"/>
      <point x="293.5357038764209" y="-20.000000000000004"/>
      <point x="72.87234042553193" y="205.51063829787236"/>
    </contour>
  </outline>
</glyph>
<glyph name="quotesingle" format="2">
  <advance width="400.0"/>
  <unicode hex="0027"/>
  <outline>
    <contour>
      <point x="128.06382978723406" y="966.0" type="line"/>
      <point x="104.12765957446808" y="1320.0" type="line"/>
      <point x="104.12765957446808" y="1456.0" type="line"/>
      <point x="295.9148936170213" y="1456.0" type="line"/>
      <point x="295.9148936170213" y="1320.0" type="line"/>
      <point x="271.97872340425533" y="966.0" type="line"/>
    </contour>
  </outline>
</glyph>
<glyph name="parenleft" format="2">
  <advance width="643.2237442922375"/>
  <unicode hex="0028"/>
  <outline>
    <contour>
      <point x="606.7762557077625" y="-436.0" type="line"/>
      <point x="424.4108617507044" y="-340.0"/>
      <point x="124.0" y="139.14893617021278"/>
      <point x="124.0" y="515.0" type="qcurve" smooth="yes"/>
      <point x="124.0" y="525.0" type="line" smooth="yes"/>
      <point x="124.0" y="917.8510638297872"/>
      <point x="424.4108617507044" y="1380.0"/>
      <point x="606.7762557077625" y="1476.0" type="qcurve"/>
      <point x="607.2237442922375" y="1303.3617021276596" type="line"/>
      <point x="500.50558632080055" y="1226.595744680851"/>
      <point x="311.0" y="864.1914893617021"/>
      <point x="311.0" y="532.0" type="qcurve" smooth="yes"/>
      <point x="311.0" y="508.0" type="line" smooth="yes"/>
      <point x="311.0" y="189.93617021276594"/>
      <point x="500.5481395122899" y="-186.63829787234042"/>
      <point x="607.2237442922375" y="-263.36170212765956" type="qcurve"/>
    </contour>
  </outline>
</glyph>
<glyph name="parenright" format="2">
  <advance width="629.2237442922376"/>
  <unicode hex="0029"/>
  <outline>
    <contour>
      <point x="33.4" y="-436.0000000000001" type="qcurve"/>
      <point x="33.4" y="-263.3617021276596" type="line"/>
      <point x="139.89441367919946" y="-186.59574468085108"/>
      <point x="329.62374429223746" y="189.21276595744686"/>
      <point x="329.62374429223746" y="508.00000000000006" type="qcurve" smooth="yes"/>
      <point x="329.62374429223746" y="532.0000000000001" type="line" smooth="yes"/>
      <point x="329.62374429223746" y="863.4680851063831"/>
      <point x="139.8518604877101" y="1226.6382978723407"/>
      <point x="33.4" y="1303.3617021276596" type="qcurve"/>
      <point x="33.4" y="1476.0000000000002" type="line"/>
      <point x="215.76539395705825" y="1380.0000000000002"/>
      <point x="516.6237442922375" y="917.1276595744682"/>
      <point x="516.6237442922375" y="525.0000000000001" type="qcurve" smooth="yes"/>
      <point x="516.6237442922375" y="515.0000000000001" type="line" smooth="yes"/>
      <point x="516.6237442922375" y="138.4255319148936"/>
      <point x="215.76539395705825" y="-340.00000000000006"/>
    </contour>
  </outline>
</glyph>
<glyph name="asterisk" format="2">
  <advance width="1012.8767123287671"/>
  <unicode hex="002A"/>
  <outline>
    <contour>
      <point x="59.234042553191486" y="1087.5514427280675" type="line"/>
      <point x="120.28339648304673" y="1260.1471874089186" type="line"/>
      <point x="451.7362285048091" y="1104.5548430972506" type="line"/>
      <point x="415.31069658991544" y="1476.0" type="line"/>
      <point x="597.5660157388517" y="1476.0" type="line"/>
      <point x="561.140483823958" y="1104.5548430972506" type="line"/>
      <point x="892.5933158457203" y="1260.1471874089186" type="line"/>
      <point x="953.6426697755757" y="1087.5514427280675" type="line"/>
      <point x="595.6936753133198" y="998.9378218206548" type="line"/>
      <point x="846.8647624599242" y="726.8756436413096" type="line"/>
      <point x="696.9251918779753" y="617.2339453997863" type="line"/>
      <point x="506.43835616438355" y="935.5335665015059" type="line"/>
      <point x="315.9515204507918" y="617.2339453997863" type="line"/>
      <point x="166.01194986884292" y="726.8756436413096" type="line"/>
      <point x="417.1830370154474" y="998.9378218206548" type="line"/>
    </contour>
  </outline>
</glyph>
<glyph name="plus" format="2">
  <advance width="915.2602739726027"/>
  <unicode hex="002B"/>
  <outline>
    <contour>
      <point x="57.0" y="594.3617021276596" type="line"/>
      <point x="57.0" y="751.6808510638298" type="line"/>
      <point x="858.2602739726027" y="751.6808510638298" type="line"/>
      <point x="858.2602739726027" y="594.3617021276596" type="line"/>
    </contour>
    <contour>
      <point x="371.28971145438646" y="246.62100456621005" type="line"/>
      <point x="371.28971145438646" y="1101.37899543379" type="line"/>
      <point x="543.928009326727" y="1101.37899543379" type="line"/>
      <point x="543.928009326727" y="246.62100456621005" type="line"/>
    </contour>
  </outline>
</glyph>
<glyph name="comma" format="2">
  <advance width="580.0"/>
  <unicode hex="002C"/>
  <outline>
    <contour>
      <point x="112.04255319148936" y="-219.4468085106383" type="line"/>
      <point x="160.25531914893617" y="-155.6595744680851"/>
      <point x="213.5744680851064" y="-20.80851063829787"/>
      <point x="213.61702127659575" y="70.0" type="qcurve" smooth="yes"/>
      <point x="213.61702127659575" y="220.0" type="line"/>
      <point x="386.25531914893617" y="220.0" type="line"/>
      <point x="386.25531914893617" y="70.0" type="line" smooth="yes"/>
      <point x="386.25531914893617" y="-40.0"/>
      <point x="290.7659574468085" y="-222.7659574468085"/>
      <point x="212.7872340425532" y="-289.51063829787233" type="qcurve"/>
    </contour>
  </outline>
</glyph>
<glyph name="hyphen" format="2">
  <advance width="637.6803652968036"/>
  <unicode hex="002D"/>
  <outline>
    <contour>
      <point x="68.5" y="547.8297872340427" type="line"/>
      <point x="68.5" y="712.808510638298" type="line"/>
      <point x="563.5867579908677" y="712.808510638298" type="line"/>
      <point x="563.5867579908677" y="547.8297872340427" type="line"/>
    </contour>
  </outline>
</glyph>
<glyph name="period" format="2">
  <advance width="580.0"/>
  <unicode hex="002E"/>
  <outline>
    <contour>
      <point x="164.46808510638297" y="99.25531914893617" type="qcurve" smooth="yes"/>
      <point x="164.46808510638297" y="149.46808510638297"/>
      <point x="229.12765957446808" y="220.0"/>
      <point x="290.0" y="220.0" type="qcurve" smooth="yes"/>
      <point x="350.8723404255319" y="220.0"/>
      <point x="415.531914893617" y="149.46808510638297"/>
      <point x="415.531914893617" y="99.25531914893617" type="qcurve" smooth="yes"/>
      <point x="415.531914893617" y="49.08510638297872"/>
      <point x="350.8723404255319" y="-21.4468085106383"/>
      <point x="290.0" y="-21.4468085106383" type="qcurve" smooth="yes"/>
      <point x="229.12765957446808" y="-21.4468085106383"/>
      <point x="164.46808510638297" y="49.08510638297872"/>
    </contour>
  </outline>
</glyph>
<glyph name="slash" format="2">
  <advance width="474.82366656951325"/>
  <unicode hex="002F"/>
  <outline>
    <contour>
      <point x="-100.0" y="-125.0" type="line"/>
      <point x="405.972602739726" y="1456.0" type="line"/>
      <point x="574.8236665695133" y="1456.0" type="line"/>
      <point x="68.85106382978724" y="-125.0" type="line"/>
    </contour>
  </outline>
</glyph>
<glyph name="zero" format="2">
  <advance width="1050.6080831633149"/>
  <unicode hex="0030"/>
  <outline>
    <contour>
      <point x="110.0" y="440.31050228310505" type="qcurve" smooth="yes"/>
      <point x="110.0" y="1013.6757990867579" type="line" smooth="yes"/>
      <point x="110.0" y="1234.3566501505877"/>
      <point x="329.80132128631107" y="1486.0"/>
      <point x="525.3733605362868" y="1486.0" type="qcurve" smooth="yes"/>
      <point x="719.0730593607306" y="1486.0"/>
      <point x="940.6080831633147" y="1234.3566501505877"/>
      <point x="940.6080831633147" y="1013.6757990867579" type="qcurve" smooth="yes"/>
      <point x="940.6080831633147" y="440.31050228310505" type="line" smooth="yes"/>
      <point x="940.6080831633147" y="221.8670941416497"/>
      <point x="719.0730593607306" y="-30.0"/>
      <point x="525.3733605362868" y="-30.0" type="qcurve" smooth="yes"/>
      <point x="329.80132128631107" y="-30.0"/>
      <point x="110.0" y="221.8670941416497"/>
    </contour>
    <contour>
      <point x="296.0425531914894" y="430.7579908675799" type="line" smooth="yes"/>
      <point x="296.0425531914894" y="288.8350309944597"/>
      <point x="408.1334887787817" y="126.03896103896103"/>
      <point x="525.3733605362868" y="126.03896103896103" type="qcurve" smooth="yes"/>
      <point x="642.6557854852813" y="126.03896103896103"/>
      <point x="754.5655299718255" y="288.8350309944597"/>
      <point x="754.5655299718255" y="430.7579908675799" type="qcurve" smooth="yes"/>
      <point x="754.5655299718255" y="1023.6757990867579" type="line" smooth="yes"/>
      <point x="754.5655299718255" y="1167.250075388519"/>
      <point x="643.3270183619936" y="1329.9610389610389"/>
      <point x="525.3733605362868" y="1329.9610389610389" type="qcurve" smooth="yes"/>
      <point x="407.4622559020694" y="1329.9610389610389"/>
      <point x="296.0425531914894" y="1167.250075388519"/>
      <point x="296.0425531914894" y="1023.6757990867579" type="qcurve" smooth="yes"/>
    </contour>
  </outline>
</glyph>
<glyph name="one" format="2">
  <advance width="1050.6080831633149"/>
  <unicode hex="0031"/>
  <outline>
    <contour>
      <point x="491.89497716894977" y="0.0" type="line"/>
      <point x="491.89497716894977" y="1249.772185358603" type="line"/>
      <point x="162.69056640435247" y="1112.8033842190066" type="line"/>
      <point x="162.69056640435247" y="1294.2152919459827" type="line"/>
      <point x="646.2326395066121" y="1476.155844155844" type="line"/>
      <point x="676.0226367434179" y="1476.155844155844" type="line"/>
      <point x="676.0226367434179" y="0.0" type="line"/>
    </contour>
  </outline>
</glyph>
<glyph name="two" format="2">
  <advance width="1033.008083163315"/>
  <unicode hex="0032"/>
  <outline>
    <contour>
      <point x="94.94170795686391" y="0.0" type="line"/>
      <point x="94.94170795686391" y="134.3404255319149" type="line"/>
      <point x="553.4463227436122" y="692.3829787234043" type="line" smooth="yes"/>
      <point x="642.3277955892355" y="795.9904789662879"/>
      <point x="733.7583794812009" y="975.5744680851067"/>
      <point x="733.7583794812009" y="1083.176333430487" type="qcurve" smooth="yes"/>
      <point x="733.7583794812009" y="1187.2626081777933"/>
      <point x="620.081317400175" y="1329.7372946688015"/>
      <point x="517.0460507140776" y="1329.961038961039" type="qcurve" smooth="yes"/>
      <point x="413.6374234916934" y="1330.1847832532765"/>
      <point x="278.9101331001652" y="1181.7141772052878"/>
      <point x="278.68638880792776" y="1049.6894977168952" type="qcurve" smooth="yes"/>
      <point x="278.68638880792776" y="1020.0" type="line"/>
      <point x="96.47362285048094" y="1020.0" type="line"/>
      <point x="96.47362285048094" y="1052.7258330904501" type="line" smooth="yes"/>
      <point x="96.47362285048094" y="1244.0300204022153"/>
      <point x="338.397843194404" y="1486.0"/>
      <point x="519.730982220927" y="1486.0" type="qcurve" smooth="yes"/>
      <point x="698.3283785096669" y="1486.0"/>
      <point x="915.9711454386478" y="1258.609346157583"/>
      <point x="915.9711454386478" y="1094.3170115612554" type="qcurve" smooth="yes"/>
      <point x="915.9711454386478" y="944.9361702127661"/>
      <point x="779.6784222286993" y="713.1928495093754"/>
      <point x="677.6761877003789" y="591.7659574468086" type="qcurve" smooth="yes"/>
      <point x="316.4846983386768" y="159.2340425531915" type="line"/>
      <point x="954.5449334499175" y="159.2340425531915" type="line"/>
      <point x="954.5449334499175" y="0.0" type="line"/>
    </contour>
  </outline>
</glyph>
<glyph name="three" format="2">
  <advance width="1050.6080831633149"/>
  <unicode hex="0033"/>
  <outline>
    <contour>
      <point x="79.91489361702128" y="354.04566210045664" type="qcurve" smooth="yes"/>
      <point x="79.91489361702128" y="390.0" type="line"/>
      <point x="258.29787234042556" y="390.0" type="line"/>
      <point x="258.29787234042556" y="354.716894977169" type="line" smooth="yes"/>
      <point x="258.29787234042556" y="246.44318733826168"/>
      <point x="389.3689886330516" y="126.03896103896103"/>
      <point x="500.59924220343925" y="126.03896103896103" type="qcurve" smooth="yes"/>
      <point x="611.7443893908483" y="126.03896103896103"/>
      <point x="741.3481006509278" y="250.90709484821988"/>
      <point x="741.3481006509278" y="400.0" type="qcurve" smooth="yes"/>
      <point x="741.3481006509278" y="540.468085106383"/>
      <point x="593.0964733313903" y="683.012987012987"/>
      <point x="467.7234042553191" y="683.0" type="qcurve" smooth="yes"/>
      <point x="359.3204119304382" y="683.0" type="line"/>
      <point x="359.3204119304382" y="835.0909090909091" type="line"/>
      <point x="461.34807667800965" y="835.0909090909091" type="line" smooth="yes"/>
      <point x="580.0094730878759" y="835.0909090909091"/>
      <point x="703.7720781113378" y="969.57308648798"/>
      <point x="703.7720781113378" y="1090.4255319148936" type="qcurve" smooth="yes"/>
      <point x="703.7720781113378" y="1218.068908260689"/>
      <point x="597.2885456135239" y="1329.9610389610389"/>
      <point x="505.07412804818813" y="1329.9610389610389" type="qcurve" smooth="yes"/>
      <point x="410.2646774191513" y="1329.9610389610389"/>
      <point x="298.7659574468085" y="1220.8700958033514"/>
      <point x="298.7659574468085" y="1119.4657534246576" type="qcurve" smooth="yes"/>
      <point x="298.7659574468085" y="1090.0" type="line"/>
      <point x="120.34042553191489" y="1090.0" type="line"/>
      <point x="120.34042553191489" y="1125.283105022831" type="line" smooth="yes"/>
      <point x="120.34042553191489" y="1275.3628679685223"/>
      <point x="334.81161954726514" y="1486.0"/>
      <point x="506.86408238608766" y="1486.0" type="qcurve" smooth="yes"/>
      <point x="675.3118624307782" y="1486.0"/>
      <point x="887.8997376858058" y="1281.7829592927233"/>
      <point x="887.8997376858058" y="1100.0" type="qcurve" smooth="yes"/>
      <point x="887.8997376858058" y="990.5266029996429"/>
      <point x="784.385888278631" y="812.2879891894755"/>
      <point x="677.6606431555426" y="766.0" type="qcurve"/>
      <point x="677.8843874477801" y="762.0" type="line"/>
      <point x="791.8420285631012" y="730.6382978723404"/>
      <point x="927.3906538424171" y="539.9574468085107"/>
      <point x="927.3906538424171" y="400.9574468085106" type="qcurve" smooth="yes"/>
      <point x="927.3906538424171" y="193.5004371903235"/>
      <point x="690.8040415816574" y="-30.0"/>
      <point x="501.2704750801516" y="-30.0" type="qcurve" smooth="yes"/>
      <point x="302.8473720003886" y="-30.0"/>
      <point x="79.91489361702128" y="185.41406781307685"/>
    </contour>
  </outline>
</glyph>
<glyph name="four" format="2">
  <advance width="1050.6080831633149"/>
  <unicode hex="0034"/>
  <outline>
    <contour>
      <point x="646.5405615466822" y="0.0" type="line"/>
      <point x="646.5405615466822" y="399.1063829787234" type="line"/>
      <point x="646.5405615466822" y="449.02127659574467" type="line"/>
      <point x="646.5405615466822" y="1117.467392415221" type="line"/>
      <point x="634.4756264817471" y="1117.467392415221" type="line"/>
      <point x="246.33146975437856" y="496.97872340425533" type="line"/>
      <point x="695.4554551637035" y="496.97872340425533" type="line"/>
      <point x="769.2639658020013" y="496.97872340425533" type="line"/>
      <point x="1000.6767706208102" y="496.97872340425533" type="line"/>
      <point x="1000.6767706208102" y="345.40425531914894" type="line"/>
      <point x="40.66042613754651" y="345.40425531914894" type="line"/>
      <point x="40.66042613754651" y="467.96656534954406" type="line"/>
      <point x="650.9412247133027" y="1456.0" type="line"/>
      <point x="819.1788594190226" y="1456.0" type="line"/>
      <point x="819.1788594190226" y="0.0" type="line"/>
    </contour>
  </outline>
</glyph>
<glyph name="five" format="2">
  <advance width="1032.608083163315"/>
  <unicode hex="0035"/>
  <outline>
    <contour>
      <point x="95.81667152433694" y="340.83561643835617" type="qcurve" smooth="yes"/>
      <point x="95.81667152433694" y="375.0" type="line"/>
      <point x="271.837268046245" y="375.0" type="line"/>
      <point x="271.837268046245" y="342.62557077625576" type="line" smooth="yes"/>
      <point x="271.837268046245" y="240.51244762232815"/>
      <point x="402.3602940341501" y="126.03896103896103"/>
      <point x="508.27727581851747" y="126.03896103896103" type="qcurve" smooth="yes"/>
      <point x="614.295943151379" y="126.03896103896103"/>
      <point x="752.5333721946955" y="288.6499487105725"/>
      <point x="752.5333721946955" y="465.0" type="qcurve" smooth="yes"/>
      <point x="752.5333721946955" y="635.6223331705698"/>
      <point x="616.3795720455588" y="793.9710609025677"/>
      <point x="508.9189425167275" y="794.1948051948053" type="qcurve" smooth="yes"/>
      <point x="433.5897792094237" y="794.4185494870427"/>
      <point x="321.8874648134339" y="730.2455735268327"/>
      <point x="273.23326532594973" y="670.5531914893618" type="qcurve"/>
      <point x="145.60390556689015" y="730.0" type="line"/>
      <point x="212.89157679976685" y="1456.0000000000002" type="line"/>
      <point x="871.849606528709" y="1456.0000000000002" type="line"/>
      <point x="871.849606528709" y="1288.1168831168832" type="line"/>
      <point x="362.00597304182264" y="1288.1168831168832" type="line"/>
      <point x="318.8367696618936" y="874.2207792207794" type="line"/>
      <point x="361.7257334135796" y="904.8918846625057"/>
      <point x="478.8746632751297" y="951.2207792207794"/>
      <point x="548.8215695700394" y="951.2207792207794" type="qcurve" smooth="yes"/>
      <point x="709.4958482690922" y="951.2207792207794"/>
      <point x="934.7461381521423" y="700.3692144831755"/>
      <point x="934.7461381521423" y="465.0" type="qcurve" smooth="yes"/>
      <point x="934.7461381521423" y="232.4091445327237"/>
      <point x="697.1203730690762" y="-30.0"/>
      <point x="509.3959972797047" y="-30.0" type="qcurve" smooth="yes"/>
      <point x="311.3572330710192" y="-30.0"/>
      <point x="95.81667152433694" y="181.04274749829986"/>
    </contour>
  </outline>
</glyph>
<glyph name="six" format="2">
  <advance width="1050.6080831633149"/>
  <unicode hex="0036"/>
  <outline>
    <contour>
      <point x="95.38356164383562" y="585.1369863013699" type="qcurve" smooth="yes"/>
      <point x="95.38356164383562" y="655.634703196347" type="line" smooth="yes"/>
      <point x="95.38356164383562" y="1034.9236374234918"/>
      <point x="458.4944187261296" y="1485.652942801879"/>
      <point x="784.4440226052001" y="1485.652942801879" type="qcurve" smooth="yes"/>
      <point x="809.8694258233752" y="1485.652942801879" type="line"/>
      <point x="809.8694258233752" y="1329.613981762918" type="line"/>
      <point x="787.4082386087632" y="1329.613981762918" type="line" smooth="yes"/>
      <point x="556.5540608230787" y="1329.613981762918"/>
      <point x="275.68143398426116" y="1002.7587731417518"/>
      <point x="275.68143398426116" y="653.4445979552362" type="qcurve" smooth="yes"/>
      <point x="275.68143398426116" y="604.5554020447638" type="line" smooth="yes"/>
      <point x="275.68143398426116" y="334.9070733987668"/>
      <point x="426.83623342556604" y="126.03896103896103"/>
      <point x="546.424851841057" y="126.03896103896103" type="qcurve" smooth="yes"/>
      <point x="665.9153768605823" y="126.03896103896103"/>
      <point x="792.3679199455942" y="299.9602743511225"/>
      <point x="792.3679199455942" y="463.44459795523625" type="qcurve" smooth="yes"/>
      <point x="792.3679199455942" y="626.85321003683"/>
      <point x="665.6656585423709" y="799.7012987012987"/>
      <point x="546.3397454580784" y="799.7012987012987" type="qcurve" smooth="yes"/>
      <point x="434.85569312645964" y="799.7012987012987"/>
      <point x="270.17908526914647" y="623.9461177120752"/>
      <point x="270.2216384606358" y="463.74468085106383" type="qcurve"/>
      <point x="190.83328475663072" y="463.74468085106383" type="line"/>
      <point x="190.79073156514136" y="683.2224371373308"/>
      <point x="405.19955183260345" y="955.7402597402597"/>
      <point x="582.6878448472736" y="955.7402597402597" type="qcurve" smooth="yes"/>
      <point x="760.5886827638503" y="955.7402597402597"/>
      <point x="974.5806859030408" y="690.402851010837"/>
      <point x="974.5806859030408" y="463.44459795523625" type="qcurve" smooth="yes"/>
      <point x="974.5806859030408" y="237.2001309678372"/>
      <point x="733.8705916642378" y="-30.0"/>
      <point x="547.5435733022442" y="-30.0" type="qcurve" smooth="yes"/>
      <point x="358.76634606042944" y="-30.0"/>
      <point x="95.38356164383562" y="260.5643641309628"/>
    </contour>
  </outline>
</glyph>
<glyph name="seven" format="2">
  <advance width="1050.6080831633149"/>
  <unicode hex="0037"/>
  <outline>
    <contour>
      <point x="253.87836393665597" y="0.0" type="line"/>
      <point x="758.6656951326145" y="1301.5531914893618" type="line"/>
      <point x="81.47148547556591" y="1301.5531914893618" type="line"/>
      <point x="81.47148547556591" y="1456.0" type="line"/>
      <point x="950.3678227921889" y="1456.0" type="line"/>
      <point x="950.3678227921889" y="1355.872340425532" type="line"/>
      <point x="441.878363936656" y="0.0" type="line"/>
    </contour>
  </outline>
</glyph>
<glyph name="eight" format="2">
  <advance width="1050.6080831633149"/>
  <unicode hex="0038"/>
  <outline>
    <contour>
      <point x="104.50102011075488" y="386.0" type="qcurve" smooth="yes"/>
      <point x="104.50102011075488" y="516.0447637468914"/>
      <point x="233.3098953897555" y="702.6058196151464"/>
      <point x="335.9472709356125" y="746.0" type="qcurve"/>
      <point x="335.9472709356125" y="750.0" type="line"/>
      <point x="255.08271918502172" y="791.8347079909306"/>
      <point x="141.10375983678227" y="966.6170212765958"/>
      <point x="141.10375983678227" y="1087.0" type="qcurve" smooth="yes"/>
      <point x="141.10375983678227" y="1271.9855241426212"/>
      <point x="362.19333527640146" y="1486.0"/>
      <point x="526.2347226270281" y="1486.0" type="qcurve" smooth="yes"/>
      <point x="690.4037695521228" y="1486.0"/>
      <point x="905.0610123384824" y="1273.9429709511317"/>
      <point x="905.0610123384824" y="1087.0" type="qcurve" smooth="yes"/>
      <point x="905.0610123384824" y="966.6170212765958"/>
      <point x="791.325713730552" y="791.8347079909306"/>
      <point x="709.7473759117595" y="750.0" type="qcurve"/>
      <point x="709.7473759117595" y="746.0" type="line"/>
      <point x="813.7272172110411" y="701.9345867384341"/>
      <point x="946.1921694355386" y="516.0447637468914"/>
      <point x="946.1921694355386" y="386.0" type="qcurve" smooth="yes"/>
      <point x="946.1921694355386" y="184.801709899932"/>
      <point x="707.2384144564267" y="-30.0"/>
      <point x="526.2347226270281" y="-30.0" type="qcurve" smooth="yes"/>
      <point x="345.2310307976295" y="-30.0"/>
      <point x="104.50102011075488" y="184.801709899932"/>
    </contour>
    <contour>
      <point x="284.79889245118045" y="395.5744680851064" type="qcurve" smooth="yes"/>
      <point x="284.79889245118045" y="271.0715250939675"/>
      <point x="416.1638422783862" y="126.03896103896103"/>
      <point x="526.2347226270281" y="126.03896103896103" type="qcurve" smooth="yes"/>
      <point x="636.318589988657" y="126.03896103896103"/>
      <point x="765.8942970951132" y="271.97948927590426"/>
      <point x="765.8942970951132" y="395.5744680851064" type="qcurve" smooth="yes"/>
      <point x="765.8942970951132" y="519.7635336586079"/>
      <point x="636.7722534921602" y="667.0"/>
      <point x="526.2347226270281" y="667.0" type="qcurve" smooth="yes"/>
      <point x="415.6250723919042" y="667.0"/>
      <point x="284.79889245118045" y="520.6585108275577"/>
    </contour>
    <contour>
      <point x="319.5855435733023" y="1077.4255319148936" type="qcurve" smooth="yes"/>
      <point x="319.5855435733023" y="958.2213760202684"/>
      <point x="432.726641861005" y="823.077922077922"/>
      <point x="524.8922568736034" y="823.077922077922" type="qcurve" smooth="yes"/>
      <point x="617.100425077691" y="823.077922077922"/>
      <point x="728.5929272320996" y="958.2213760202684"/>
      <point x="728.5929272320996" y="1077.4255319148936" type="qcurve" smooth="yes"/>
      <point x="728.5929272320996" y="1196.3674606749514"/>
      <point x="618.2223879297619" y="1329.9610389610389"/>
      <point x="524.8922568736034" y="1329.9610389610389" type="qcurve" smooth="yes"/>
      <point x="431.57152067790366" y="1329.9610389610389"/>
      <point x="319.5855435733023" y="1196.3674606749514"/>
    </contour>
  </outline>
</glyph>
<glyph name="nine" format="2">
  <advance width="1036.608083163315"/>
  <unicode hex="0039"/>
  <outline>
    <contour>
      <point x="69.99761002623141" y="999.7625570776257" type="qcurve" smooth="yes"/>
      <point x="69.99761002623141" y="1223.12416205188"/>
      <point x="310.7077042650345" y="1486.0"/>
      <point x="497.0347226270281" y="1486.0" type="qcurve" smooth="yes"/>
      <point x="685.8119498688429" y="1486.0"/>
      <point x="949.1947342854369" y="1195.4356358690372"/>
      <point x="949.1947342854369" y="870.8630136986303" type="qcurve" smooth="yes"/>
      <point x="949.1947342854369" y="800.3652968036531" type="line" smooth="yes"/>
      <point x="949.1947342854369" y="440.97143689886343"/>
      <point x="586.3423103079764" y="-6.712328767123287"/>
      <point x="260.85498882735845" y="-6.712328767123287" type="qcurve" smooth="yes"/>
      <point x="234.70887010589723" y="-6.712328767123287" type="line"/>
      <point x="234.70887010589723" y="149.32663227183778" type="line"/>
      <point x="257.17005732050916" y="149.32663227183778" type="line" smooth="yes"/>
      <point x="487.94631302827173" y="149.32663227183778"/>
      <point x="768.8968619450114" y="472.9589041095891"/>
      <point x="768.8968619450114" y="802.5554020447639" type="qcurve" smooth="yes"/>
      <point x="768.8968619450114" y="851.4445979552363" type="line" smooth="yes"/>
      <point x="768.8968619450114" y="1121.0539655622724"/>
      <point x="617.7680365296803" y="1329.961038961039"/>
      <point x="498.1534440882154" y="1329.961038961039" type="qcurve" smooth="yes"/>
      <point x="378.62395802972895" y="1329.961038961039"/>
      <point x="252.21037598367826" y="1159.6043421263475"/>
      <point x="252.21037598367826" y="999.7625570776257" type="qcurve" smooth="yes"/>
      <point x="252.21037598367826" y="839.9575225124629"/>
      <point x="378.8866633609274" y="671.5640751942121"/>
      <point x="498.1534440882154" y="671.5640751942121" type="qcurve" smooth="yes"/>
      <point x="609.6966287768387" y="671.5640751942121"/>
      <point x="775.0199261634122" y="842.8646148372178"/>
      <point x="774.9773729719228" y="999.5923443116683" type="qcurve"/>
      <point x="853.7450111726417" y="999.5923443116683" type="line"/>
      <point x="853.7875643641311" y="782.867579908676"/>
      <point x="639.378744096669" y="515.5251141552512"/>
      <point x="461.80534469902005" y="515.5251141552512" type="qcurve" smooth="yes"/>
      <point x="284.7103286687082" y="515.5251141552512"/>
      <point x="69.99761002623141" y="775.6871660351696"/>
    </contour>
  </outline>
</glyph>
<glyph name="colon" format="2">
  <advance width="566.8"/>
  <unicode hex="003A"/>
  <outline>
    <contour>
      <point x="163.6127659574468" y="92.95744680851065" type="qcurve" smooth="yes"/>
      <point x="163.6127659574468" y="140.29787234042556"/>
      <point x="225.4425531914894" y="207.95744680851067"/>
      <point x="283.4" y="207.95744680851067" type="qcurve" smooth="yes"/>
      <point x="341.3574468085107" y="207.95744680851067"/>
      <point x="403.18723404255326" y="140.29787234042556"/>
      <point x="403.18723404255326" y="92.95744680851065" type="qcurve" smooth="yes"/>
      <point x="403.18723404255326" y="45.61702127659574"/>
      <point x="341.3574468085107" y="-22.0"/>
      <point x="283.4" y="-22.0" type="qcurve" smooth="yes"/>
      <point x="225.4425531914894" y="-22.0"/>
      <point x="163.6127659574468" y="45.61702127659574"/>
    </contour>
    <contour>
      <point x="163.6127659574468" y="953.0425531914894" type="qcurve" smooth="yes"/>
      <point x="163.6127659574468" y="1000.3829787234043"/>
      <point x="225.4425531914894" y="1068.0"/>
      <point x="283.4" y="1068.0" type="qcurve" smooth="yes"/>
      <point x="341.3574468085107" y="1068.0"/>
      <point x="403.18723404255326" y="1000.3829787234043"/>
      <point x="403.18723404255326" y="953.0425531914894" type="qcurve" smooth="yes"/>
      <point x="403.18723404255326" y="905.7021276595746"/>
      <point x="341.3574468085107" y="838.0425531914894"/>
      <point x="283.4" y="838.0425531914894" type="qcurve" smooth="yes"/>
      <point x="225.4425531914894" y="838.0425531914894"/>
      <point x="163.6127659574468" y="905.7021276595746"/>
    </contour>
  </outline>
</glyph>
<glyph name="semicolon" format="2">
  <advance width="600.0"/>
  <unicode hex="003B"/>
  <outline>
    <contour>
      <point x="141.49732828135626" y="-218.8606820169047" type="line"/>
      <point x="181.50432332653259" y="-154.99931992616342"/>
      <point x="223.6595744680851" y="-20.244340814145538"/>
      <point x="223.70212765957447" y="70.0" type="qcurve" smooth="yes"/>
      <point x="223.70212765957447" y="220.0" type="line"/>
      <point x="396.3404255319149" y="220.0" type="line"/>
      <point x="396.3404255319149" y="70.0" type="line" smooth="yes"/>
      <point x="396.3404255319149" y="-40.0"/>
      <point x="314.34848926454873" y="-222.63829787234042"/>
      <point x="245.1932381229962" y="-289.63829787234044" type="qcurve"/>
    </contour>
    <contour>
      <point x="180.2127659574468" y="953.0425531914893" type="qcurve" smooth="yes"/>
      <point x="180.2127659574468" y="1000.3829787234042"/>
      <point x="242.04255319148936" y="1068.0"/>
      <point x="300.0" y="1068.0" type="qcurve" smooth="yes"/>
      <point x="357.9574468085106" y="1068.0"/>
      <point x="419.78723404255317" y="1000.3829787234042"/>
      <point x="419.78723404255317" y="953.0425531914893" type="qcurve" smooth="yes"/>
      <point x="419.78723404255317" y="905.7021276595744"/>
      <point x="357.9574468085106" y="838.0425531914893"/>
      <point x="300.0" y="838.0425531914893" type="qcurve" smooth="yes"/>
      <point x="242.04255319148936" y="838.0425531914893"/>
      <point x="180.2127659574468" y="905.7021276595744"/>
    </contour>
  </outline>
</glyph>
<glyph name="less" format="2">
  <advance width="896.6602739726028"/>
  <unicode hex="003C"/>
  <outline>
    <contour>
      <point x="772.0684931506851" y="223.76595744680853" type="line"/>
      <point x="91.00000000000001" y="603.0638297872341" type="line"/>
      <point x="91.00000000000001" y="741.4468085106383" type="line"/>
      <point x="772.0684931506851" y="1120.4468085106384" type="line"/>
      <point x="800.2602739726028" y="947.1775964247547" type="line"/>
      <point x="287.51501020110754" y="677.0425531914896" type="line"/>
      <point x="800.2602739726028" y="407.50461478674833" type="line"/>
    </contour>
  </outline>
</glyph>
<glyph name="equal" format="2">
  <advance width="905.8602739726028"/>
  <unicode hex="003D"/>
  <outline>
    <contour>
      <point x="52.300000000000004" y="384.44680851063833" type="line"/>
      <point x="52.300000000000004" y="546.5531914893618" type="line"/>
      <point x="853.5602739726029" y="546.5531914893618" type="line"/>
      <point x="853.5602739726029" y="384.44680851063833" type="line"/>
    </contour>
    <contour>
      <point x="52.300000000000004" y="779.4468085106383" type="line"/>
      <point x="52.300000000000004" y="941.5531914893619" type="line"/>
      <point x="853.5602739726029" y="941.5531914893619" type="line"/>
      <point x="853.5602739726029" y="779.4468085106383" type="line"/>
    </contour>
  </outline>
</glyph>
<glyph name="greater" format="2">
  <advance width="896.6602739726028"/>
  <unicode hex="003E"/>
  <outline>
    <contour>
      <point x="124.59178082191781" y="223.76595744680853" type="line"/>
      <point x="96.4" y="400.16758962401633" type="line"/>
      <point x="609.1452637714954" y="669.7055280287575" type="line"/>
      <point x="96.4" y="939.8405712620228" type="line"/>
      <point x="124.59178082191781" y="1120.4468085106384" type="line"/>
      <point x="805.6602739726029" y="741.4468085106383" type="line"/>
      <point x="805.6602739726029" y="603.0638297872341" type="line"/>
    </contour>
  </outline>
</glyph>
<glyph name="question" format="2">
  <advance width="878.4402992324881"/>
  <unicode hex="003F"/>
  <outline>
    <contour>
      <point x="279.2839794034781" y="93.51063829787235" type="qcurve" smooth="yes"/>
      <point x="279.2839794034781" y="140.85106382978722"/>
      <point x="341.11376663752065" y="208.46808510638297"/>
      <point x="399.0712134460313" y="208.46808510638297" type="qcurve" smooth="yes"/>
      <point x="457.02866025454193" y="208.46808510638297"/>
      <point x="518.8584474885845" y="140.85106382978722"/>
      <point x="518.8584474885845" y="93.51063829787235" type="qcurve" smooth="yes"/>
      <point x="518.8584474885845" y="46.170212765957444"/>
      <point x="457.02866025454193" y="-21.4468085106383"/>
      <point x="399.0712134460313" y="-21.4468085106383" type="qcurve" smooth="yes"/>
      <point x="341.11376663752065" y="-21.4468085106383"/>
      <point x="279.2839794034781" y="46.170212765957444"/>
    </contour>
    <contour>
      <point x="60.0" y="1095.0" type="line"/>
      <point x="60.0" y="1115.0" type="line" smooth="yes"/>
      <point x="60.0" y="1279.8297872340424"/>
      <point x="255.6502477411833" y="1476.0"/>
      <point x="424.9751287282619" y="1476.0" type="qcurve" smooth="yes"/>
      <point x="594.4276692898086" y="1476.0"/>
      <point x="784.4402992324881" y="1270.0"/>
      <point x="784.4402992324881" y="1100.0" type="qcurve" smooth="yes"/>
      <point x="784.4402992324881" y="966.0851063829788"/>
      <point x="653.3968716603517" y="761.3191489361702"/>
      <point x="587.7262217040707" y="696.5957446808511" type="qcurve" smooth="yes"/>
      <point x="512.8043330418731" y="622.6211017196154"/>
      <point x="479.4541921694356" y="493.6170212765957"/>
      <point x="479.4541921694356" y="422.5531914893617" type="qcurve" smooth="yes"/>
      <point x="479.4541921694356" y="410.0" type="line"/>
      <point x="301.0712134460313" y="410.0" type="line"/>
      <point x="301.0712134460313" y="422.5531914893617" type="line" smooth="yes"/>
      <point x="301.0712134460313" y="546.2765957446809"/>
      <point x="359.04245603808414" y="690.3534440882153"/>
      <point x="442.3864762459924" y="781.9787234042553" type="qcurve" smooth="yes"/>
      <point x="515.2555134557466" y="863.063829787234"/>
      <point x="606.0573205090839" y="998.6808510638298"/>
      <point x="606.0573205090839" y="1100.0" type="qcurve" smooth="yes"/>
      <point x="606.0573205090839" y="1201.034539928157"/>
      <point x="516.1380549888274" y="1316.012987012987"/>
      <point x="424.61274652676576" y="1316.012987012987" type="qcurve" smooth="yes"/>
      <point x="333.1835227824735" y="1316.012987012987"/>
      <point x="237.4255319148936" y="1210.7792207792209"/>
      <point x="237.4255319148936" y="1115.0" type="qcurve" smooth="yes"/>
      <point x="237.4255319148936" y="1095.0" type="line"/>
    </contour>
  </outline>
</glyph>
<glyph name="at" format="2">
  <advance width="1938.1726027397262"/>
  <unicode hex="0040"/>
  <outline>
    <contour>
      <point x="559.1319148936171" y="399.06382978723406" type="qcurve" smooth="yes"/>
      <point x="565.1730107840281" y="678.0425531914894"/>
      <point x="844.7250364325271" y="1052.0000000000002"/>
      <point x="1020.1863864106361" y="1052.0000000000002" type="qcurve" smooth="yes"/>
      <point x="1102.9855778924273" y="1052.0000000000002"/>
      <point x="1239.2070826094146" y="985.2553191489362"/>
      <point x="1284.8614398134657" y="946.0000000000001" type="qcurve"/>
      <point x="1363.4874963567472" y="946.0000000000001" type="line"/>
      <point x="1243.2321772078112" y="350.00000000000006" type="line" smooth="yes"/>
      <point x="1219.3114808828598" y="230.5371649626969"/>
      <point x="1294.1910081369133" y="134.32467532467535"/>
      <point x="1368.5903338670462" y="134.32467532467535" type="qcurve" smooth="yes"/>
      <point x="1498.1415621005833" y="134.32467532467535"/>
      <point x="1658.0194112503648" y="417.7944183476099"/>
      <point x="1658.0194112503648" y="650.0000000000001" type="qcurve" smooth="yes"/>
      <point x="1658.0194112503648" y="922.4191765681129"/>
      <point x="1312.1088996304386" y="1331.9350649350652"/>
      <point x="1004.8009132420094" y="1331.9350649350652" type="qcurve" smooth="yes"/>
      <point x="697.1207245877605" y="1331.9350649350652"/>
      <point x="285.77021276595747" y="824.0676982591876"/>
      <point x="285.77021276595747" y="460.00000000000006" type="qcurve" smooth="yes"/>
      <point x="285.77021276595747" y="98.82564244266372"/>
      <point x="641.5222369003775" y="-291.935064935065"/>
      <point x="922.0292237442924" y="-291.935064935065" type="qcurve" smooth="yes"/>
      <point x="1057.330593607306" y="-291.935064935065"/>
      <point x="1238.2755025796125" y="-238.03896103896105"/>
      <point x="1299.8785388127856" y="-201.93506493506496" type="qcurve"/>
      <point x="1300.3260273972603" y="-356.00000000000006" type="line"/>
      <point x="1233.682191780822" y="-400.00000000000006"/>
      <point x="1052.6319634703198" y="-446.0000000000001"/>
      <point x="919.344292237443" y="-446.0000000000001" type="qcurve" smooth="yes"/>
      <point x="581.9424657534247" y="-450.0273972602741"/>
      <point x="107.3872340425532" y="37.76255707762557"/>
      <point x="107.3872340425532" y="459.55251141552515" type="qcurve" smooth="yes"/>
      <point x="107.3872340425532" y="882.2251044399108"/>
      <point x="638.1580491596233" y="1486.0"/>
      <point x="1004.7583600505201" y="1486.0" type="qcurve" smooth="yes"/>
      <point x="1370.933139026523" y="1486.0"/>
      <point x="1830.657709122705" y="1000.0000000000001"/>
      <point x="1830.657709122705" y="650.0000000000001" type="qcurve" smooth="yes"/>
      <point x="1830.657709122705" y="360.00000000000006"/>
      <point x="1571.7954726513165" y="0.0"/>
      <point x="1382.0657534246577" y="0.0" type="qcurve" smooth="yes"/>
      <point x="1270.7657437093171" y="0.0"/>
      <point x="1107.515715004902" y="102.52445426913513"/>
      <point x="1074.7746994868535" y="183.073500967118" type="qcurve"/>
      <point x="1028.8638648633987" y="102.258358662614"/>
      <point x="897.6331785187513" y="0.0"/>
      <point x="822.1585349266493" y="0.0" type="qcurve" smooth="yes"/>
      <point x="692.7047313708348" y="0.0"/>
      <point x="555.1045176333431" y="218.59574468085108"/>
    </contour>
    <contour>
      <point x="742.2396580200137" y="399.9588069561838" type="qcurve" smooth="yes"/>
      <point x="738.4360050519772" y="279.8372264090714"/>
      <point x="809.6557887657859" y="154.97289924687183"/>
      <point x="879.5214256063572" y="154.7491549546344" type="qcurve" smooth="yes"/>
      <point x="941.2683510796016" y="154.52541066239698"/>
      <point x="1043.2494578966164" y="259.1834016561501"/>
      <point x="1070.515755380343" y="389.32404824360526" type="qcurve" smooth="yes"/>
      <point x="1171.5638135108845" y="869.4675324675326" type="line"/>
      <point x="1145.5390393925516" y="890.5147830892513"/>
      <point x="1076.5509715971389" y="913.9510170195102"/>
      <point x="1041.0138053727094" y="913.9510170195102" type="qcurve" smooth="yes"/>
      <point x="919.0178820305315" y="914.1747613117477"/>
      <point x="749.1757310793745" y="621.2246262432798"/>
    </contour>
  </outline>
</glyph>
<glyph name="A" format="2">
  <advance width="1108.0420674244633"/>
  <unicode hex="0041"/>
  <anchor x="634.3404255319149" y="0.0" name="bottom"/>
  <anchor x="1167.7021276595744" y="0.0" name="ogonek"/>
  <anchor x="634.3404255319149" y="1456.0" name="top"/>
  <anchor x="254.53191489361703" y="1074.0" name="tonos"/>
  <outline>
    <contour>
      <point x="11.187214611872145" y="0.0" type="line"/>
      <point x="470.38686485961335" y="1465.9148936170213" type="line"/>
      <point x="635.6318857475954" y="1465.9148936170213" type="line"/>
      <point x="1096.8548528125912" y="0.0" type="line"/>
      <point x="905.0676187700379" y="0.0" type="line"/>
      <point x="586.0575148158943" y="1086.0264257262218" type="line" smooth="yes"/>
      <point x="576.5612552219956" y="1118.941319343243"/>
      <point x="561.2887399203343" y="1180.6434470028175"/>
      <point x="555.4925677645001" y="1213.132808704945" type="qcurve"/>
      <point x="546.6963956086661" y="1213.132808704945" type="line"/>
      <point x="540.900223452832" y="1180.6434470028175"/>
      <point x="526.0751967356456" y="1118.941319343243"/>
      <point x="516.5789371417468" y="1085.941319343243" type="qcurve" smooth="yes"/>
      <point x="195.31487418634023" y="0.0" type="line"/>
    </contour>
    <contour>
      <point x="209.1024880103866" y="381.05194805194805" type="line"/>
      <point x="258.02789438289295" y="537.0909090909091" type="line"/>
      <point x="845.1460417557765" y="537.0909090909091" type="line"/>
      <point x="894.0940848717007" y="381.05194805194805" type="line"/>
    </contour>
  </outline>
</glyph>
<glyph name="B" format="2">
  <advance width="1119.6613232293794"/>
  <unicode hex="0042"/>
  <anchor x="621.6595744680851" y="0.0" name="bottom"/>
  <anchor x="621.6595744680851" y="1456.0" name="top"/>
  <outline>
    <contour>
      <point x="170.0" y="0.0" type="line"/>
      <point x="170.0" y="1456.0" type="line"/>
      <point x="577.1882832993297" y="1456.0" type="line" smooth="yes"/>
      <point x="763.8022928203633" y="1456.0"/>
      <point x="985.9124647818908" y="1270.0"/>
      <point x="985.9124647818908" y="1074.4748858447488" type="qcurve" smooth="yes"/>
      <point x="985.9124647818908" y="950.0"/>
      <point x="876.6755076265423" y="801.7859369815067"/>
      <point x="791.0872437578937" y="770.013698630137" type="qcurve"/>
      <point x="791.0872437578937" y="766.013698630137" type="line"/>
      <point x="896.00427474983" y="734.9017148206889"/>
      <point x="1019.6613232293793" y="561.5991450500339"/>
      <point x="1019.6613232293793" y="416.8675799086758" type="qcurve" smooth="yes"/>
      <point x="1019.6613232293793" y="220.0"/>
      <point x="790.3630622753328" y="0.0"/>
      <point x="602.7133974545808" y="0.0" type="qcurve" smooth="yes"/>
    </contour>
    <contour>
      <point x="350.29787234042556" y="156.03896103896105" type="line"/>
      <point x="602.9371417468183" y="156.03896103896105" type="line" smooth="yes"/>
      <point x="723.8733927104664" y="156.03896103896105"/>
      <point x="837.4485572719324" y="298.7113206428275"/>
      <point x="837.4485572719324" y="420.0" type="qcurve" smooth="yes"/>
      <point x="837.4485572719324" y="541.4371903235209"/>
      <point x="721.7090255513456" y="681.0649350649351"/>
      <point x="602.9371417468183" y="681.0649350649351" type="qcurve" smooth="yes"/>
      <point x="273.5744680851064" y="681.0649350649351" type="line"/>
      <point x="273.5744680851064" y="835.1298701298701" type="line"/>
      <point x="575.5641950588031" y="835.1298701298701" type="line" smooth="yes"/>
      <point x="697.1214417565335" y="835.1298701298701"/>
      <point x="803.4759545322064" y="957.5085980763625"/>
      <point x="803.4759545322064" y="1070.0" type="qcurve" smooth="yes"/>
      <point x="803.4759545322064" y="1181.1298701298701"/>
      <point x="698.3468225158693" y="1299.9610389610389"/>
      <point x="579.425726221704" y="1299.9610389610389" type="qcurve" smooth="yes"/>
      <point x="350.29787234042556" y="1299.9610389610389" type="line"/>
    </contour>
  </outline>
</glyph>
<glyph name="C" format="2">
  <advance width="1170.9292043136113"/>
  <unicode hex="0043"/>
  <anchor x="691.5851063829789" y="0.0" name="bottom"/>
  <anchor x="701.5851063829789" y="1456.0000000000002" name="top"/>
  <outline>
    <contour>
      <point x="104.50000000000001" y="623.6027397260276" type="qcurve" smooth="yes"/>
      <point x="104.50000000000001" y="833.2922374429226" type="line" smooth="yes"/>
      <point x="104.50000000000001" y="1150.0186534538036"/>
      <point x="394.54119304381624" y="1486.2237442922374"/>
      <point x="621.2609054697368" y="1486.2237442922374" type="qcurve" smooth="yes"/>
      <point x="847.9064898474694" y="1486.2237442922374"/>
      <point x="1094.3292043136114" y="1219.5172447294278"/>
      <point x="1094.3292043136114" y="1031.324200913242" type="qcurve" smooth="yes"/>
      <point x="1094.3292043136114" y="990.0000000000002" type="line"/>
      <point x="910.2015447391432" y="990.0000000000002" type="line"/>
      <point x="910.2015447391432" y="1035.799086757991" type="line" smooth="yes"/>
      <point x="910.2015447391432" y="1160.2676109472966"/>
      <point x="765.7768872048966" y="1324.0389610389611"/>
      <point x="618.5759739628876" y="1324.0389610389611" type="qcurve" smooth="yes"/>
      <point x="474.35021342205846" y="1324.0389610389611"/>
      <point x="290.5851063829787" y="1095.3845104667025"/>
      <point x="290.5851063829787" y="860.812785388128" type="qcurve" smooth="yes"/>
      <point x="290.5851063829787" y="596.9771689497718" type="line" smooth="yes"/>
      <point x="290.5851063829787" y="379.8260348414823"/>
      <point x="473.44112251296747" y="131.96103896103898"/>
      <point x="619.2472068395999" y="131.96103896103898" type="qcurve" smooth="yes"/>
      <point x="758.3106505366782" y="131.96103896103898"/>
      <point x="898.2040947005971" y="298.97926973444316"/>
      <point x="909.4252890313808" y="421.3196347031964" type="qcurve" smooth="yes"/>
      <point x="910.2015447391432" y="466.0000000000001" type="line"/>
      <point x="1094.3292043136114" y="466.0000000000001" type="line"/>
      <point x="1093.5529486058488" y="421.54337899543384" type="line" smooth="yes"/>
      <point x="1078.0278344505975" y="235.65024774118336"/>
      <point x="845.5413873506268" y="-30.0"/>
      <point x="621.2609054697368" y="-30.0" type="qcurve" smooth="yes"/>
      <point x="394.4451083260469" y="-30.0"/>
      <point x="104.50000000000001" y="310.98882735839896"/>
    </contour>
  </outline>
</glyph>
<glyph name="D" format="2">
  <advance width="1212.2312251044398"/>
  <unicode hex="0044"/>
  <anchor x="623.531914893617" y="0.0" name="bottom"/>
  <anchor x="315.70212765957444" y="728.0" name="center"/>
  <anchor x="623.4042553191489" y="1456.0" name="top"/>
  <outline>
    <contour>
      <point x="170.0" y="0.0" type="line"/>
      <point x="170.0" y="1456.0" type="line"/>
      <point x="541.7714951909064" y="1456.0" type="line" smooth="yes"/>
      <point x="789.9503546099291" y="1456.0"/>
      <point x="1107.8323132225785" y="1121.5988826096666"/>
      <point x="1107.8323132225785" y="836.2009132420092" type="qcurve" smooth="yes"/>
      <point x="1107.8323132225785" y="613.5342465753424" type="line" smooth="yes"/>
      <point x="1107.8323132225785" y="330.3972602739726"/>
      <point x="789.9337754444138" y="0.0"/>
      <point x="541.7714951909064" y="0.0" type="qcurve" smooth="yes"/>
    </contour>
    <contour>
      <point x="354.1276595744681" y="156.03896103896105" type="line"/>
      <point x="548.9313125425047" y="156.03896103896105" type="line" smooth="yes"/>
      <point x="719.6951742515718" y="156.03896103896105"/>
      <point x="921.789760031089" y="389.3272252861294"/>
      <point x="921.789760031089" y="597.7163019628773" type="qcurve" smooth="yes"/>
      <point x="921.789760031089" y="857.1649765759355" type="line" smooth="yes"/>
      <point x="921.789760031089" y="1065.9028213601223"/>
      <point x="719.636041894567" y="1299.9610389610389"/>
      <point x="548.9313125425047" y="1299.9610389610389" type="qcurve" smooth="yes"/>
      <point x="354.1276595744681" y="1299.9610389610389" type="line"/>
    </contour>
  </outline>
</glyph>
<glyph name="E" format="2">
  <advance width="1037.5568833187604"/>
  <unicode hex="0045"/>
  <anchor x="625.8723404255319" y="0.0" name="bottom"/>
  <anchor x="1086.0425531914893" y="0.0" name="ogonek"/>
  <anchor x="640.2340425531914" y="1456.0" name="top"/>
  <anchor x="-74.87234042553192" y="1074.0" name="tonos"/>
  <outline>
    <contour>
      <point x="170.0" y="0.0" type="line"/>
      <point x="170.0" y="1456.0" type="line"/>
      <point x="960.8993490721849" y="1456.0" type="line"/>
      <point x="960.8993490721849" y="1299.9610389610389" type="line"/>
      <point x="354.1276595744681" y="1299.9610389610389" type="line"/>
      <point x="354.1276595744681" y="156.03896103896105" type="line"/>
      <point x="969.5568833187602" y="156.03896103896105" type="line"/>
      <point x="969.5568833187602" y="0.0" type="line"/>
    </contour>
    <contour>
      <point x="267.82978723404256" y="673.012987012987" type="line"/>
      <point x="267.82978723404256" y="829.0519480519481" type="line"/>
      <point x="880.534052268532" y="829.0519480519481" type="line"/>
      <point x="880.534052268532" y="673.012987012987" type="line"/>
    </contour>
  </outline>
</glyph>
<glyph name="F" format="2">
  <advance width="1008.465559117847"/>
  <unicode hex="0046"/>
  <anchor x="561.7234042553191" y="0.0" name="bottom"/>
  <anchor x="625.4468085106383" y="1457.0" name="top"/>
  <outline>
    <contour>
      <point x="170.0" y="0.0" type="line"/>
      <point x="170.0" y="1456.0" type="line"/>
      <point x="950.465559117847" y="1456.0" type="line"/>
      <point x="950.465559117847" y="1299.9610389610389" type="line"/>
      <point x="354.1276595744681" y="1299.9610389610389" type="line"/>
      <point x="354.1276595744681" y="0.0" type="line"/>
    </contour>
    <contour>
      <point x="267.82978723404256" y="644.012987012987" type="line"/>
      <point x="267.82978723404256" y="800.0519480519481" type="line"/>
      <point x="867.3514038667056" y="800.0519480519481" type="line"/>
      <point x="867.3514038667056" y="644.012987012987" type="line"/>
    </contour>
  </outline>
</glyph>
<glyph name="G" format="2">
  <advance width="1222.4730204993687"/>
  <unicode hex="0047"/>
  <anchor x="566.3304673078793" y="0.0" name="bottom"/>
  <anchor x="565.9900417759644" y="1456.0000000000002" name="top"/>
  <outline>
    <contour>
      <point x="104.50000000000001" y="624.2739726027398" type="qcurve" smooth="yes"/>
      <point x="104.50000000000001" y="832.1735159817354" type="line" smooth="yes"/>
      <point x="104.50000000000001" y="1147.4188283299331"/>
      <point x="398.87744097930636" y="1486.0"/>
      <point x="634.8895851549598" y="1485.7762557077624" type="qcurve" smooth="yes"/>
      <point x="849.3450403186633" y="1486.0"/>
      <point x="1092.9426309142136" y="1237.4294180511029"/>
      <point x="1104.6818711745848" y="1061.0944331098808" type="qcurve" smooth="yes"/>
      <point x="1105.402586677871" y="1030.0000000000002" type="line"/>
      <point x="922.4066355775772" y="1030.0000000000002" type="line"/>
      <point x="922.4066355775772" y="1067.073059360731" type="line" smooth="yes"/>
      <point x="922.4066355775772" y="1164.7794176094965"/>
      <point x="770.633911459181" y="1324.0389610389611"/>
      <point x="631.9946079860101" y="1324.0389610389611" type="qcurve" smooth="yes"/>
      <point x="475.140167759958" y="1324.0389610389611"/>
      <point x="290.5425531914894" y="1076.8617772007456"/>
      <point x="290.5425531914894" y="860.1415525114157" type="qcurve" smooth="yes"/>
      <point x="290.5425531914894" y="597.6484018264841" type="line" smooth="yes"/>
      <point x="290.5425531914894" y="380.0331999682044"/>
      <point x="474.82033874995113" y="131.96103896103898"/>
      <point x="646.7434664334985" y="131.96103896103898" type="qcurve" smooth="yes"/>
      <point x="739.2914116389782" y="131.96103896103898"/>
      <point x="870.4283979403478" y="176.59372590879443"/>
      <point x="926.9900417759643" y="229.12987012987017" type="qcurve"/>
      <point x="926.9900417759643" y="571.961038961039" type="line"/>
      <point x="634.1270280773342" y="571.961038961039" type="line"/>
      <point x="634.1270280773342" y="728.0000000000001" type="line"/>
      <point x="1105.3730204993687" y="728.0000000000001" type="line"/>
      <point x="1105.3730204993687" y="162.23744292237444" type="line"/>
      <point x="1049.9027008646656" y="93.13242009132422"/>
      <point x="818.5720878266784" y="-30.0"/>
      <point x="651.4420965704849" y="-30.0" type="qcurve" smooth="yes"/>
      <point x="396.3201690469252" y="-30.0"/>
      <point x="104.50000000000001" y="309.7534246575343"/>
    </contour>
  </outline>
</glyph>
<glyph name="H" format="2">
  <advance width="1301.2964150393473"/>
  <unicode hex="0048"/>
  <anchor x="721.1276595744681" y="0.0" name="bottom"/>
  <anchor x="721.1276595744681" y="1100.0" name="center"/>
  <anchor x="721.1276595744681" y="1456.0" name="top"/>
  <anchor x="1182.127659574468" y="0.0" name="cy_descender"/>
  <anchor x="-74.87234042553192" y="1074.0" name="tonos"/>
  <outline>
    <contour>
      <point x="170.0" y="0.0" type="line"/>
      <point x="170.0" y="1456.0" type="line"/>
      <point x="354.1276595744681" y="1456.0" type="line"/>
      <point x="354.1276595744681" y="0.0" type="line"/>
    </contour>
    <contour>
      <point x="267.8723404255319" y="673.0909090909091" type="line"/>
      <point x="267.8723404255319" y="829.1298701298701" type="line"/>
      <point x="1042.9559895074324" y="829.1298701298701" type="line"/>
      <point x="1042.9559895074324" y="673.0909090909091" type="line"/>
    </contour>
    <contour>
      <point x="947.1687554648789" y="0.0" type="line"/>
      <point x="947.1687554648789" y="1456.0" type="line"/>
      <point x="1131.2964150393473" y="1456.0" type="line"/>
      <point x="1131.2964150393473" y="0.0" type="line"/>
    </contour>
  </outline>
</glyph>
<glyph name="I" format="2">
  <advance width="534.1276595744681"/>
  <unicode hex="0049"/>
  <anchor x="267.0851063829787" y="0.0" name="bottom"/>
  <anchor x="300.63829787234044" y="0.0" name="ogonek"/>
  <anchor x="267.0851063829787" y="1456.0" name="top"/>
  <anchor x="-74.87234042553192" y="1074.0" name="tonos"/>
  <anchor x="267.0851063829787" y="750.0" name="yu_dash"/>
  <outline>
    <contour>
      <point x="175.0" y="0.0" type="line"/>
      <point x="175.0" y="1456.0" type="line"/>
      <point x="359.1276595744681" y="1456.0" type="line"/>
      <point x="359.1276595744681" y="0.0" type="line"/>
    </contour>
  </outline>
</glyph>
<glyph name="J" format="2">
  <advance width="988.4927620713106"/>
  <unicode hex="004A"/>
  <anchor x="443.599145050034" y="0.0" name="bottom"/>
  <anchor x="746.194889730885" y="1456.0" name="top"/>
  <outline>
    <contour>
      <point x="25.0" y="372.0319634703196" type="qcurve" smooth="yes"/>
      <point x="25.0" y="410.0" type="line"/>
      <point x="209.12765957446808" y="410.0" type="line"/>
      <point x="209.12765957446808" y="363.30593607305934" type="line" smooth="yes"/>
      <point x="209.12765957446808" y="250.5850679001364"/>
      <point x="326.52990116849054" y="131.96103896103895"/>
      <point x="429.2463810356553" y="131.96103896103895" type="qcurve" smooth="yes"/>
      <point x="531.9758479158071" y="131.96103896103895"/>
      <point x="649.3651024968426" y="263.34762497776194"/>
      <point x="649.3651024968426" y="384.9497716894977" type="qcurve" smooth="yes"/>
      <point x="649.3651024968426" y="1456.0" type="line"/>
      <point x="833.4927620713106" y="1456.0" type="line"/>
      <point x="833.4927620713106" y="395.4657534246575" type="line" smooth="yes"/>
      <point x="833.4927620713106" y="194.63926940639269"/>
      <point x="610.6831827455552" y="-30.0"/>
      <point x="429.2463810356553" y="-30.0" type="qcurve" smooth="yes"/>
      <point x="247.80957932575535" y="-30.0"/>
      <point x="25.0" y="180.57679976683184"/>
    </contour>
  </outline>
</glyph>
<glyph name="K" format="2">
  <advance width="1115.8638880792773"/>
  <unicode hex="004B"/>
  <anchor x="617.1276595744681" y="0.0" name="bottom"/>
  <anchor x="617.1276595744681" y="1456.0000000000002" name="top"/>
  <outline>
    <contour>
      <point x="154.00000000000003" y="0.0" type="line"/>
      <point x="154.00000000000003" y="1456.0000000000002" type="line"/>
      <point x="338.1276595744681" y="1456.0000000000002" type="line"/>
      <point x="338.1276595744681" y="0.0" type="line"/>
    </contour>
    <contour>
      <point x="907.0766540367241" y="0.0" type="line"/>
      <point x="424.772726641861" y="765.653388193464" type="line"/>
      <point x="545.9759059555038" y="889.6595744680852" type="line"/>
      <point x="1133.417079568639" y="0.0" type="line"/>
    </contour>
    <contour>
      <point x="248.04255319148942" y="397.4935064935066" type="line"/>
      <point x="248.04255319148942" y="646.1411967028406" type="line"/>
      <point x="862.1988717587669" y="1456.0000000000002" type="line"/>
      <point x="1091.3027678626631" y="1456.0000000000002" type="line"/>
    </contour>
  </outline>
</glyph>
<glyph name="L" format="2">
  <advance width="966.5267463324591"/>
  <unicode hex="004C"/>
  <anchor x="610.2978723404256" y="0.0" name="bottom"/>
  <anchor x="835.1063829787236" y="728.0000000000001" name="center"/>
  <anchor x="359.1063829787234" y="1456.0000000000002" name="top"/>
  <anchor x="724.1063829787236" y="1052.0000000000002" name="topright"/>
  <outline>
    <contour>
      <point x="154.00000000000003" y="0.0" type="line"/>
      <point x="154.00000000000003" y="1456.0000000000002" type="line"/>
      <point x="338.1276595744681" y="1456.0000000000002" type="line"/>
      <point x="338.1276595744681" y="156.03896103896108" type="line"/>
      <point x="916.9267463324592" y="156.03896103896108" type="line"/>
      <point x="916.9267463324592" y="0.0" type="line"/>
    </contour>
  </outline>
</glyph>
<glyph name="M" format="2">
  <advance width="1610.7078597104828"/>
  <unicode hex="004D"/>
  <anchor x="887.468085106383" y="0.0" name="bottom"/>
  <anchor x="887.468085106383" y="1456.0" name="top"/>
  <outline>
    <contour>
      <point x="170.0" y="0.0" type="line"/>
      <point x="170.0" y="1456.0" type="line"/>
      <point x="407.74468085106383" y="1456.0" type="line"/>
      <point x="765.0635383270185" y="351.72340425531917" type="line" smooth="yes"/>
      <point x="774.7835422131545" y="321.49965996308174"/>
      <point x="792.1501020110754" y="256.72340425531917"/>
      <point x="800.2352083940542" y="226.72340425531914" type="qcurve"/>
      <point x="808.2352083940542" y="226.72340425531914" type="line"/>
      <point x="816.0965704847955" y="256.72340425531917"/>
      <point x="834.1769163509182" y="321.4035752453123"/>
      <point x="844.1206645292917" y="351.8510638297872" type="qcurve" smooth="yes"/>
      <point x="1202.963178859419" y="1456.0" type="line"/>
      <point x="1440.7078597104828" y="1456.0" type="line"/>
      <point x="1440.7078597104828" y="0.0" type="line"/>
      <point x="1262.3248809870786" y="0.0" type="line"/>
      <point x="1262.3248809870786" y="1060.8085106382978" type="line" smooth="yes"/>
      <point x="1262.3248809870786" y="1090.8085106382978"/>
      <point x="1264.2397746040997" y="1164.7021276595744"/>
      <point x="1268.0695618381424" y="1194.659574468085" type="qcurve"/>
      <point x="1260.0695618381424" y="1194.659574468085" type="line"/>
      <point x="1253.9419022636744" y="1164.9574468085107"/>
      <point x="1234.5870008743807" y="1091.1599145050034"/>
      <point x="1224.8669969882444" y="1060.936170212766" type="qcurve" smooth="yes"/>
      <point x="881.916059457884" y="0.0" type="line"/>
      <point x="722.7245700961819" y="0.0" type="line"/>
      <point x="382.4366074030895" y="1059.787234042553" type="line" smooth="yes"/>
      <point x="372.6740503254639" y="1090.0535315262798"/>
      <point x="353.02127659574467" y="1164.7446808510638"/>
      <point x="346.8085106382979" y="1194.7446808510638" type="qcurve"/>
      <point x="338.8085106382979" y="1194.7446808510638" type="line"/>
      <point x="342.63829787234044" y="1164.7021276595744"/>
      <point x="344.5531914893617" y="1089.7446808510638"/>
      <point x="344.5531914893617" y="1059.7446808510638" type="qcurve" smooth="yes"/>
      <point x="344.5531914893617" y="0.0" type="line"/>
    </contour>
  </outline>
</glyph>
<glyph name="N" format="2">
  <advance width="1303.4130962790246"/>
  <unicode hex="004E"/>
  <anchor x="722.7659574468086" y="0.0" name="bottom"/>
  <anchor x="722.7659574468086" y="1456.0" name="top"/>
  <anchor x="1185.4255319148936" y="0.0" name="engtail"/>
  <outline>
    <contour>
      <point x="170.0" y="0.0" type="line"/>
      <point x="170.0" y="1456.0" type="line"/>
      <point x="362.17021276595744" y="1456.0" type="line"/>
      <point x="891.6854172738755" y="422.63829787234044" type="line" smooth="yes"/>
      <point x="907.7115515398816" y="391.21072573593705"/>
      <point x="936.0102011075488" y="332.63829787234044"/>
      <point x="947.1152239385991" y="307.63829787234044" type="qcurve"/>
      <point x="955.0301175556204" y="307.63829787234044" type="line"/>
      <point x="954.0726707471098" y="337.63829787234044"/>
      <point x="953.1152239385991" y="412.63829787234044"/>
      <point x="953.1152239385991" y="442.63829787234044" type="qcurve" smooth="yes"/>
      <point x="953.1152239385991" y="1456.0" type="line"/>
      <point x="1133.4130962790246" y="1456.0" type="line"/>
      <point x="1133.4130962790246" y="0.0" type="line"/>
      <point x="941.2003303215778" y="0.0" type="line"/>
      <point x="411.6425726221704" y="1033.3617021276596" type="line" smooth="yes"/>
      <point x="395.6164383561644" y="1064.789274264063"/>
      <point x="367.1990673273098" y="1122.9142135431846"/>
      <point x="355.29787234042556" y="1148.3617021276596" type="qcurve"/>
      <point x="348.29787234042556" y="1148.3617021276596" type="line"/>
      <point x="349.29787234042556" y="1118.3617021276596"/>
      <point x="350.29787234042556" y="1043.3617021276596"/>
      <point x="350.29787234042556" y="1013.3617021276596" type="qcurve" smooth="yes"/>
      <point x="350.29787234042556" y="0.0" type="line"/>
    </contour>
  </outline>
</glyph>
<glyph name="O" format="2">
  <advance width="1261.3179830953077"/>
  <unicode hex="004F"/>
  <anchor x="711.5425531914893" y="0.0" name="bottom"/>
  <anchor x="711.5425531914893" y="728.0000000000001" name="center"/>
  <anchor x="906.9893617021278" y="0.0" name="ogonek"/>
  <anchor x="711.5425531914893" y="1456.0000000000002" name="top"/>
  <anchor x="902.1595744680853" y="1456.0000000000002" name="topright"/>
  <anchor x="13.308510638297873" y="1074.0000000000002" name="tonos"/>
  <anchor x="290.4148936170213" y="750.0" name="yu_dash"/>
  <outline>
    <contour>
      <point x="104.50000000000001" y="623.826484018265" type="qcurve" smooth="yes"/>
      <point x="104.50000000000001" y="832.3972602739728" type="line" smooth="yes"/>
      <point x="104.50000000000001" y="1140.876712328767"/>
      <point x="395.904255319149" y="1486.0"/>
      <point x="630.547119401535" y="1486.0" type="qcurve" smooth="yes"/>
      <point x="865.1899834839212" y="1486.0"/>
      <point x="1156.8179830953077" y="1140.876712328767"/>
      <point x="1156.8179830953077" y="832.3972602739728" type="qcurve" smooth="yes"/>
      <point x="1156.8179830953077" y="623.826484018265" type="line" smooth="yes"/>
      <point x="1156.8179830953077" y="315.3470319634704"/>
      <point x="864.9662391916838" y="-30.0"/>
      <point x="630.547119401535" y="-30.0" type="qcurve" smooth="yes"/>
      <point x="396.12799961138643" y="-30.0"/>
      <point x="104.50000000000001" y="315.3470319634704"/>
    </contour>
    <contour>
      <point x="290.5425531914894" y="597.2009132420093" type="line" smooth="yes"/>
      <point x="290.5425531914894" y="379.72434929298817"/>
      <point x="475.27003788982813" y="131.96103896103898"/>
      <point x="630.7708636937725" y="131.96103896103898" type="qcurve" smooth="yes"/>
      <point x="786.271689497717" y="131.96103896103898"/>
      <point x="970.7754299038182" y="379.72434929298817"/>
      <point x="970.7754299038182" y="597.2009132420093" type="qcurve" smooth="yes"/>
      <point x="970.7754299038182" y="860.3652968036532" type="line" smooth="yes"/>
      <point x="970.7754299038182" y="1077.2557342589405"/>
      <point x="785.8242009132422" y="1324.0389610389611"/>
      <point x="630.7708636937725" y="1324.0389610389611" type="qcurve" smooth="yes"/>
      <point x="475.717526474303" y="1324.0389610389611"/>
      <point x="290.5425531914894" y="1077.2557342589405"/>
      <point x="290.5425531914894" y="860.3652968036532" type="qcurve" smooth="yes"/>
    </contour>
  </outline>
</glyph>
<glyph name="P" format="2">
  <advance width="1065.6708442630916"/>
  <unicode hex="0050"/>
  <anchor x="592.1276595744681" y="0.0" name="bottom"/>
  <anchor x="592.1276595744681" y="1456.0" name="top"/>
  <outline>
    <contour>
      <point x="170.0" y="0.0" type="line"/>
      <point x="170.0" y="1456.0" type="line"/>
      <point x="581.4792577479841" y="1456.0" type="line" smooth="yes"/>
      <point x="787.3465461964443" y="1456.0"/>
      <point x="1015.6708442630915" y="1220.1886719129504"/>
      <point x="1015.6708442630915" y="1015.0" type="qcurve" smooth="yes"/>
      <point x="1015.6708442630915" y="809.8538812785388"/>
      <point x="787.3039930049549" y="570.0"/>
      <point x="581.4792577479841" y="570.0" type="qcurve" smooth="yes"/>
      <point x="267.78723404255317" y="570.0" type="line"/>
      <point x="267.78723404255317" y="726.038961038961" type="line"/>
      <point x="581.4792577479841" y="726.038961038961" type="line" smooth="yes"/>
      <point x="720.168043847729" y="726.038961038961"/>
      <point x="831.5431846886233" y="884.5991475734991"/>
      <point x="831.5431846886233" y="1015.0" type="qcurve" smooth="yes"/>
      <point x="831.5431846886233" y="1145.3842732609855"/>
      <point x="720.1514646822137" y="1299.9610389610389"/>
      <point x="581.4792577479841" y="1299.9610389610389" type="qcurve" smooth="yes"/>
      <point x="354.1276595744681" y="1299.9610389610389" type="line"/>
      <point x="354.1276595744681" y="0.0" type="line"/>
    </contour>
  </outline>
</glyph>
<glyph name="Q" format="2">
  <advance width="1282.3179830953075"/>
  <unicode hex="0051"/>
  <anchor x="722.0425531914893" y="0.0" name="bottom"/>
  <anchor x="722.0425531914893" y="1456.0" name="top"/>
  <outline>
    <contour>
      <point x="115.0" y="623.8264840182649" type="qcurve" smooth="yes"/>
      <point x="115.0" y="832.3972602739726" type="line" smooth="yes"/>
      <point x="115.0" y="1140.876712328767"/>
      <point x="406.40425531914894" y="1486.0"/>
      <point x="641.047119401535" y="1486.0" type="qcurve" smooth="yes"/>
      <point x="875.6899834839211" y="1486.0"/>
      <point x="1167.3179830953075" y="1140.876712328767"/>
      <point x="1167.3179830953075" y="832.3972602739726" type="qcurve" smooth="yes"/>
      <point x="1167.3179830953075" y="623.8264840182649" type="line" smooth="yes"/>
      <point x="1167.3179830953075" y="315.34703196347033"/>
      <point x="875.4662391916837" y="-30.0"/>
      <point x="641.047119401535" y="-30.0" type="qcurve" smooth="yes"/>
      <point x="406.6279996113864" y="-30.0"/>
      <point x="115.0" y="315.34703196347033"/>
    </contour>
    <contour>
      <point x="301.0425531914894" y="597.2009132420092" type="line" smooth="yes"/>
      <point x="301.0425531914894" y="379.72434929298817"/>
      <point x="485.7700378898281" y="131.96103896103895"/>
      <point x="641.2708636937724" y="131.96103896103895" type="qcurve" smooth="yes"/>
      <point x="796.7716894977169" y="131.96103896103895"/>
      <point x="981.2754299038181" y="379.72434929298817"/>
      <point x="981.2754299038181" y="597.2009132420092" type="qcurve" smooth="yes"/>
      <point x="981.2754299038181" y="860.365296803653" type="line" smooth="yes"/>
      <point x="981.2754299038181" y="1077.2557342589405"/>
      <point x="796.3242009132421" y="1324.0389610389611"/>
      <point x="641.2708636937724" y="1324.0389610389611" type="qcurve" smooth="yes"/>
      <point x="486.217526474303" y="1324.0389610389611"/>
      <point x="301.0425531914894" y="1077.2557342589405"/>
      <point x="301.0425531914894" y="860.365296803653" type="qcurve" smooth="yes"/>
    </contour>
    <contour>
      <point x="1038.4234916933838" y="-222.89944622559022" type="line"/>
      <point x="723.2333347212392" y="29.460348162475825" type="line"/>
      <point x="843.0843985510263" y="149.3539651837524" type="line"/>
      <point x="1163.0617895657242" y="-98.21859516176042" type="line"/>
    </contour>
  </outline>
</glyph>
<glyph name="R" format="2">
  <advance width="1113.5671815797143"/>
  <unicode hex="0052"/>
  <anchor x="596.2457009618187" y="0.0" name="bottom"/>
  <anchor x="596.2457009618187" y="1456.0" name="top"/>
  <outline>
    <contour>
      <point x="167.67123287671234" y="0.0" type="line"/>
      <point x="167.67123287671234" y="1456.0" type="line"/>
      <point x="576.7440979306325" y="1456.0" type="line" smooth="yes"/>
      <point x="778.8927426406295" y="1456.0"/>
      <point x="998.2507529388906" y="1222.0"/>
      <point x="998.2507529388906" y="1028.0" type="qcurve" smooth="yes"/>
      <point x="998.2507529388906" y="834.0"/>
      <point x="778.9352958321189" y="593.987012987013"/>
      <point x="576.7440979306325" y="594.0" type="qcurve" smooth="yes"/>
      <point x="255.9265520256485" y="594.0" type="line"/>
      <point x="255.9265520256485" y="748.0649350649351" type="line"/>
      <point x="575.4016321772078" y="748.0649350649351" type="line" smooth="yes"/>
      <point x="709.9453505786937" y="748.0649350649351"/>
      <point x="814.1230933644224" y="902.4533783519502"/>
      <point x="814.1230933644224" y="1028.0" type="qcurve" smooth="yes"/>
      <point x="814.1230933644224" y="1153.4838971385168"/>
      <point x="709.948942731222" y="1301.922077922078"/>
      <point x="575.8491207616827" y="1301.935064935065" type="qcurve" smooth="yes"/>
      <point x="351.79889245118045" y="1301.935064935065" type="line"/>
      <point x="351.79889245118045" y="0.0" type="line"/>
    </contour>
    <contour>
      <point x="871.6893034100846" y="0.0" type="line"/>
      <point x="569.9074140665514" y="671.0519480519481" type="line"/>
      <point x="748.7380416144625" y="698.899419729207" type="line"/>
      <point x="1073.5671815797143" y="0.0" type="line"/>
    </contour>
  </outline>
</glyph>
<glyph name="S" format="2">
  <advance width="1077.0299232488098"/>
  <unicode hex="0053"/>
  <anchor x="602.5531914893617" y="0.0" name="bottom"/>
  <anchor x="602.5531914893617" y="1456.0" name="top"/>
  <outline>
    <contour>
      <point x="90.0" y="387.4840182648402" type="qcurve" smooth="yes"/>
      <point x="90.0" y="410.0" type="line"/>
      <point x="274.1276595744681" y="410.0" type="line"/>
      <point x="274.1276595744681" y="383.2328767123288" type="line" smooth="yes"/>
      <point x="274.1276595744681" y="254.507027219356"/>
      <point x="416.99980569318956" y="131.96103896103895"/>
      <point x="547.0180705333722" y="131.96103896103895" type="qcurve" smooth="yes"/>
      <point x="677.0788885650442" y="131.96103896103895"/>
      <point x="813.6984358301759" y="259.9946881060259"/>
      <point x="813.6984358301759" y="375.14213543184684" type="qcurve" smooth="yes"/>
      <point x="813.6984358301759" y="477.73788011269795"/>
      <point x="677.5312348197805" y="606.4708054017293"/>
      <point x="483.31458272612457" y="677.9161566112892" type="qcurve" smooth="yes"/>
      <point x="281.97299135334697" y="751.8714660448849"/>
      <point x="116.78247352569707" y="933.7404061012338"/>
      <point x="116.78247352569707" y="1094.9223744292237" type="qcurve" smooth="yes"/>
      <point x="116.78247352569707" y="1266.9250947245703"/>
      <point x="339.7438064704168" y="1486.0"/>
      <point x="538.1367919945594" y="1486.0" type="qcurve" smooth="yes"/>
      <point x="736.6574370931701" y="1486.0"/>
      <point x="970.0635383270185" y="1257.62100456621"/>
      <point x="970.0635383270185" y="1081.0045662100456" type="qcurve" smooth="yes"/>
      <point x="970.0635383270185" y="1052.0" type="line"/>
      <point x="785.7121344603129" y="1052.0" type="line"/>
      <point x="785.7121344603129" y="1075.1872146118722" type="line" smooth="yes"/>
      <point x="785.7121344603129" y="1194.2688133784025"/>
      <point x="662.3917881399665" y="1324.0389610389611"/>
      <point x="538.5842805790344" y="1324.0389610389611" type="qcurve" smooth="yes"/>
      <point x="414.78976003108914" y="1324.0389610389611"/>
      <point x="299.4427280676188" y="1211.518946806618"/>
      <point x="299.4427280676188" y="1101.7123287671234" type="qcurve" smooth="yes"/>
      <point x="299.4427280676188" y="1000.7576994073642"/>
      <point x="422.88438744778006" y="887.7350626639463"/>
      <point x="620.0447877198095" y="818.0371126007967" type="qcurve" smooth="yes"/>
      <point x="817.9725055863207" y="747.262994267949"/>
      <point x="997.0299232488098" y="550.2101428155057"/>
      <point x="997.0299232488098" y="373.1284368017099" type="qcurve" smooth="yes"/>
      <point x="997.0299232488098" y="192.9156708442631"/>
      <point x="755.5496939667735" y="-29.77625570776256"/>
      <point x="548.1367919945594" y="-29.77625570776256" type="qcurve" smooth="yes"/>
      <point x="339.87146604488487" y="-29.77625570776256"/>
      <point x="90.0" y="194.4489458855533"/>
    </contour>
  </outline>
</glyph>
<glyph name="T" format="2">
  <advance width="1022.8135237540077"/>
  <unicode hex="0054"/>
  <anchor x="582.5148936170212" y="0.0" name="bottom"/>
  <anchor x="582.5148936170212" y="728.0000000000001" name="center"/>
  <anchor x="582.5148936170212" y="1456.0000000000002" name="top"/>
  <anchor x="582.5148936170212" y="0.0" name="cy_descender"/>
  <outline>
    <contour>
      <point x="419.3216554940251" y="0.0" type="line"/>
      <point x="419.3216554940251" y="1378.9870129870133" type="line"/>
      <point x="603.4067618770039" y="1378.9870129870133" type="line"/>
      <point x="603.4067618770039" y="0.0" type="line"/>
    </contour>
    <contour>
      <point x="22.6" y="1299.9610389610389" type="line"/>
      <point x="22.6" y="1456.0000000000002" type="line"/>
      <point x="1000.2135237540077" y="1456.0000000000002" type="line"/>
      <point x="1000.2135237540077" y="1299.9610389610389" type="line"/>
    </contour>
  </outline>
</glyph>
<glyph name="U" format="2">
  <advance width="1189.707373943457"/>
  <unicode hex="0055"/>
  <anchor x="659.6276595744682" y="0.0" name="bottom"/>
  <anchor x="853.7340425531916" y="0.0" name="ogonek"/>
  <anchor x="659.6276595744682" y="1456.0000000000002" name="top"/>
  <anchor x="1090.5000000000002" y="1456.0000000000002" name="topright"/>
  <outline>
    <contour>
      <point x="140.50000000000003" y="442.92694063926945" type="qcurve" smooth="yes"/>
      <point x="140.50000000000003" y="1456.0000000000002" type="line"/>
      <point x="324.62765957446805" y="1456.0000000000002" type="line"/>
      <point x="324.62765957446805" y="432.63470319634706" type="line" smooth="yes"/>
      <point x="324.62765957446805" y="280.645783731473"/>
      <point x="472.0126444526037" y="131.96103896103898"/>
      <point x="594.7418148256098" y="131.96103896103898" type="qcurve" smooth="yes"/>
      <point x="717.4450111726417" y="131.96103896103898"/>
      <point x="865.0797143689888" y="280.59383567952494"/>
      <point x="865.0797143689888" y="432.63470319634706" type="qcurve" smooth="yes"/>
      <point x="865.0797143689888" y="1456.0000000000002" type="line"/>
      <point x="1049.207373943457" y="1456.0000000000002" type="line"/>
      <point x="1049.207373943457" y="442.92694063926945" type="line" smooth="yes"/>
      <point x="1049.207373943457" y="206.57534246575347"/>
      <point x="784.9988827358401" y="-30.0"/>
      <point x="594.9655591178473" y="-30.0" type="qcurve" smooth="yes"/>
      <point x="404.7084912076169" y="-30.0"/>
      <point x="140.50000000000003" y="206.57534246575347"/>
    </contour>
  </outline>
</glyph>
<glyph name="V" format="2">
  <advance width="1075.4465170504227"/>
  <unicode hex="0056"/>
  <anchor x="552.1547653745264" y="0.0" name="bottom"/>
  <anchor x="552.1547653745264" y="1456.0" name="top"/>
  <outline>
    <contour>
      <point x="0.0" y="1456.0" type="line"/>
      <point x="195.61702127659575" y="1456.0" type="line"/>
      <point x="505.82677547848056" y="388.60507140775286" type="line" smooth="yes"/>
      <point x="515.3655882638686" y="355.60507140775286"/>
      <point x="529.808996405324" y="303.03060332264647"/>
      <point x="537.0300204022151" y="273.03060332264647" type="qcurve"/>
      <point x="544.4212571650636" y="273.03060332264647" type="line"/>
      <point x="551.5997279704654" y="303.03060332264647"/>
      <point x="566.7342854367046" y="355.4348586417954"/>
      <point x="576.3156514135821" y="388.60507140775286" type="qcurve" smooth="yes"/>
      <point x="889.7265131642864" y="1456.0" type="line"/>
      <point x="1075.4465170504227" y="1456.0" type="line"/>
      <point x="619.3231322257845" y="-10.0" type="line"/>
      <point x="454.55717477897605" y="-10.0" type="line"/>
    </contour>
  </outline>
</glyph>
<glyph name="W" format="2">
  <advance width="1586.2047993782182"/>
  <unicode hex="0057"/>
  <anchor x="900.6808510638298" y="0.0" name="bottom"/>
  <anchor x="900.6808510638298" y="1456.0" name="top"/>
  <outline>
    <contour>
      <point x="361.281356261537" y="-10.0" type="line"/>
      <point x="50.0" y="1456.0" type="line"/>
      <point x="234.12765957446808" y="1456.0" type="line"/>
      <point x="443.68211405809774" y="366.4255319148936" type="line" smooth="yes"/>
      <point x="450.33964830467306" y="332.4255319148936"/>
      <point x="456.75352181093945" y="291.4255319148936"/>
      <point x="460.2099485086952" y="258.4255319148936" type="qcurve"/>
      <point x="469.09122704750797" y="258.4255319148936" type="line"/>
      <point x="472.5902069367531" y="291.468085106383"/>
      <point x="479.31293111823567" y="332.4255319148936"/>
      <point x="486.74672107257356" y="366.4255319148936" type="qcurve" smooth="yes"/>
      <point x="700.8896337316623" y="1456.0" type="line"/>
      <point x="887.1449528805986" y="1456.0" type="line"/>
      <point x="1122.37899543379" y="366.3829787234043" type="line" smooth="yes"/>
      <point x="1129.8127853881278" y="332.3829787234043"/>
      <point x="1136.5355095696104" y="291.3829787234043"/>
      <point x="1140.258233751093" y="258.3829787234043" type="qcurve"/>
      <point x="1147.9157679976684" y="258.3829787234043" type="line"/>
      <point x="1151.5959389876614" y="291.3829787234043"/>
      <point x="1159.457301078403" y="332.3829787234043"/>
      <point x="1165.6673467405033" y="366.3829787234043" type="qcurve" smooth="yes"/>
      <point x="1353.9920334207716" y="1456.0" type="line"/>
      <point x="1536.2047993782182" y="1456.0" type="line"/>
      <point x="1234.7887884970369" y="-10.0" type="line"/>
      <point x="1055.8526182842706" y="-10.0" type="line"/>
      <point x="822.8875935101526" y="1069.4936364519576" type="line" smooth="yes"/>
      <point x="815.4538035558146" y="1103.4936364519576"/>
      <point x="803.8923540270087" y="1164.4936364519576"/>
      <point x="798.8498008355193" y="1197.4936364519576" type="qcurve"/>
      <point x="790.8498008355193" y="1197.4936364519576" type="line"/>
      <point x="785.80724764403" y="1164.4936364519576"/>
      <point x="774.9595841834256" y="1103.717380744195"/>
      <point x="767.7495385213251" y="1069.4936364519576" type="qcurve" smooth="yes"/>
      <point x="540.217526474303" y="-10.0" type="line"/>
    </contour>
  </outline>
</glyph>
<glyph name="X" format="2">
  <advance width="1075.3018556300399"/>
  <unicode hex="0058"/>
  <anchor x="606.9903818128826" y="0.0" name="bottom"/>
  <anchor x="606.9903818128826" y="1456.0" name="top"/>
  <anchor x="996.6499562809677" y="0.0" name="cy_descender"/>
  <outline>
    <contour>
      <point x="25.0" y="0.0" type="line"/>
      <point x="477.6049742543476" y="806.0" type="line"/>
      <point x="487.8768094821724" y="806.0" type="line"/>
      <point x="831.1452443408141" y="1456.0" type="line"/>
      <point x="1026.6333430486739" y="1456.0" type="line"/>
      <point x="595.9179053725834" y="670.0" type="line"/>
      <point x="585.6460701447586" y="670.0" type="line"/>
      <point x="222.27805304575926" y="0.0" type="line"/>
    </contour>
    <contour>
      <point x="49.073447974351495" y="1456.0" type="line"/>
      <point x="249.28631108520355" y="1456.0" type="line"/>
      <point x="592.3310016516078" y="806.0" type="line"/>
      <point x="599.6680268143399" y="806.0" type="line"/>
      <point x="1050.3018556300399" y="0.0" type="line"/>
      <point x="850.0889925191877" y="0.0" type="line"/>
      <point x="485.7834450597494" y="670.0" type="line"/>
      <point x="478.44641989701734" y="670.0" type="line"/>
    </contour>
  </outline>
</glyph>
<glyph name="Y" format="2">
  <advance width="1084.8598076362575"/>
  <unicode hex="0059"/>
  <anchor x="609.4893617021277" y="0.0" name="bottom"/>
  <anchor x="609.4893617021277" y="1456.0" name="top"/>
  <anchor x="-176.0212765957447" y="1074.0" name="tonos"/>
  <outline>
    <contour>
      <point x="450.280967647916" y="0.0" type="line"/>
      <point x="450.280967647916" y="544.0" type="line"/>
      <point x="15.0" y="1456.0" type="line"/>
      <point x="222.10638297872342" y="1456.0" type="line"/>
      <point x="497.09414164966483" y="832.6808510638298" type="line" smooth="yes"/>
      <point x="510.40921014281554" y="802.6808510638298"/>
      <point x="532.220538229865" y="752.6808510638298"/>
      <point x="541.9206256679297" y="725.6808510638298" type="qcurve"/>
      <point x="548.3461575828233" y="725.6808510638298" type="line"/>
      <point x="558.0887982123774" y="752.6808510638298"/>
      <point x="580.1238705916643" y="801.7433207033906"/>
      <point x="593.7052365685417" y="832.6808510638298" type="qcurve" smooth="yes"/>
      <point x="870.4129991256193" y="1456.0" type="line"/>
      <point x="1069.8598076362575" y="1456.0" type="line"/>
      <point x="634.4086272223841" y="544.0" type="line"/>
      <point x="634.4086272223841" y="0.0" type="line"/>
    </contour>
  </outline>
</glyph>
<glyph name="Z" format="2">
  <advance width="1036.887399203342"/>
  <unicode hex="005A"/>
  <anchor x="590.2340425531914" y="0.0" name="bottom"/>
  <anchor x="590.2340425531914" y="1456.0" name="top"/>
  <outline>
    <contour>
      <point x="63.76623376623377" y="0.0" type="line"/>
      <point x="63.76623376623377" y="138.18762088974856" type="line"/>
      <point x="732.7834046843082" y="1299.9610389610389" type="line"/>
      <point x="78.37662337662337" y="1299.9610389610389" type="line"/>
      <point x="78.37662337662337" y="1456.0" type="line"/>
      <point x="942.9908801972341" y="1456.0" type="line"/>
      <point x="942.9908801972341" y="1317.7272727272727" type="line"/>
      <point x="273.97011712663124" y="156.03896103896105" type="line"/>
      <point x="970.887399203342" y="156.03896103896105" type="line"/>
      <point x="970.887399203342" y="0.0" type="line"/>
    </contour>
  </outline>
</glyph>
<glyph name="bracketleft" format="2">
  <advance width="647.549013892937"/>
  <unicode hex="005B"/>
  <outline>
    <contour>
      <point x="144.0" y="-310.0" type="line"/>
      <point x="144.0" y="1456.0" type="line"/>
      <point x="567.549013892937" y="1456.0" type="line"/>
      <point x="567.549013892937" y="1297.987012987013" type="line"/>
      <point x="321.4255319148936" y="1297.987012987013" type="line"/>
      <point x="321.4255319148936" y="-151.98701298701297" type="line"/>
      <point x="567.549013892937" y="-151.98701298701297" type="line"/>
      <point x="567.549013892937" y="-310.0" type="line"/>
    </contour>
  </outline>
</glyph>
<glyph name="backslash" format="2">
  <advance width="474.82366656951325"/>
  <unicode hex="005C"/>
  <outline>
    <contour>
      <point x="-100.0" y="1456.0" type="line"/>
      <point x="68.85106382978724" y="1456.0" type="line"/>
      <point x="574.8236665695133" y="-125.0" type="line"/>
      <point x="405.972602739726" y="-125.0" type="line"/>
    </contour>
  </outline>
</glyph>
<glyph name="bracketright" format="2">
  <advance width="647.549013892937"/>
  <unicode hex="005D"/>
  <outline>
    <contour>
      <point x="503.54901389293696" y="-310.0" type="line"/>
      <point x="80.0" y="-310.0" type="line"/>
      <point x="80.0" y="-151.98701298701297" type="line"/>
      <point x="326.1234819780433" y="-151.98701298701297" type="line"/>
      <point x="326.1234819780433" y="1297.987012987013" type="line"/>
      <point x="80.0" y="1297.987012987013" type="line"/>
      <point x="80.0" y="1456.0" type="line"/>
      <point x="503.54901389293696" y="1456.0" type="line"/>
    </contour>
  </outline>
</glyph>
<glyph name="asciicircum" format="2">
  <advance width="1028.6895948703002"/>
  <unicode hex="005E"/>
  <outline>
    <contour>
      <point x="25.0" y="720.0" type="line"/>
      <point x="432.8767123287671" y="1456.0" type="line"/>
      <point x="595.9830953074905" y="1456.0" type="line"/>
      <point x="1003.6895948703002" y="720.0" type="line"/>
      <point x="817.5920528514524" y="720.0" type="line"/>
      <point x="514.4299038181288" y="1296.6808510638298" type="line"/>
      <point x="211.05498882735841" y="720.0" type="line"/>
    </contour>
  </outline>
</glyph>
<glyph name="underscore" format="2">
  <advance width="886.6210045662101"/>
  <unicode hex="005F"/>
  <outline>
    <contour>
      <point x="0.0" y="-408.97872340425533" type="line"/>
      <point x="0.0" y="-244.0" type="line"/>
      <point x="886.6210045662101" y="-244.0" type="line"/>
      <point x="886.6210045662101" y="-408.97872340425533" type="line"/>
    </contour>
  </outline>
</glyph>
<glyph name="a" format="2">
  <advance width="975.4936170212768"/>
  <unicode hex="0061"/>
  <anchor x="535.0" y="0.0" name="bottom"/>
  <anchor x="947.1702127659576" y="0.0" name="ogonek"/>
  <anchor x="537.6808510638298" y="1052.0000000000002" name="top"/>
  <outline>
    <contour>
      <point x="386.3499478273597" y="-20.000000000000004" type="qcurve" smooth="yes"/>
      <point x="258.47673175944817" y="-20.000000000000004"/>
      <point x="82.00000000000001" y="150.0"/>
      <point x="82.00000000000001" y="310.00000000000006" type="qcurve" smooth="yes"/>
      <point x="82.00000000000001" y="470.00000000000006"/>
      <point x="298.5371611774993" y="648.0"/>
      <point x="465.09074128048195" y="648.0" type="qcurve" smooth="yes"/>
      <point x="738.1511706985332" y="648.0" type="line"/>
      <point x="738.1511706985332" y="517.6233766233768" type="line"/>
      <point x="491.09584120339014" y="517.6233766233768" type="line" smooth="yes"/>
      <point x="377.07911820036566" y="517.6233766233768"/>
      <point x="260.3829787234043" y="410.70129870129875"/>
      <point x="260.3829787234043" y="319.5744680851064" type="qcurve" smooth="yes"/>
      <point x="260.3829787234043" y="229.03896103896108"/>
      <point x="344.9431993247208" y="126.16883116883116"/>
      <point x="434.5564947051395" y="126.16883116883116" type="qcurve" smooth="yes"/>
      <point x="523.8551367024115" y="126.16883116883116"/>
      <point x="668.6341202759157" y="257.7591175947341"/>
      <point x="668.6341202759157" y="351.76083733617986" type="qcurve"/>
      <point x="668.6341202759157" y="720.0000000000001" type="line" smooth="yes"/>
      <point x="667.9134047726296" y="816.4912959381045"/>
      <point x="591.2185951617605" y="935.8311688311688"/>
      <point x="493.5930243855048" y="935.8311688311688" type="qcurve" smooth="yes"/>
      <point x="396.0973237391192" y="935.8311688311688"/>
      <point x="315.34188283299335" y="836.5743936428869"/>
      <point x="315.34188283299335" y="770.0000000000001" type="qcurve" smooth="yes"/>
      <point x="315.34188283299335" y="765.0000000000001" type="line"/>
      <point x="137.91635091809968" y="765.0000000000001" type="line"/>
      <point x="137.91635091809968" y="770.0000000000001" type="line" smooth="yes"/>
      <point x="137.91635091809968" y="896.9148936170214"/>
      <point x="330.18507723695717" y="1082.0000000000002"/>
      <point x="498.57064251205907" y="1082.0000000000002" type="qcurve" smooth="yes"/>
      <point x="666.8307587680949" y="1082.0000000000002"/>
      <point x="847.0170989993201" y="901.404255319149"/>
      <point x="847.0170989993201" y="720.0000000000001" type="qcurve" smooth="yes"/>
      <point x="847.0170989993201" y="240.0" type="line" smooth="yes"/>
      <point x="847.0170989993201" y="174.0212765957447"/>
      <point x="864.42825221024" y="60.08510638297872"/>
      <point x="880.7659574468087" y="15.787234042553195" type="qcurve"/>
      <point x="880.7659574468087" y="0.0" type="line"/>
      <point x="709.0542116001167" y="0.0" type="line"/>
      <point x="696.8441659380163" y="25.000000000000004"/>
      <point x="676.752841737103" y="105.0"/>
      <point x="674.174356295604" y="145.31168831168833" type="qcurve"/>
      <point x="641.0953175843879" y="74.23502165763898"/>
      <point x="499.3179515519942" y="-20.000000000000004"/>
    </contour>
  </outline>
</glyph>
<glyph name="b" format="2">
  <advance width="1052.3446031283397"/>
  <unicode hex="0062"/>
  <anchor x="576.063829787234" y="0.0" name="bottom"/>
  <anchor x="575.0851063829788" y="1536.0" name="top"/>
  <outline>
    <contour>
      <point x="148.0" y="0.0" type="line"/>
      <point x="148.0" y="1536.0" type="line"/>
      <point x="326.3829787234043" y="1536.0" type="line"/>
      <point x="326.3829787234043" y="137.06493506493507" type="line"/>
      <point x="316.8085106382979" y="137.06493506493507" type="line"/>
      <point x="309.1489361702128" y="0.0" type="line"/>
    </contour>
    <contour>
      <point x="544.5595796411885" y="130.11688311688312" type="qcurve" smooth="yes"/>
      <point x="668.3322911422591" y="130.11688311688312"/>
      <point x="785.1318371708928" y="331.58690624444046"/>
      <point x="785.1318371708928" y="479.74257249599714" type="qcurve" smooth="yes"/>
      <point x="785.1318371708928" y="572.3093755559509" type="line" smooth="yes"/>
      <point x="785.1318371708928" y="720.7153872067892"/>
      <point x="669.3729100977716" y="921.8831168831168"/>
      <point x="544.6187119981932" y="921.8831168831168" type="qcurve" smooth="yes"/>
      <point x="427.9213297146844" y="921.8831168831168"/>
      <point x="285.21276595744683" y="716.7189049170979"/>
      <point x="285.21276595744683" y="578.6641167052126" type="qcurve" smooth="yes"/>
      <point x="285.21276595744683" y="489.8995433789954" type="line" smooth="yes"/>
      <point x="285.21276595744683" y="329.6932147809443"/>
      <point x="431.8229814487465" y="130.11688311688312"/>
    </contour>
    <contour>
      <point x="587.044859638564" y="-20.0" type="qcurve" smooth="yes"/>
      <point x="418.32760380588996" y="-20.0"/>
      <point x="220.7659574468085" y="247.80768546521972"/>
      <point x="220.7659574468085" y="486.88584474885846" type="qcurve" smooth="yes"/>
      <point x="220.7659574468085" y="585.7716894977169" type="line" smooth="yes"/>
      <point x="220.7659574468085" y="791.4534149421937"/>
      <point x="404.75944816865837" y="1072.0"/>
      <point x="587.0578466515511" y="1072.0" type="qcurve" smooth="yes"/>
      <point x="759.3771495190906" y="1072.0"/>
      <point x="967.3446031283397" y="793.5096667638201"/>
      <point x="967.3446031283397" y="577.7990867579908" type="qcurve" smooth="yes"/>
      <point x="967.3446031283397" y="474.20091324200916" type="line" smooth="yes"/>
      <point x="967.3446031283397" y="259.34139706596716"/>
      <point x="759.3713468111603" y="-20.0"/>
    </contour>
  </outline>
</glyph>
<glyph name="c" format="2">
  <advance width="936.5286894005636"/>
  <unicode hex="0063"/>
  <anchor x="555.2021276595744" y="0.0" name="bottom"/>
  <anchor x="555.4148936170213" y="1052.0000000000002" name="top"/>
  <outline>
    <contour>
      <point x="77.50000000000001" y="469.05479452054794" type="qcurve" smooth="yes"/>
      <point x="77.50000000000001" y="582.9452054794522" type="line" smooth="yes"/>
      <point x="77.50000000000001" y="802.8219178082194"/>
      <point x="302.60473137083454" y="1082.0000000000002"/>
      <point x="501.1081803167202" y="1082.0000000000002" type="qcurve" smooth="yes"/>
      <point x="684.4235402700866" y="1082.0000000000002"/>
      <point x="873.4286894005636" y="863.9072184980084"/>
      <point x="873.4286894005636" y="729.543378995434" type="qcurve" smooth="yes"/>
      <point x="873.4286894005636" y="710.0000000000001" type="line"/>
      <point x="700.5666472359857" y="710.0000000000001" type="line"/>
      <point x="700.5666472359857" y="726.1872146118723" type="line" smooth="yes"/>
      <point x="700.5666472359857" y="807.3746664294611"/>
      <point x="605.0319855506391" y="931.8831168831169"/>
      <point x="499.5419702710581" y="931.8831168831169" type="qcurve" smooth="yes"/>
      <point x="376.15325697328024" y="931.8831168831169"/>
      <point x="259.265277372972" y="734.5483603154837"/>
      <point x="259.265277372972" y="591.447488584475" type="qcurve" smooth="yes"/>
      <point x="259.265277372972" y="460.5525114155251" type="line" smooth="yes"/>
      <point x="259.265277372972" y="317.45163968451646"/>
      <point x="376.16624398626726" y="120.11688311688313"/>
      <point x="499.5419702710581" y="120.11688311688313" type="qcurve" smooth="yes"/>
      <point x="605.0319855506391" y="120.11688311688313"/>
      <point x="700.5666472359857" y="244.61234655755203"/>
      <point x="700.5666472359857" y="325.8127853881279" type="qcurve" smooth="yes"/>
      <point x="700.5666472359857" y="342.0" type="line"/>
      <point x="873.4286894005636" y="342.0" type="line"/>
      <point x="873.4286894005636" y="322.4566210045663" type="line" smooth="yes"/>
      <point x="873.4286894005636" y="188.05022831050232"/>
      <point x="686.4372389002235" y="-30.0"/>
      <point x="501.28937141746826" y="-30.0" type="qcurve" smooth="yes"/>
      <point x="302.60473137083454" y="-30.0"/>
      <point x="77.50000000000001" y="249.1780821917809"/>
    </contour>
  </outline>
</glyph>
<glyph name="d" format="2">
  <advance width="1052.387156319829"/>
  <unicode hex="0064"/>
  <anchor x="577.0851063829788" y="0.0" name="bottom"/>
  <anchor x="803.4468085106383" y="1313.0" name="center"/>
  <anchor x="575.3829787234042" y="1536.0" name="top"/>
  <anchor x="1105.404255319149" y="1052.0" name="topright"/>
  <outline>
    <contour>
      <point x="726.0041775964248" y="1536.0" type="line"/>
      <point x="904.387156319829" y="1536.0" type="line"/>
      <point x="904.387156319829" y="0.0" type="line"/>
      <point x="743.2382201496163" y="0.0" type="line"/>
      <point x="735.5786456815312" y="146.7872340425532" type="line"/>
      <point x="726.0041775964248" y="146.7872340425532" type="line"/>
    </contour>
    <contour>
      <point x="508.18098922354244" y="921.8831168831168" type="qcurve" smooth="yes"/>
      <point x="383.75920339254645" y="921.8831168831168"/>
      <point x="267.1997789444598" y="720.7153872067892"/>
      <point x="267.1997789444598" y="572.3093755559509" type="qcurve" smooth="yes"/>
      <point x="267.1997789444598" y="479.74257249599714" type="line" smooth="yes"/>
      <point x="267.1997789444598" y="331.58690624444046"/>
      <point x="384.33035564454974" y="130.11688311688312"/>
      <point x="508.1550151975684" y="130.11688311688312" type="qcurve" smooth="yes"/>
      <point x="624.594867776739" y="130.11688311688312"/>
      <point x="767.1188501579059" y="334.3924518112802"/>
      <point x="767.1188501579059" y="473.4917274506316" type="qcurve" smooth="yes"/>
      <point x="767.1188501579059" y="562.1134436339916" type="line" smooth="yes"/>
      <point x="767.1188501579059" y="721.6958429698155"/>
      <point x="620.270723641461" y="921.8831168831168"/>
    </contour>
    <contour>
      <point x="465.3443053594613" y="1072.0" type="qcurve" smooth="yes"/>
      <point x="645.9125934786092" y="1072.0"/>
      <point x="831.3419143763067" y="794.5679171697825"/>
      <point x="831.3419143763067" y="567.0358180632153" type="qcurve" smooth="yes"/>
      <point x="831.3419143763067" y="470.0107840279802" type="line" smooth="yes"/>
      <point x="831.3419143763067" y="261.178570482272"/>
      <point x="639.9755728581144" y="-20.0"/>
      <point x="465.3183313334873" y="-20.0" type="qcurve" smooth="yes"/>
      <point x="292.9918441608911" y="-20.0"/>
      <point x="84.98701298701299" y="259.788885650442"/>
      <point x="84.98701298701299" y="474.648401826484" type="qcurve" smooth="yes"/>
      <point x="84.98701298701299" y="577.351598173516" type="line" smooth="yes"/>
      <point x="84.98701298701299" y="793.0621781793452"/>
      <point x="293.0250024919218" y="1072.0"/>
    </contour>
  </outline>
</glyph>
<glyph name="e" format="2">
  <advance width="976.5765083066162"/>
  <unicode hex="0065"/>
  <anchor x="581.7872340425532" y="0.0" name="bottom"/>
  <anchor x="760.531914893617" y="0.0" name="ogonek"/>
  <anchor x="552.4255319148937" y="1052.0" name="top"/>
  <outline>
    <contour>
      <point x="84.95744680851064" y="469.50228310502285" type="qcurve" smooth="yes"/>
      <point x="84.95744680851064" y="583.3926940639269" type="line" smooth="yes"/>
      <point x="84.95744680851064" y="807.9680365296804"/>
      <point x="312.957155348295" y="1082.0"/>
      <point x="503.2752355970077" y="1082.0" type="qcurve" smooth="yes"/>
      <point x="692.1025939959196" y="1082.0"/>
      <point x="895.7254444768289" y="821.3161371806082"/>
      <point x="895.853104051297" y="599.4367045564948" type="qcurve" smooth="yes"/>
      <point x="895.853104051297" y="484.8961038961039" type="line"/>
      <point x="194.27659574468086" y="484.8961038961039" type="line"/>
      <point x="194.27659574468086" y="631.0649350649351" type="line"/>
      <point x="716.7364228116196" y="631.0649350649351" type="line"/>
      <point x="716.7364228116196" y="680.8356164383562" type="line" smooth="yes"/>
      <point x="716.7364228116196" y="785.4264958785507"/>
      <point x="611.1505246914749" y="931.8831168831168"/>
      <point x="508.7101522784997" y="931.8831168831168" type="qcurve" smooth="yes"/>
      <point x="386.2819366585033" y="931.8831168831168"/>
      <point x="267.17021276595744" y="734.5353733024966"/>
      <point x="267.17021276595744" y="591.2237442922375" type="qcurve" smooth="yes"/>
      <point x="267.17021276595744" y="461.2237442922374" type="line" smooth="yes"/>
      <point x="267.17021276595744" y="315.38599300243135"/>
      <point x="393.0044059700137" y="120.11688311688312"/>
      <point x="525.1844451089569" y="120.11688311688312" type="qcurve" smooth="yes"/>
      <point x="609.7041628341541" y="120.11688311688312"/>
      <point x="726.3833509345022" y="206.45792563600781"/>
      <point x="763.3055474594385" y="270.0" type="qcurve"/>
      <point x="889.4605071407753" y="178.95744680851064" type="line"/>
      <point x="846.4377732439522" y="99.5607694549694"/>
      <point x="662.7316130871945" y="-30.0"/>
      <point x="526.0794222779067" y="-30.0" type="qcurve" smooth="yes"/>
      <point x="312.8391139609443" y="-30.0"/>
      <point x="84.95744680851064" y="244.8528125910813"/>
    </contour>
  </outline>
</glyph>
<glyph name="f" format="2">
  <advance width="568.0909355872924"/>
  <unicode hex="0066"/>
  <anchor x="288.94724570096184" y="0.0" name="bottom"/>
  <anchor x="289.37277761585545" y="1536.0" name="top"/>
  <outline>
    <contour>
      <point x="189.2876712328767" y="0.0" type="line"/>
      <point x="189.2876712328767" y="1201.1489361702127" type="line" smooth="yes"/>
      <point x="189.2876712328767" y="1375.7021276595744"/>
      <point x="368.69202370543087" y="1556.0"/>
      <point x="523.1190129214029" y="1556.0" type="qcurve" smooth="yes"/>
      <point x="553.7024191197902" y="1556.0"/>
      <point x="617.198678713689" y="1547.9574468085107"/>
      <point x="646.0909355872924" y="1540.0" type="qcurve"/>
      <point x="637.1027958731254" y="1391.9292622271346" type="line"/>
      <point x="616.1435952563904" y="1395.9682232660955"/>
      <point x="568.9483749515811" y="1401.9941972920697"/>
      <point x="544.4496499323081" y="1401.9941972920697" type="qcurve" smooth="yes"/>
      <point x="460.2508475688307" y="1401.9941972920697"/>
      <point x="367.670649956281" y="1302.4006631666207"/>
      <point x="367.670649956281" y="1201.1489361702127" type="qcurve" smooth="yes"/>
      <point x="367.670649956281" y="992.7662337662338" type="line"/>
      <point x="367.670649956281" y="971.025974025974" type="line"/>
      <point x="367.670649956281" y="0.0" type="line"/>
    </contour>
    <contour>
      <point x="25.0" y="911.7532467532468" type="line"/>
      <point x="25.0" y="1052.0" type="line"/>
      <point x="256.3515010201108" y="1052.0" type="line"/>
      <point x="300.47916059457884" y="1052.0" type="line"/>
      <point x="582.3420771398038" y="1052.0" type="line"/>
      <point x="582.3420771398038" y="911.7532467532468" type="line"/>
    </contour>
  </outline>
</glyph>
<glyph name="g" format="2">
  <advance width="1052.387156319829"/>
  <unicode hex="0067"/>
  <anchor x="576.531914893617" y="-416.0" name="bottom"/>
  <anchor x="575.8085106382979" y="1052.0" name="top"/>
  <outline>
    <contour>
      <point x="492.14302747674935" y="-436.0" type="qcurve" smooth="yes"/>
      <point x="371.7013504323327" y="-436.0"/>
      <point x="182.2102399689109" y="-345.8366851258137"/>
      <point x="118.21558340619838" y="-278.1276595744681" type="qcurve"/>
      <point x="229.59720198192946" y="-144.0" type="line"/>
      <point x="265.7148093332879" y="-197.26222713456758"/>
      <point x="397.66900970398495" y="-276.012987012987"/>
      <point x="482.50933240469817" y="-276.012987012987" type="qcurve" smooth="yes"/>
      <point x="595.5044696875067" y="-276.012987012987"/>
      <point x="725.9616244049354" y="-121.2987012987013"/>
      <point x="725.9616244049354" y="20.0" type="qcurve" smooth="yes"/>
      <point x="725.9616244049354" y="915.0" type="line"/>
      <point x="733.7461381521423" y="915.0" type="line"/>
      <point x="740.0632468668027" y="1052.0" type="line"/>
      <point x="904.3446031283397" y="1052.0" type="line"/>
      <point x="904.3446031283397" y="20.0" type="line" smooth="yes"/>
      <point x="904.3446031283397" y="-201.40425531914894"/>
      <point x="677.1664237831536" y="-436.0"/>
    </contour>
    <contour>
      <point x="512.8270669386962" y="130.11688311688312" type="qcurve" smooth="yes"/>
      <point x="632.4003288074988" y="130.11688311688312"/>
      <point x="778.871077431264" y="335.26368695911106"/>
      <point x="778.871077431264" y="474.231710871466" type="qcurve" smooth="yes"/>
      <point x="778.871077431264" y="562.6426697755757" type="line" smooth="yes"/>
      <point x="778.871077431264" y="723.7447515080859"/>
      <point x="627.0473730097746" y="921.8831168831168"/>
      <point x="512.7419605557175" y="921.8831168831168" type="qcurve" smooth="yes"/>
      <point x="385.8230546292336" y="921.8831168831168"/>
      <point x="267.21276595744683" y="723.2450915450041"/>
      <point x="267.21276595744683" y="571.9817351598174" type="qcurve" smooth="yes"/>
      <point x="267.21276595744683" y="480.01826484018267" type="line" smooth="yes"/>
      <point x="267.21276595744683" y="331.4874312513485"/>
      <point x="385.77110657728554" y="130.11688311688312"/>
    </contour>
    <contour>
      <point x="471.0495154316198" y="-20.0" type="qcurve" smooth="yes"/>
      <point x="296.55085980763624" y="-20.0"/>
      <point x="85.0" y="259.5651413582046"/>
      <point x="85.0" y="474.648401826484" type="qcurve" smooth="yes"/>
      <point x="85.0" y="577.351598173516" type="line" smooth="yes"/>
      <point x="85.0" y="793.2859224715827"/>
      <point x="296.63596619061497" y="1072.0"/>
      <point x="471.02354140564574" y="1072.0" type="qcurve" smooth="yes"/>
      <point x="650.2570048236034" y="1072.0"/>
      <point x="843.0941416496648" y="789.1905178276498"/>
      <point x="843.0941416496648" y="568.2252987467211" type="qcurve" smooth="yes"/>
      <point x="843.0941416496648" y="470.28669969882446" type="line" smooth="yes"/>
      <point x="843.0941416496648" y="261.93714174681827"/>
      <point x="649.9544350529486" y="-20.0"/>
    </contour>
  </outline>
</glyph>
<glyph name="h" format="2">
  <advance width="1031.4782862139318"/>
  <unicode hex="0068"/>
  <anchor x="561.3829787234042" y="0.0" name="bottom"/>
  <anchor x="312.8085106382979" y="1327.0" name="center"/>
  <anchor x="240.12765957446808" y="1536.0" name="top"/>
  <anchor x="895.5531914893617" y="0.0" name="engtail"/>
  <outline>
    <contour>
      <point x="326.3829787234043" y="0.0" type="line"/>
      <point x="148.0" y="0.0" type="line"/>
      <point x="148.0" y="1536.0" type="line"/>
      <point x="326.3570046974302" y="1536.0" type="line"/>
    </contour>
    <contour>
      <point x="237.2127659574468" y="792.2166344294004" type="line"/>
      <point x="304.25399306804144" y="940.0922906880354"/>
      <point x="492.9751918148886" y="1072.0"/>
      <point x="605.5682086299983" y="1072.0" type="qcurve" smooth="yes"/>
      <point x="736.2095914383879" y="1072.0"/>
      <point x="893.4782862139318" y="902.6855144272807"/>
      <point x="893.4782862139318" y="711.6968813756922" type="qcurve" smooth="yes"/>
      <point x="893.4782862139318" y="0.0" type="line"/>
      <point x="715.0953074905275" y="0.0" type="line"/>
      <point x="715.0953074905275" y="686.3575245312348" type="line" smooth="yes"/>
      <point x="715.0953074905275" y="812.5932250009778"/>
      <point x="620.9813642104519" y="917.9350649350649"/>
      <point x="534.005347222485" y="917.9350649350649" type="qcurve" smooth="yes"/>
      <point x="445.1808062723248" y="917.9350649350649"/>
      <point x="307.34730449769796" y="776.4074008183597"/>
      <point x="237.2127659574468" y="587.8654324399005" type="qcurve"/>
    </contour>
  </outline>
</glyph>
<glyph name="k" format="2">
  <advance width="921.6513164286409"/>
  <unicode hex="006B"/>
  <anchor x="511.1489361702128" y="0.0" name="bottom"/>
  <anchor x="511.1489361702128" y="1536.0" name="top"/>
  <outline>
    <contour>
      <point x="148.0" y="0.0" type="line"/>
      <point x="148.0" y="1536.0" type="line"/>
      <point x="326.3829787234043" y="1536.0" type="line"/>
      <point x="326.3829787234043" y="0.0" type="line"/>
    </contour>
    <contour>
      <point x="728.5449334499174" y="0.0" type="line"/>
      <point x="377.1487734067157" y="548.9917104172423" type="line"/>
      <point x="488.43835616438355" y="671.6891406465875" type="line"/>
      <point x="937.6513164286407" y="0.0" type="line"/>
    </contour>
    <contour>
      <point x="237.25531914893617" y="265.74081237911025" type="line"/>
      <point x="237.25531914893617" y="481.0265266648246" type="line"/>
      <point x="687.8702232383374" y="1052.0" type="line"/>
      <point x="896.2468466149609" y="1052.0" type="line"/>
    </contour>
  </outline>
</glyph>
<glyph name="l" format="2">
  <advance width="490.3829787234043"/>
  <unicode hex="006C"/>
  <anchor x="245.17021276595744" y="0.0" name="bottom"/>
  <anchor x="245.17021276595744" y="791.0" name="center"/>
  <anchor x="245.17021276595744" y="1536.0" name="top"/>
  <anchor x="438.17021276595744" y="1052.0" name="topright"/>
  <anchor x="245.17021276595744" y="542.0" name="yu_dash"/>
  <outline>
    <contour>
      <point x="156.0" y="0.0" type="line"/>
      <point x="156.0" y="1536.0" type="line"/>
      <point x="334.3829787234043" y="1536.0" type="line"/>
      <point x="334.3829787234043" y="0.0" type="line"/>
    </contour>
  </outline>
</glyph>
<glyph name="m" format="2">
  <advance width="1563.2200524628388"/>
  <unicode hex="006D"/>
  <anchor x="870.6382978723404" y="0.0" name="bottom"/>
  <anchor x="870.6382978723404" y="1052.0" name="top"/>
  <outline>
    <contour>
      <point x="148.0" y="0.0" type="line"/>
      <point x="148.0" y="1052.0" type="line"/>
      <point x="309.1489361702128" y="1052.0" type="line"/>
      <point x="326.3829787234043" y="758.3617021276596" type="line"/>
      <point x="326.3829787234043" y="0.0" type="line"/>
    </contour>
    <contour>
      <point x="875.8227921888663" y="682.03785576126" type="qcurve" smooth="yes"/>
      <point x="875.8227921888663" y="0.0" type="line"/>
      <point x="697.439813465462" y="0.0" type="line"/>
      <point x="697.439813465462" y="682.1063829787234" type="line" smooth="yes"/>
      <point x="697.439813465462" y="808.9248411163305"/>
      <point x="607.1999644191426" y="917.9350649350649"/>
      <point x="524.0678484053593" y="917.9350649350649" type="qcurve" smooth="yes"/>
      <point x="447.9711971696816" y="917.9350649350649"/>
      <point x="324.74328158968206" y="800.6692456479691"/>
      <point x="241.04255319148936" y="593.6231003039514" type="qcurve"/>
      <point x="241.04255319148936" y="770.2343188726168" type="line"/>
      <point x="306.67892944517837" y="943.6775352307267"/>
      <point x="489.07730256724716" y="1072.0"/>
      <point x="585.0405230638399" y="1072.0" type="qcurve" smooth="yes"/>
      <point x="714.8111287333088" y="1072.0"/>
      <point x="875.8227921888663" y="891.1500414479138"/>
    </contour>
    <contour>
      <point x="789.6387104588795" y="826.6717325227963" type="line"/>
      <point x="812.3660475345115" y="919.1085935341255"/>
      <point x="997.6134127215445" y="1072.0"/>
      <point x="1117.5573552067285" y="1072.0" type="qcurve" smooth="yes"/>
      <point x="1266.7086975008863" y="1072.0"/>
      <point x="1425.2200524628388" y="893.038961038961"/>
      <point x="1425.2200524628388" y="680.1489361702128" type="qcurve" smooth="yes"/>
      <point x="1425.2200524628388" y="0.0" type="line"/>
      <point x="1246.8370737394346" y="0.0" type="line"/>
      <point x="1246.8370737394346" y="682.1063829787234" type="line" smooth="yes"/>
      <point x="1246.8370737394346" y="808.9248411163305"/>
      <point x="1156.1237620826662" y="917.9350649350649"/>
      <point x="1063.9710280975219" y="917.9350649350649" type="qcurve" smooth="yes"/>
      <point x="971.3164980361132" y="917.9350649350649"/>
      <point x="822.0759234935861" y="740.7267200884222"/>
      <point x="789.6387104588795" y="593.6231003039514" type="qcurve"/>
    </contour>
  </outline>
</glyph>
<glyph name="n" format="2">
  <advance width="1031.4782862139318"/>
  <unicode hex="006E"/>
  <anchor x="562.2340425531914" y="0.0" name="bottom"/>
  <anchor x="562.2340425531914" y="1052.0" name="top"/>
  <anchor x="895.5957446808511" y="0.0" name="engtail"/>
  <outline>
    <contour>
      <point x="148.0" y="0.0" type="line"/>
      <point x="148.0" y="1052.0" type="line"/>
      <point x="309.1489361702128" y="1052.0" type="line"/>
      <point x="326.3829787234043" y="784.5677430506926" type="line"/>
      <point x="326.3829787234043" y="0.0" type="line"/>
    </contour>
    <contour>
      <point x="237.2127659574468" y="576.6228239845261" type="qcurve"/>
      <point x="237.2127659574468" y="762.1838142426892" type="line"/>
      <point x="298.35839891188186" y="935.7679976683183"/>
      <point x="488.61342660060234" y="1072.0"/>
      <point x="597.0246769649276" y="1072.0" type="qcurve" smooth="yes"/>
      <point x="734.5177304964539" y="1072.0"/>
      <point x="893.4782862139318" y="908.7266103176917"/>
      <point x="893.4782862139318" y="711.6968813756922" type="qcurve" smooth="yes"/>
      <point x="893.4782862139318" y="0.0" type="line"/>
      <point x="715.0953074905275" y="0.0" type="line"/>
      <point x="715.0953074905275" y="702.0196249878559" type="line" smooth="yes"/>
      <point x="715.0953074905275" y="818.6213338784017"/>
      <point x="620.5858236779252" y="917.9350649350649"/>
      <point x="533.2951533068117" y="917.9350649350649" type="qcurve" smooth="yes"/>
      <point x="455.81727715595395" y="917.9350649350649"/>
      <point x="320.3696661834231" y="793.9620079716262"/>
    </contour>
  </outline>
</glyph>
<glyph name="o" format="2">
  <advance width="1032.7634314582726"/>
  <unicode hex="006F"/>
  <anchor x="573.1276595744681" y="0.0" name="bottom"/>
  <anchor x="573.1276595744681" y="526.0" name="center"/>
  <anchor x="751.4042553191489" y="0.0" name="ogonek"/>
  <anchor x="573.1276595744681" y="1052.0" name="top"/>
  <anchor x="749.4468085106383" y="1052.0" name="topright"/>
  <anchor x="174.2127659574468" y="536.0" name="yu_dash"/>
  <outline>
    <contour>
      <point x="85.0" y="469.05479452054794" type="qcurve" smooth="yes"/>
      <point x="85.0" y="582.945205479452" type="line" smooth="yes"/>
      <point x="85.0" y="805.7717866511222"/>
      <point x="319.52754299038185" y="1082.0"/>
      <point x="516.3817157291363" y="1082.0" type="qcurve" smooth="yes"/>
      <point x="713.2358884678908" y="1082.0"/>
      <point x="947.7634314582725" y="805.7717866511222"/>
      <point x="947.7634314582725" y="582.945205479452" type="qcurve" smooth="yes"/>
      <point x="947.7634314582725" y="469.05479452054794" type="line" smooth="yes"/>
      <point x="947.7634314582725" y="246.2282133488779"/>
      <point x="713.2358884678908" y="-30.0"/>
      <point x="516.3817157291363" y="-30.0" type="qcurve" smooth="yes"/>
      <point x="319.52754299038185" y="-30.0"/>
      <point x="85.0" y="246.2282133488779"/>
    </contour>
    <contour>
      <point x="267.21276595744683" y="590.3287671232877" type="qcurve" smooth="yes"/>
      <point x="267.21276595744683" y="461.67123287671234" type="line" smooth="yes"/>
      <point x="267.21276595744683" y="317.8111842495404"/>
      <point x="390.62473298585223" y="120.11688311688312"/>
      <point x="516.3817157291363" y="120.11688311688312" type="qcurve" smooth="yes"/>
      <point x="642.1386984724204" y="120.11688311688312"/>
      <point x="765.5506655008257" y="317.8111842495404"/>
      <point x="765.5506655008257" y="461.67123287671234" type="qcurve" smooth="yes"/>
      <point x="765.5506655008257" y="590.3287671232877" type="line" smooth="yes"/>
      <point x="765.5506655008257" y="734.1888157504596"/>
      <point x="641.6912098879455" y="931.8831168831168"/>
      <point x="516.3817157291363" y="931.8831168831168" type="qcurve" smooth="yes"/>
      <point x="391.0722215703271" y="931.8831168831168"/>
      <point x="267.21276595744683" y="734.1888157504596"/>
    </contour>
  </outline>
</glyph>
<glyph name="p" format="2">
  <advance width="1031.0446031283398"/>
  <unicode hex="0070"/>
  <anchor x="616.2425531914894" y="0.0" name="bottom"/>
  <anchor x="616.2425531914894" y="1052.0000000000002" name="top"/>
  <outline>
    <contour>
      <point x="134.20000000000002" y="-416.00000000000006" type="line"/>
      <point x="134.20000000000002" y="1052.0000000000002" type="line"/>
      <point x="295.34893617021277" y="1052.0000000000002" type="line"/>
      <point x="303.0085106382979" y="915.0000000000002" type="line"/>
      <point x="312.58297872340427" y="915.0000000000002" type="line"/>
      <point x="312.58297872340427" y="-416.00000000000006" type="line"/>
    </contour>
    <contour>
      <point x="530.7595796411887" y="130.11688311688314" type="qcurve" smooth="yes"/>
      <point x="654.5322911422592" y="130.11688311688314"/>
      <point x="771.3318371708931" y="331.5869062444405"/>
      <point x="771.3318371708931" y="479.74257249599714" type="qcurve" smooth="yes"/>
      <point x="771.3318371708931" y="572.309375555951" type="line" smooth="yes"/>
      <point x="771.3318371708931" y="720.7153872067893"/>
      <point x="655.5729100977719" y="921.883116883117"/>
      <point x="530.8187119981933" y="921.883116883117" type="qcurve" smooth="yes"/>
      <point x="414.34507400692195" y="921.883116883117"/>
      <point x="271.4127659574468" y="716.7189049170979"/>
      <point x="271.4127659574468" y="578.822925932515" type="qcurve" smooth="yes"/>
      <point x="271.4127659574468" y="489.89954337899553" type="line" smooth="yes"/>
      <point x="271.4127659574468" y="329.69321478094434"/>
      <point x="418.24672574098406" y="130.11688311688314"/>
    </contour>
    <contour>
      <point x="573.2448596385643" y="-20.000000000000004" type="qcurve" smooth="yes"/>
      <point x="404.52760380589007" y="-20.000000000000004"/>
      <point x="206.96595744680855" y="265.2597402597403"/>
      <point x="206.96595744680855" y="520.0000000000001" type="qcurve" smooth="yes"/>
      <point x="206.96595744680855" y="554.0000000000001" type="line" smooth="yes"/>
      <point x="206.96595744680855" y="764.4893617021278"/>
      <point x="395.0754493344993" y="1072.0000000000002"/>
      <point x="573.2578466515513" y="1072.0000000000002" type="qcurve" smooth="yes"/>
      <point x="745.8008938113283" y="1072.0000000000002"/>
      <point x="953.5446031283399" y="793.2859224715828"/>
      <point x="953.5446031283399" y="577.799086757991" type="qcurve" smooth="yes"/>
      <point x="953.5446031283399" y="474.2009132420091" type="line" smooth="yes"/>
      <point x="953.5446031283399" y="259.56514135820464"/>
      <point x="745.7950911033979" y="-20.000000000000004"/>
    </contour>
  </outline>
</glyph>
<glyph name="q" format="2">
  <advance width="1052.2169435538715"/>
  <unicode hex="0071"/>
  <anchor x="576.063829787234" y="0.0" name="bottom"/>
  <anchor x="576.063829787234" y="1052.0" name="top"/>
  <outline>
    <contour>
      <point x="725.9616244049354" y="-416.0" type="line"/>
      <point x="725.9616244049354" y="902.7872340425532" type="line"/>
      <point x="735.5360924900418" y="902.7872340425532" type="line"/>
      <point x="743.1956669581269" y="1052.0" type="line"/>
      <point x="904.3446031283397" y="1052.0" type="line"/>
      <point x="904.3446031283397" y="-416.0" type="line"/>
    </contour>
    <contour>
      <point x="507.7980105001381" y="130.11688311688312" type="qcurve" smooth="yes"/>
      <point x="624.2508500922958" y="130.11688311688312"/>
      <point x="767.1188501579059" y="352.1201989499862"/>
      <point x="767.1188501579059" y="503.02597402597405" type="qcurve" smooth="yes"/>
      <point x="767.1188501579059" y="531.012987012987" type="line" smooth="yes"/>
      <point x="767.1188501579059" y="704.752417794971"/>
      <point x="620.497858209021" y="921.8831168831168"/>
      <point x="507.71290411715944" y="921.8831168831168" type="qcurve" smooth="yes"/>
      <point x="382.958706017581" y="921.8831168831168"/>
      <point x="267.1997789444598" y="703.2633324122686"/>
      <point x="267.1997789444598" y="542.1038961038961" type="qcurve" smooth="yes"/>
      <point x="267.1997789444598" y="509.94805194805195" type="line" smooth="yes"/>
      <point x="267.1997789444598" y="349.038961038961"/>
      <point x="383.99932497309356" y="130.11688311688312"/>
    </contour>
    <contour>
      <point x="465.0630121845511" y="-20.0" type="qcurve" smooth="yes"/>
      <point x="292.73652501195494" y="-20.0"/>
      <point x="84.98701298701299" y="279.70212765957444"/>
      <point x="84.98701298701299" y="510.0" type="qcurve" smooth="yes"/>
      <point x="84.98701298701299" y="542.0" type="line" smooth="yes"/>
      <point x="84.98701298701299" y="773.1489361702128"/>
      <point x="292.73072230402454" y="1072.0"/>
      <point x="465.0500251715641" y="1072.0" type="qcurve" smooth="yes"/>
      <point x="640.6227873942826" y="1072.0"/>
      <point x="831.3419143763067" y="768.2672008842221"/>
      <point x="831.3419143763067" y="531.012987012987" type="qcurve" smooth="yes"/>
      <point x="831.3419143763067" y="504.9148936170213" type="line" smooth="yes"/>
      <point x="831.3419143763067" y="281.31555678364185"/>
      <point x="639.7202537091783" y="-20.0"/>
    </contour>
  </outline>
</glyph>
<glyph name="r" format="2">
  <advance width="655.3800641212475"/>
  <unicode hex="0072"/>
  <anchor x="345.2340425531915" y="0.0" name="bottom"/>
  <anchor x="412.2340425531915" y="1052.0" name="top"/>
  <outline>
    <contour>
      <point x="148.0" y="0.0" type="line"/>
      <point x="148.0" y="1052.0" type="line"/>
      <point x="309.1489361702128" y="1052.0" type="line"/>
      <point x="326.3829787234043" y="749.7217463387676" type="line"/>
      <point x="326.3829787234043" y="0.0" type="line"/>
    </contour>
    <contour>
      <point x="237.17021276595744" y="548.685272174634" type="qcurve"/>
      <point x="237.17021276595744" y="734.2978723404256" type="line"/>
      <point x="313.041970271058" y="956.9148936170212"/>
      <point x="466.92412319051783" y="1082.0"/>
      <point x="552.0923928883708" y="1082.0" type="qcurve" smooth="yes"/>
      <point x="572.3024385504713" y="1082.0"/>
      <point x="615.9603879070506" y="1072.0389610389611"/>
      <point x="625.3800641212475" y="1068.0" type="qcurve"/>
      <point x="625.3800641212475" y="898.1428571428571" type="line"/>
      <point x="607.2089794981081" y="902.1818181818181"/>
      <point x="567.275337797343" y="906.2207792207793"/>
      <point x="543.5647287716656" y="906.2207792207793" type="qcurve" smooth="yes"/>
      <point x="453.3337345642796" y="906.2207792207793"/>
      <point x="318.961986522173" y="783.6308372478585"/>
    </contour>
  </outline>
</glyph>
<glyph name="s" format="2">
  <advance width="905.172155834062"/>
  <unicode hex="0073"/>
  <anchor x="498.48936170212767" y="0.0" name="bottom"/>
  <anchor x="498.1489361702128" y="1052.0" name="top"/>
  <outline>
    <contour>
      <point x="80.0" y="310.0" type="line"/>
      <point x="258.3829787234043" y="310.0" type="line"/>
      <point x="258.3829787234043" y="291.5753424657534" type="line" smooth="yes"/>
      <point x="258.3829787234043" y="206.24871019391566"/>
      <point x="366.65238511609834" y="120.11688311688312"/>
      <point x="456.7391431069659" y="120.11688311688312" type="qcurve" smooth="yes"/>
      <point x="546.8259010978335" y="120.11688311688312"/>
      <point x="649.6615175361896" y="202.24871019391566"/>
      <point x="649.6615175361896" y="275.07762557077626" type="qcurve" smooth="yes"/>
      <point x="649.6615175361896" y="350.8936170212766"/>
      <point x="561.9797920917129" y="429.90595550374036"/>
      <point x="418.8483435344409" y="473.3582046050714" type="qcurve" smooth="yes"/>
      <point x="273.78966287768384" y="517.971728359079"/>
      <point x="104.24366074030895" y="666.3292528903138"/>
      <point x="104.24366074030895" y="790.717769357816" type="qcurve" smooth="yes"/>
      <point x="104.24366074030895" y="917.2655202564849"/>
      <point x="292.00718935198677" y="1082.0"/>
      <point x="450.31905178276503" y="1082.0" type="qcurve" smooth="yes"/>
      <point x="608.7585737880113" y="1082.0"/>
      <point x="800.4569124647819" y="920.9724084329156"/>
      <point x="800.9044010492568" y="779.2661031769163" type="qcurve" smooth="yes"/>
      <point x="800.9044010492568" y="760.0" type="line"/>
      <point x="623.4788691343631" y="760.0" type="line"/>
      <point x="623.4788691343631" y="780.634703196347" type="line" smooth="yes"/>
      <point x="623.4788691343631" y="853.5961572673901"/>
      <point x="539.3721946954241" y="931.8831168831168"/>
      <point x="450.54279607500246" y="931.8831168831168" type="qcurve" smooth="yes"/>
      <point x="361.8280700160618" y="931.8831168831168"/>
      <point x="280.93549013892937" y="858.2926525529265"/>
      <point x="280.93549013892937" y="796.4885844748859" type="qcurve" smooth="yes"/>
      <point x="280.93549013892937" y="731.3754007577966"/>
      <point x="384.8766151753619" y="656.3816185757311"/>
      <point x="530.2976780336152" y="611.3206062372486" type="qcurve" smooth="yes"/>
      <point x="675.1229962110172" y="566.2595938987662"/>
      <point x="825.172155834062" y="415.75857378801123"/>
      <point x="825.172155834062" y="282.8621393179831" type="qcurve" smooth="yes"/>
      <point x="825.172155834062" y="142.35150102011076"/>
      <point x="640.460798600991" y="-30.0"/>
      <point x="456.7391431069659" y="-30.0" type="qcurve" smooth="yes"/>
      <point x="273.28378509666766" y="-30.0"/>
      <point x="80.0" y="143.96648207519675"/>
      <point x="80.0" y="290.2328767123288" type="qcurve" smooth="yes"/>
    </contour>
  </outline>
</glyph>
<glyph name="t" format="2">
  <advance width="616.6571456329544"/>
  <unicode hex="0074"/>
  <anchor x="393.2553191489362" y="0.0" name="bottom"/>
  <anchor x="320.29787234042556" y="619.0" name="center"/>
  <anchor x="320.29787234042556" y="1312.0000000000002" name="top"/>
  <anchor x="693.2553191489363" y="1052.0000000000002" name="topright"/>
  <outline>
    <contour>
      <point x="1.0" y="911.7532467532468" type="line"/>
      <point x="1.0" y="1052.0000000000002" type="line"/>
      <point x="570.6571456329546" y="1052.0000000000002" type="line"/>
      <point x="570.6571456329546" y="911.7532467532468" type="line"/>
    </contour>
    <contour>
      <point x="177.365296803653" y="260.00000000000006" type="qcurve" smooth="yes"/>
      <point x="177.365296803653" y="967.0779220779223" type="line"/>
      <point x="177.365296803653" y="996.7142857142858" type="line"/>
      <point x="177.365296803653" y="1312.0000000000002" type="line"/>
      <point x="355.7482755270573" y="1312.0000000000002" type="line"/>
      <point x="355.7482755270573" y="260.00000000000006" type="line" smooth="yes"/>
      <point x="355.7482755270573" y="189.09090909090912"/>
      <point x="408.2978117772639" y="128.01298701298703"/>
      <point x="465.10045662100464" y="128.01298701298703" type="qcurve" smooth="yes"/>
      <point x="491.53424657534254" y="128.01298701298703"/>
      <point x="542.8808899251919" y="140.0779220779221"/>
      <point x="569.3146798795299" y="150.11688311688312" type="qcurve"/>
      <point x="569.3146798795299" y="0.0" type="line"/>
      <point x="543.9859127562422" y="-12.000000000000002"/>
      <point x="463.73467405032557" y="-29.95744680851064"/>
      <point x="416.1093947342855" y="-30.0" type="qcurve" smooth="yes"/>
      <point x="306.84853784125136" y="-30.0"/>
      <point x="177.365296803653" y="110.00000000000001"/>
    </contour>
  </outline>
</glyph>
<glyph name="u" format="2">
  <advance width="1004.878286213932"/>
  <unicode hex="0075"/>
  <anchor x="548.1148936170214" y="0.0" name="bottom"/>
  <anchor x="952.2638297872343" y="0.0" name="ogonek"/>
  <anchor x="548.1148936170214" y="1052.0000000000002" name="top"/>
  <anchor x="878.4978723404256" y="1052.0000000000002" name="topright"/>
  <anchor x="874.6255319148937" y="0.0" name="cy_descender"/>
  <outline>
    <contour>
      <point x="424.11479646361613" y="-20.000000000000004" type="qcurve" smooth="yes"/>
      <point x="284.83178859419024" y="-20.000000000000004"/>
      <point x="125.20000000000002" y="143.04964539007094"/>
      <point x="125.20000000000002" y="340.52686291654527" type="qcurve" smooth="yes"/>
      <point x="125.20000000000002" y="1052.0000000000002" type="line"/>
      <point x="303.58297872340427" y="1052.0000000000002" type="line"/>
      <point x="303.58297872340427" y="349.7566307199068" type="line" smooth="yes"/>
      <point x="303.58297872340427" y="233.82615470607314"/>
      <point x="397.42122965929434" y="134.0649350649351"/>
      <point x="484.7119000304078" y="134.0649350649351" type="qcurve" smooth="yes"/>
      <point x="561.0947990123159" y="134.0649350649351"/>
      <point x="692.8761999391846" y="244.45580024755196"/>
      <point x="781.365520256485" y="458.5424728191269" type="qcurve"/>
      <point x="781.765520256485" y="283.87372000388615" type="line"/>
      <point x="712.3450014573011" y="105.59592927232102"/>
      <point x="523.9137180608182" y="-20.000000000000004"/>
    </contour>
    <contour>
      <point x="709.5293500437192" y="0.0" type="line"/>
      <point x="692.2953074905276" y="200.03833219146546" type="line"/>
      <point x="692.2953074905276" y="1052.0000000000002" type="line"/>
      <point x="870.678286213932" y="1052.0000000000002" type="line"/>
      <point x="870.678286213932" y="0.0" type="line"/>
    </contour>
  </outline>
</glyph>
<glyph name="v" format="2">
  <advance width="832.0632468668028"/>
  <unicode hex="0076"/>
  <anchor x="468.6808510638299" y="0.0" name="bottom"/>
  <anchor x="468.6808510638299" y="1052.0000000000002" name="top"/>
  <outline>
    <contour>
      <point x="1.0" y="1052.0000000000002" type="line"/>
      <point x="173.63829787234044" y="1052.0000000000002" type="line"/>
      <point x="385.4838239580298" y="347.6484989798893" type="line" smooth="yes"/>
      <point x="397.0651899349073" y="307.6484989798893"/>
      <point x="412.9643447002818" y="237.64849897988927"/>
      <point x="416.4207713980376" y="217.64849897988927" type="qcurve"/>
      <point x="421.3020499368503" y="217.64849897988927" type="line"/>
      <point x="424.75847663460615" y="237.64849897988927"/>
      <point x="440.6576313999807" y="307.6484989798893"/>
      <point x="452.2389973768582" y="347.6484989798893" type="qcurve" smooth="yes"/>
      <point x="662.2547362285048" y="1052.0000000000002" type="line"/>
      <point x="831.0632468668028" y="1052.0000000000002" type="line"/>
      <point x="484.1537938404741" y="0.0" type="line"/>
      <point x="347.78179345186055" y="0.0" type="line"/>
    </contour>
  </outline>
</glyph>
<glyph name="w" format="2">
  <advance width="1378.7036821140582"/>
  <unicode hex="0077"/>
  <anchor x="769.1702127659574" y="0.0" name="bottom"/>
  <anchor x="769.1702127659574" y="1052.0" name="top"/>
  <outline>
    <contour>
      <point x="25.0" y="1052.0" type="line"/>
      <point x="197.19080928786553" y="1052.0" type="line"/>
      <point x="356.59010978334794" y="361.8680656757019" type="line" smooth="yes"/>
      <point x="365.39522005246283" y="321.8680656757019"/>
      <point x="376.95666958126884" y="260.6808510638298"/>
      <point x="384.2319051782765" y="220.68085106382978" type="qcurve"/>
      <point x="389.5606723015642" y="220.68085106382978" type="line"/>
      <point x="396.8784610900612" y="260.6808510638298"/>
      <point x="410.4110560575148" y="321.9106188671913"/>
      <point x="421.5785485281259" y="361.8680656757019" type="qcurve" smooth="yes"/>
      <point x="618.0258428057904" y="1052.0" type="line"/>
      <point x="768.793160400272" y="1052.0" type="line"/>
      <point x="972.3777324395219" y="361.8680656757019" type="line" smooth="yes"/>
      <point x="984.3214806178955" y="321.8680656757019"/>
      <point x="997.4916933838531" y="260.6808510638298"/>
      <point x="1005.2569707568251" y="220.68085106382978" type="qcurve"/>
      <point x="1010.5857378801128" y="220.68085106382978" type="line"/>
      <point x="1017.3709317011561" y="260.6808510638298"/>
      <point x="1027.6036141066743" y="321.8680656757019"/>
      <point x="1036.4087243757892" y="361.8680656757019" type="qcurve" smooth="yes"/>
      <point x="1190.8635966190616" y="1051.9574468085107" type="line"/>
      <point x="1353.7036821140582" y="1051.9574468085107" type="line"/>
      <point x="1072.8225007286505" y="0.0" type="line"/>
      <point x="931.4683765665987" y="0.0" type="line"/>
      <point x="733.2215097639173" y="679.6034197998639" type="line" smooth="yes"/>
      <point x="722.0114641018168" y="719.6034197998639"/>
      <point x="700.8549499659963" y="808.5531914893617"/>
      <point x="691.8460118527155" y="848.5531914893617" type="qcurve"/>
      <point x="686.5172447294278" y="848.5531914893617" type="line"/>
      <point x="677.3271155153989" y="808.5531914893617"/>
      <point x="656.5220052462838" y="719.6034197998639"/>
      <point x="645.3545127756729" y="679.6034197998639" type="qcurve" smooth="yes"/>
      <point x="447.947731467988" y="0.0" type="line"/>
      <point x="306.50850092295735" y="0.0" type="line"/>
    </contour>
  </outline>
</glyph>
<glyph name="x" format="2">
  <advance width="866.2581365976877"/>
  <unicode hex="0078"/>
  <anchor x="484.531914893617" y="0.0" name="bottom"/>
  <anchor x="484.531914893617" y="1052.0" name="top"/>
  <anchor x="764.3617021276596" y="0.0" name="cy_descender"/>
  <outline>
    <contour>
      <point x="20.04255319148936" y="0.0" type="line"/>
      <point x="369.8922568736034" y="582.0851063829788" type="line"/>
      <point x="378.85796172155835" y="582.0851063829788" type="line"/>
      <point x="639.0774312639659" y="1052.0" type="line"/>
      <point x="830.5943845331778" y="1052.0" type="line"/>
      <point x="498.3054503060332" y="484.0" type="line"/>
      <point x="489.1160011658409" y="484.0" type="line"/>
      <point x="211.51695326921208" y="0.0" type="line"/>
    </contour>
    <contour>
      <point x="40.12765957446808" y="1052.0" type="line"/>
      <point x="237.46818225978822" y="1052.0" type="line"/>
      <point x="494.4811036626833" y="582.0425531914893" type="line"/>
      <point x="501.02195666958124" y="582.0425531914893" type="line"/>
      <point x="846.2155834061983" y="0.0" type="line"/>
      <point x="649.9937821820655" y="0.0" type="line"/>
      <point x="375.4846011852715" y="484.0" type="line"/>
      <point x="368.72000388613617" y="484.0" type="line"/>
    </contour>
  </outline>
</glyph>
<glyph name="y" format="2">
  <advance width="830.3432429806664"/>
  <unicode hex="0079"/>
  <anchor x="773.7446808510638" y="0.0" name="bottom"/>
  <anchor x="484.2340425531915" y="1052.0" name="top"/>
  <outline>
    <contour>
      <point x="45.74468085106383" y="-416.0" type="qcurve"/>
      <point x="45.74468085106383" y="-259.94805194805195" type="line"/>
      <point x="68.14882009081951" y="-268.012987012987"/>
      <point x="122.94850112483455" y="-277.97402597402595"/>
      <point x="148.27383633562593" y="-277.97402597402595" type="qcurve" smooth="yes"/>
      <point x="209.1335001343745" y="-277.97402597402595"/>
      <point x="299.37702586930214" y="-170.78087869577232"/>
      <point x="349.75225881667154" y="5.617021276595745" type="qcurve"/>
      <point x="349.7097056251822" y="6.35072379286894" type="line"/>
      <point x="10.0" y="1052.0" type="line"/>
      <point x="182.63829787234042" y="1052.0" type="line"/>
      <point x="389.4536092490042" y="353.3191489361702" type="line" smooth="yes"/>
      <point x="400.99242203439235" y="313.3191489361702"/>
      <point x="419.22034392305454" y="243.14893617021278"/>
      <point x="425.9629845526086" y="213.14893617021278" type="qcurve"/>
      <point x="430.84426309142134" y="213.14893617021278" type="line"/>
      <point x="438.3206062372486" y="243.14893617021278"/>
      <point x="457.28223064218395" y="313.3191489361702"/>
      <point x="468.08734091129895" y="353.3191489361702" type="qcurve" smooth="yes"/>
      <point x="661.5347323423686" y="1052.0" type="line"/>
      <point x="830.3432429806664" y="1052.0" type="line"/>
      <point x="460.03157485669874" y="-132.25531914893617" type="line" smooth="yes"/>
      <point x="413.5304575925386" y="-280.0"/>
      <point x="264.8816671524337" y="-436.0"/>
      <point x="160.52004703738893" y="-436.0" type="qcurve" smooth="yes"/>
      <point x="125.20272508993" y="-436.0"/>
      <point x="70.75511790259677" y="-426.02597402597405"/>
    </contour>
  </outline>
</glyph>
<glyph name="z" format="2">
  <advance width="891.6229501577797"/>
  <unicode hex="007A"/>
  <anchor x="494.3912683061619" y="0.0" name="bottom"/>
  <anchor x="494.3912683061619" y="1052.0" name="top"/>
  <outline>
    <contour>
      <point x="68.67532467532467" y="0.0" type="line"/>
      <point x="68.67532467532467" y="134.32467532467533" type="line"/>
      <point x="590.6944197355157" y="901.8831168831168" type="line"/>
      <point x="77.06493506493507" y="901.8831168831168" type="line"/>
      <point x="77.06493506493507" y="1052.0" type="line"/>
      <point x="799.0399161704904" y="1052.0" type="line"/>
      <point x="799.0399161704904" y="920.6363636363636" type="line"/>
      <point x="275.0597821492604" y="150.11688311688312" type="line"/>
      <point x="828.7658073006368" y="150.11688311688312" type="line"/>
      <point x="828.7658073006368" y="0.0" type="line"/>
    </contour>
  </outline>
</glyph>
<glyph name="braceleft" format="2">
  <advance width="636.3617992810648"/>
  <unicode hex="007B"/>
  <outline>
    <contour>
      <point x="606.3617992810648" y="-312.0" type="line"/>
      <point x="408.98737005732056" y="-312.0"/>
      <point x="171.84717769357817" y="-49.320314777032934"/>
      <point x="206.7579908675799" y="123.0" type="qcurve" smooth="yes"/>
      <point x="250.9406392694064" y="334.0" type="line" smooth="yes"/>
      <point x="272.98941027883023" y="440.82978723404256"/>
      <point x="163.52249101331" y="508.8181818181818"/>
      <point x="64.0" y="508.8181818181818" type="qcurve"/>
      <point x="64.0" y="639.1948051948052" type="line"/>
      <point x="163.52249101331" y="639.1948051948052"/>
      <point x="272.98941027883023" y="707.1702127659574"/>
      <point x="250.9406392694064" y="814.0" type="qcurve" smooth="yes"/>
      <point x="206.7579908675799" y="1025.0" type="line" smooth="yes"/>
      <point x="172.39075099582243" y="1191.1611774992714"/>
      <point x="409.0299232488099" y="1460.0"/>
      <point x="606.3617992810648" y="1460.0" type="qcurve"/>
      <point x="606.3617992810648" y="1315.8051948051948" type="line"/>
      <point x="474.7074710968619" y="1315.8051948051948"/>
      <point x="355.5462027528481" y="1147.0979445115267"/>
      <point x="382.00854949966" y="1025.0" type="qcurve" smooth="yes"/>
      <point x="427.53366365491115" y="814.0" type="line" smooth="yes"/>
      <point x="445.7862625085009" y="729.424851841057"/>
      <point x="361.2675604779948" y="599.7021276595744"/>
      <point x="274.5618381424269" y="574.0" type="qcurve"/>
      <point x="361.2675604779948" y="548.2978723404256"/>
      <point x="445.7862625085009" y="418.575148158943"/>
      <point x="427.53366365491115" y="334.0" type="qcurve" smooth="yes"/>
      <point x="382.00854949966" y="123.0" type="line" smooth="yes"/>
      <point x="355.407766720795" y="0.31874518175888045"/>
      <point x="474.7074710968619" y="-167.80519480519482"/>
      <point x="606.3617992810648" y="-167.80519480519482" type="qcurve"/>
    </contour>
  </outline>
</glyph>
<glyph name="bar" format="2">
  <advance width="544.9787234042554"/>
  <unicode hex="007C"/>
  <outline>
    <contour>
      <point x="190.0" y="-416.00000000000006" type="line"/>
      <point x="190.0" y="1536.0000000000002" type="line"/>
      <point x="354.9787234042554" y="1536.0000000000002" type="line"/>
      <point x="354.9787234042554" y="-416.00000000000006" type="line"/>
    </contour>
  </outline>
</glyph>
<glyph name="braceright" format="2">
  <advance width="636.3617992810648"/>
  <unicode hex="007D"/>
  <outline>
    <contour>
      <point x="30.0" y="-312.0" type="qcurve"/>
      <point x="30.0" y="-167.80519480519482" type="line"/>
      <point x="161.65432818420288" y="-167.80519480519482"/>
      <point x="280.81559652821676" y="0.9020554884734424"/>
      <point x="254.35324978140483" y="123.0" type="qcurve" smooth="yes"/>
      <point x="208.8281356261537" y="334.0" type="line" smooth="yes"/>
      <point x="190.57553677256388" y="418.575148158943"/>
      <point x="275.09423880307" y="548.2978723404256"/>
      <point x="361.7999611386379" y="574.0" type="qcurve"/>
      <point x="275.09423880307" y="599.7021276595744"/>
      <point x="190.57553677256388" y="729.424851841057"/>
      <point x="208.8281356261537" y="814.0" type="qcurve" smooth="yes"/>
      <point x="254.35324978140483" y="1025.0" type="line" smooth="yes"/>
      <point x="280.9540325602698" y="1147.6812548182413"/>
      <point x="161.65432818420288" y="1315.8051948051948"/>
      <point x="30.0" y="1315.8051948051948" type="qcurve"/>
      <point x="30.0" y="1460.0" type="line"/>
      <point x="227.3744292237443" y="1460.0"/>
      <point x="463.8433887107743" y="1190.6079860099098"/>
      <point x="429.6038084134849" y="1025.0" type="qcurve" smooth="yes"/>
      <point x="385.42116001165846" y="814.0" type="line" smooth="yes"/>
      <point x="363.3723890022345" y="707.1702127659574"/>
      <point x="472.83930826775475" y="639.1818181818181"/>
      <point x="572.3617992810648" y="639.1818181818181" type="qcurve"/>
      <point x="572.3617992810648" y="508.8051948051948" type="line"/>
      <point x="472.83930826775475" y="508.8051948051948"/>
      <point x="363.3723890022345" y="440.82978723404256"/>
      <point x="385.42116001165846" y="334.0" type="qcurve" smooth="yes"/>
      <point x="429.6038084134849" y="123.0" type="line" smooth="yes"/>
      <point x="464.6422811619547" y="-49.873506266394635"/>
      <point x="227.33187603225494" y="-312.0"/>
    </contour>
  </outline>
</glyph>
<glyph name="asciitilde" format="2">
  <advance width="932.2648401826484"/>
  <unicode hex="007E"/>
  <outline>
    <contour>
      <point x="45.0" y="536.2553191489362" type="qcurve"/>
      <point x="45.0" y="730.0" type="line"/>
      <point x="87.13115709705626" y="781.2553191489362"/>
      <point x="206.324200913242" y="838.8085106382979"/>
      <point x="265.0593607305936" y="839.7659574468086" type="qcurve" smooth="yes"/>
      <point x="335.71767220441075" y="840.7234042553191"/>
      <point x="425.09589041095893" y="799.3321674924706"/>
      <point x="480.5311376663752" y="766.7234042553191" type="qcurve" smooth="yes"/>
      <point x="531.433789954338" y="736.7659574468086"/>
      <point x="606.1621490333237" y="697.7234042553191"/>
      <point x="672.5767997668318" y="697.7234042553191" type="qcurve" smooth="yes"/>
      <point x="731.0456621004566" y="697.7234042553191"/>
      <point x="843.4844068784611" y="765.9787234042553"/>
      <point x="886.2648401826484" y="825.7659574468086" type="qcurve"/>
      <point x="886.2648401826484" y="631.1063829787234" type="line"/>
      <point x="843.7397260273973" y="580.063829787234"/>
      <point x="732.0456621004566" y="521.2553191489362"/>
      <point x="673.310502283105" y="521.2553191489362" type="qcurve" smooth="yes"/>
      <point x="607.2472554163023" y="521.2553191489362"/>
      <point x="525.4977168949772" y="558.0178762265618"/>
      <point x="472.1874089186826" y="590.2978723404256" type="qcurve" smooth="yes"/>
      <point x="416.6986301369863" y="622.3740406101234"/>
      <point x="335.8027785873895" y="663.2978723404256"/>
      <point x="265.0593607305936" y="663.2978723404256" type="qcurve" smooth="yes"/>
      <point x="206.324200913242" y="663.2978723404256"/>
      <point x="87.3013698630137" y="596.2553191489362"/>
    </contour>
  </outline>
</glyph>
<glyph name="exclamdown" format="2">
  <advance width="611.5744680851063"/>
  <unicode hex="00A1"/>
  <outline>
    <contour>
      <point x="425.5744680851064" y="1056.4893617021276" type="qcurve" smooth="yes"/>
      <point x="425.5744680851064" y="1009.1489361702128"/>
      <point x="363.78723404255317" y="941.531914893617"/>
      <point x="305.78723404255317" y="941.531914893617" type="qcurve" smooth="yes"/>
      <point x="247.7872340425532" y="941.531914893617"/>
      <point x="186.0" y="1009.1489361702128"/>
      <point x="186.0" y="1056.4893617021276" type="qcurve" smooth="yes"/>
      <point x="186.0" y="1103.8297872340424"/>
      <point x="247.7872340425532" y="1171.4468085106382"/>
      <point x="305.78723404255317" y="1171.4468085106382" type="qcurve" smooth="yes"/>
      <point x="363.78723404255317" y="1171.4468085106382"/>
      <point x="425.5744680851064" y="1103.8297872340424"/>
    </contour>
    <contour>
      <point x="384.4255319148936" y="740.0" type="line"/>
      <point x="398.78723404255317" y="-306.0" type="line"/>
      <point x="212.74468085106383" y="-306.0" type="line"/>
      <point x="227.10638297872342" y="740.0" type="line"/>
    </contour>
  </outline>
</glyph>
<glyph name="sterling" format="2">
  <advance width="1008.0851063829788"/>
  <unicode hex="00A3"/>
  <outline>
    <contour>
      <point x="1012.0851063829788" y="0.0" type="line"/>
      <point x="36.0" y="0.0" type="line"/>
      <point x="36.0" y="158.0" type="line"/>
      <point x="92.0" y="158.0" type="line" smooth="yes"/>
      <point x="183.74468085106383" y="158.0"/>
      <point x="264.0" y="324.0"/>
      <point x="249.91489361702128" y="467.93617021276594" type="qcurve" smooth="yes"/>
      <point x="195.0" y="1039.0" type="line" smooth="yes"/>
      <point x="177.0" y="1228.0"/>
      <point x="375.78723404255317" y="1476.0"/>
      <point x="573.1702127659574" y="1476.0" type="qcurve" smooth="yes"/>
      <point x="760.0212765957447" y="1476.0"/>
      <point x="968.0851063829788" y="1270.0425531914893"/>
      <point x="968.0851063829788" y="1103.0" type="qcurve" smooth="yes"/>
      <point x="968.0851063829788" y="1087.0" type="line"/>
      <point x="784.0425531914893" y="1087.0" type="line"/>
      <point x="784.0425531914893" y="1103.0" type="line" smooth="yes"/>
      <point x="784.0425531914893" y="1219.012987012987"/>
      <point x="667.4039789997237" y="1311.077922077922"/>
      <point x="575.1702127659574" y="1311.077922077922" type="qcurve" smooth="yes"/>
      <point x="477.7806023763471" y="1311.077922077922"/>
      <point x="361.19397623652947" y="1186.051948051948"/>
      <point x="375.29787234042556" y="1039.0" type="qcurve" smooth="yes"/>
      <point x="426.3829787234043" y="507.2340425531915" type="line" smooth="yes"/>
      <point x="439.29787234042556" y="372.0"/>
      <point x="384.93617021276594" y="204.93506493506493"/>
      <point x="314.93617021276594" y="163.93506493506493" type="qcurve"/>
      <point x="1012.0851063829788" y="163.93506493506493" type="line"/>
    </contour>
    <contour>
      <point x="808.0851063829788" y="626.0" type="line"/>
      <point x="52.0" y="626.0" type="line"/>
      <point x="52.0" y="779.077922077922" type="line"/>
      <point x="808.0851063829788" y="779.077922077922" type="line"/>
    </contour>
  </outline>
</glyph>
<glyph name="currency" format="2">
  <advance width="1152.2382978723408"/>
  <unicode hex="00A4"/>
  <guideline y="901.0000000000001" identifier="bRYxxRaQQf"/>
  <guideline y="555.0" identifier="917FhrihjR"/>
  <outline>
    <contour>
      <point x="258.11914893617023" y="712.0425531914894" type="qcurve"/>
      <point x="258.11914893617023" y="565.7792207792209"/>
      <point x="441.846421663443" y="370.961038961039"/>
      <point x="573.1191489361702" y="370.961038961039" type="qcurve" smooth="yes"/>
      <point x="703.3918762088975" y="370.961038961039"/>
      <point x="886.1191489361703" y="565.7792207792209"/>
      <point x="886.1191489361703" y="712.0000000000001" type="qcurve" smooth="yes"/>
      <point x="886.1191489361703" y="856.3116883116884"/>
      <point x="703.3918762088975" y="1051.1948051948054"/>
      <point x="573.1191489361702" y="1051.1948051948054" type="qcurve" smooth="yes"/>
      <point x="441.846421663443" y="1051.1948051948054"/>
      <point x="258.11914893617023" y="856.3116883116884"/>
    </contour>
    <contour>
      <point x="82.60851063829787" y="717.8297872340427" type="qcurve"/>
      <point x="82.60851063829787" y="929.808510638298"/>
      <point x="374.2255319148936" y="1217.8085106382982"/>
      <point x="572.1617021276596" y="1217.8085106382982" type="qcurve" smooth="yes"/>
      <point x="770.0978723404256" y="1217.8085106382982"/>
      <point x="1061.6297872340426" y="929.808510638298"/>
      <point x="1061.6297872340426" y="717.7872340425533" type="qcurve" smooth="yes"/>
      <point x="1061.6297872340426" y="506.72340425531917"/>
      <point x="770.0978723404256" y="215.68085106382983"/>
      <point x="572.1617021276596" y="215.68085106382983" type="qcurve" smooth="yes"/>
      <point x="374.2255319148936" y="215.68085106382983"/>
      <point x="82.60851063829787" y="506.72340425531917"/>
    </contour>
    <contour>
      <point x="1113.268085106383" y="1172.9787234042553" type="line"/>
      <point x="911.3106382978724" y="966.9787234042553" type="line"/>
      <point x="789.3106382978724" y="1093.9787234042556" type="line"/>
      <point x="991.268085106383" y="1299.9787234042556" type="line"/>
    </contour>
    <contour>
      <point x="334.80000000000007" y="356.8510638297872" type="line"/>
      <point x="132.8" y="150.85106382978728" type="line"/>
      <point x="11.8" y="276.8510638297873" type="line"/>
      <point x="213.80000000000007" y="481.8510638297873" type="line"/>
    </contour>
    <contour>
      <point x="1017.4382978723406" y="157.8085106382979" type="line"/>
      <point x="815.4382978723405" y="363.80851063829795" type="line"/>
      <point x="938.4382978723406" y="489.8085106382979" type="line"/>
      <point x="1140.4382978723406" y="284.8085106382979" type="line"/>
    </contour>
    <contour>
      <point x="231.3531914893617" y="980.7234042553192" type="line"/>
      <point x="29.353191489361706" y="1186.7234042553193" type="line"/>
      <point x="150.35319148936173" y="1312.723404255319" type="line"/>
      <point x="352.35319148936173" y="1106.7234042553193" type="line"/>
    </contour>
  </outline>
</glyph>
<glyph name="yen" format="2">
  <advance width="1024.3191489361702"/>
  <unicode hex="00A5"/>
  <outline>
    <contour>
      <point x="47.6276595744681" y="303.64935064935065" type="line"/>
      <point x="47.6276595744681" y="460.67532467532476" type="line"/>
      <point x="984.8617021276597" y="460.67532467532476" type="line"/>
      <point x="984.8617021276597" y="303.64935064935065" type="line"/>
    </contour>
    <contour>
      <point x="47.6276595744681" y="628.5194805194806" type="line"/>
      <point x="47.6276595744681" y="786.5324675324676" type="line"/>
      <point x="408.18085106382983" y="786.5324675324676" type="line"/>
      <point x="461.2659574468085" y="669.0000000000001" type="line"/>
      <point x="570.7340425531914" y="669.0000000000001" type="line"/>
      <point x="619.2021276595746" y="786.5324675324676" type="line"/>
      <point x="984.8617021276597" y="786.5324675324676" type="line"/>
      <point x="984.8617021276597" y="628.5194805194806" type="line"/>
    </contour>
    <contour>
      <point x="423.436170212766" y="0.0" type="line"/>
      <point x="423.436170212766" y="548.0000000000001" type="line"/>
      <point x="-30.500000000000004" y="1456.0000000000002" type="line"/>
      <point x="169.81914893617022" y="1456.0000000000002" type="line"/>
      <point x="446.41489361702133" y="849.0000000000002" type="line" smooth="yes"/>
      <point x="460.41489361702133" y="819.0"/>
      <point x="496.09574468085106" y="711.6170212765959"/>
      <point x="503.8617021276596" y="673.8936170212767" type="qcurve"/>
      <point x="523.2234042553192" y="673.8936170212767" type="line"/>
      <point x="532.904255319149" y="729.7659574468086"/>
      <point x="566.8829787234043" y="818.7872340425533"/>
      <point x="581.0531914893618" y="849.0000000000002" type="qcurve" smooth="yes"/>
      <point x="862.0744680851064" y="1456.0000000000002" type="line"/>
      <point x="1054.8191489361702" y="1456.0000000000002" type="line"/>
      <point x="599.8191489361702" y="548.0000000000001" type="line"/>
      <point x="599.8191489361702" y="0.0" type="line"/>
    </contour>
  </outline>
</glyph>
<glyph name="section" format="2">
  <advance width="1241.1489361702127"/>
  <unicode hex="00A7"/>
  <guideline y="1658.0" identifier="QzZ5gIiCyn"/>
  <guideline y="578.0" identifier="9Hxjf2sdFw"/>
  <outline>
    <contour>
      <point x="683.6808510638298" y="135.12765957446808" type="qcurve"/>
      <point x="683.6808510638298" y="250.54545454545453" type="line"/>
      <point x="793.901630284609" y="250.54545454545453"/>
      <point x="946.5531914893617" y="375.1038961038961"/>
      <point x="946.5531914893617" y="462.61038961038963" type="qcurve"/>
      <point x="946.5531914893617" y="556.0"/>
      <point x="779.6808510638298" y="672.0"/>
      <point x="598.6808510638298" y="734.0" type="qcurve" smooth="yes"/>
      <point x="407.8936170212766" y="793.2765957446809"/>
      <point x="195.53191489361703" y="947.5531914893617"/>
      <point x="195.53191489361703" y="1129.4255319148936" type="qcurve" smooth="yes"/>
      <point x="195.53191489361703" y="1305.0"/>
      <point x="416.8723404255319" y="1490.0"/>
      <point x="615.6382978723404" y="1491.0" type="qcurve" smooth="yes"/>
      <point x="805.4893617021277" y="1492.0"/>
      <point x="1025.8297872340424" y="1294.0"/>
      <point x="1024.8297872340424" y="1100.0" type="qcurve"/>
      <point x="866.5531914893617" y="1100.0" type="line"/>
      <point x="867.5661785023486" y="1201.1038961038962"/>
      <point x="736.7068250898038" y="1338.909090909091"/>
      <point x="615.3404255319149" y="1338.909090909091" type="qcurve" smooth="yes"/>
      <point x="475.86266924564796" y="1338.909090909091"/>
      <point x="353.8085106382979" y="1239.8701298701299"/>
      <point x="353.8085106382979" y="1140.0" type="qcurve" smooth="yes"/>
      <point x="353.8085106382979" y="1049.0"/>
      <point x="476.6808510638298" y="961.0"/>
      <point x="676.6808510638298" y="897.0" type="qcurve" smooth="yes"/>
      <point x="857.8723404255319" y="839.8510638297872"/>
      <point x="1120.1489361702127" y="653.4893617021277"/>
      <point x="1120.1489361702127" y="477.3191489361702" type="qcurve" smooth="yes"/>
      <point x="1120.1489361702127" y="317.1276595744681"/>
      <point x="859.6595744680851" y="135.12765957446808"/>
    </contour>
    <contour>
      <point x="530.1063829787234" y="891.8723404255319" type="qcurve"/>
      <point x="529.1063829787234" y="757.6493506493506" type="line"/>
      <point x="417.6548770378557" y="757.6493506493506"/>
      <point x="293.8085106382979" y="649.9516441005802"/>
      <point x="293.8085106382979" y="567.8151423045041" type="qcurve" smooth="yes"/>
      <point x="293.8085106382979" y="487.0425531914894"/>
      <point x="439.6808510638298" y="387.0"/>
      <point x="628.6808510638298" y="317.0" type="qcurve" smooth="yes"/>
      <point x="802.8510638297872" y="252.5531914893617"/>
      <point x="1033.9148936170213" y="66.85106382978724"/>
      <point x="1033.9148936170213" y="-113.97872340425532" type="qcurve" smooth="yes"/>
      <point x="1033.9148936170213" y="-298.0"/>
      <point x="783.6595744680851" y="-509.0"/>
      <point x="591.5531914893617" y="-509.0" type="qcurve" smooth="yes"/>
      <point x="399.48936170212767" y="-509.0"/>
      <point x="130.48936170212767" y="-303.0"/>
      <point x="130.48936170212767" y="-71.95744680851064" type="qcurve"/>
      <point x="287.8085106382979" y="-70.0" type="line"/>
      <point x="287.8085106382979" y="-230.62337662337663"/>
      <point x="484.5230726720089" y="-356.90909090909093"/>
      <point x="591.6808510638298" y="-356.90909090909093" type="qcurve" smooth="yes"/>
      <point x="709.1108040895275" y="-356.90909090909093"/>
      <point x="876.5531914893617" y="-244.88311688311688"/>
      <point x="876.5531914893617" y="-136.0" type="qcurve" smooth="yes"/>
      <point x="876.5531914893617" y="-35.0"/>
      <point x="734.6808510638298" y="94.0"/>
      <point x="532.6808510638298" y="161.0" type="qcurve" smooth="yes"/>
      <point x="349.468085106383" y="221.40425531914894"/>
      <point x="119.25531914893617" y="418.8936170212766"/>
      <point x="119.25531914893617" y="577.0" type="qcurve" smooth="yes"/>
      <point x="119.25531914893617" y="724.8723404255319"/>
      <point x="370.5744680851064" y="891.8723404255319"/>
    </contour>
  </outline>
</glyph>
<glyph name="copyright" format="2">
  <advance width="1654.0"/>
  <unicode hex="00A9"/>
  <guideline y="901.0" identifier="0Pjz0qKr8z"/>
  <guideline y="555.0" identifier="sJo8BlDiJ7"/>
  <outline>
    <contour>
      <point x="1034.0851063829787" y="546.0" type="qcurve"/>
      <point x="1208.6382978723404" y="546.0" type="line"/>
      <point x="1208.6382978723404" y="375.0"/>
      <point x="975.8510638297872" y="205.0"/>
      <point x="813.3829787234042" y="205.0" type="qcurve" smooth="yes"/>
      <point x="644.0" y="205.0"/>
      <point x="423.0851063829787" y="437.0"/>
      <point x="423.0851063829787" y="664.0" type="qcurve" smooth="yes"/>
      <point x="423.0851063829787" y="703.0" type="line" smooth="yes"/>
      <point x="423.0851063829787" y="931.0"/>
      <point x="645.0" y="1170.0"/>
      <point x="830.2127659574468" y="1170.0" type="qcurve" smooth="yes"/>
      <point x="1015.5106382978723" y="1170.0"/>
      <point x="1209.6382978723404" y="983.0"/>
      <point x="1209.6382978723404" y="829.0" type="qcurve"/>
      <point x="1035.0851063829787" y="829.0" type="line"/>
      <point x="1035.0851063829787" y="917.9480519480519"/>
      <point x="930.1442387399834" y="1008.0519480519481"/>
      <point x="829.2553191489362" y="1008.0519480519481" type="qcurve" smooth="yes"/>
      <point x="720.1961867919315" y="1008.0519480519481"/>
      <point x="608.1702127659574" y="869.038961038961"/>
      <point x="608.1702127659574" y="747.0" type="qcurve" smooth="yes"/>
      <point x="608.1702127659574" y="621.0" type="line" smooth="yes"/>
      <point x="608.1702127659574" y="498.02597402597405"/>
      <point x="729.3144515059408" y="360.06493506493507"/>
      <point x="838.4255319148937" y="360.06493506493507" type="qcurve" smooth="yes"/>
      <point x="939.2625034539928" y="360.06493506493507"/>
      <point x="1034.0851063829787" y="456.0779220779221"/>
    </contour>
    <contour>
      <point x="186.0" y="687.0" type="qcurve" smooth="yes"/>
      <point x="186.0" y="398.5584415584416"/>
      <point x="562.4285714285714" y="2.1298701298701297"/>
      <point x="828.0" y="2.1298701298701297" type="qcurve" smooth="yes"/>
      <point x="1092.5844155844156" y="2.1298701298701297"/>
      <point x="1469.0" y="398.5584415584416"/>
      <point x="1469.0" y="687.0" type="qcurve" smooth="yes"/>
      <point x="1469.0" y="976.4285714285714"/>
      <point x="1092.5844155844156" y="1368.8831168831168"/>
      <point x="828.0" y="1368.8831168831168" type="qcurve" smooth="yes"/>
      <point x="562.4285714285714" y="1368.8831168831168"/>
      <point x="186.0" y="976.4285714285714"/>
    </contour>
    <contour>
      <point x="38.0" y="687.0" type="qcurve" smooth="yes"/>
      <point x="38.0" y="1039.0"/>
      <point x="501.0" y="1519.0"/>
      <point x="827.0" y="1519.0" type="qcurve" smooth="yes"/>
      <point x="1152.0" y="1519.0"/>
      <point x="1616.0" y="1039.0"/>
      <point x="1616.0" y="687.0" type="qcurve" smooth="yes"/>
      <point x="1616.0" y="337.0"/>
      <point x="1152.0" y="-147.0"/>
      <point x="827.0" y="-147.0" type="qcurve" smooth="yes"/>
      <point x="501.0" y="-147.0"/>
      <point x="38.0" y="337.0"/>
    </contour>
  </outline>
</glyph>
<glyph name="ordfeminine" format="2">
  <advance width="903.4468085106383"/>
  <unicode hex="00AA"/>
  <guideline y="1681.0" identifier="3CJlALCfkl"/>
  <guideline y="909.0" identifier="Zdl6NZVQAy"/>
  <outline>
    <contour>
      <point x="599.6170212765958" y="862.3404255319149" type="line"/>
      <point x="599.6170212765958" y="821.0"/>
      <point x="619.2340425531914" y="736.5106382978723"/>
      <point x="641.8936170212766" y="706.0" type="qcurve"/>
      <point x="771.4468085106383" y="706.0" type="line"/>
      <point x="757.4468085106383" y="749.0"/>
      <point x="745.4468085106383" y="837.4893617021277"/>
      <point x="745.4468085106383" y="886.2765957446809" type="qcurve" smooth="yes"/>
      <point x="745.4468085106383" y="1201.0" type="line" smooth="yes"/>
      <point x="745.4468085106383" y="1338.4255319148936"/>
      <point x="589.9787234042553" y="1477.0"/>
      <point x="457.6170212765957" y="1477.0" type="qcurve" smooth="yes"/>
      <point x="332.9148936170213" y="1477.0"/>
      <point x="164.74468085106383" y="1356.4255319148936"/>
      <point x="164.91489361702128" y="1261.0" type="qcurve" smooth="yes"/>
      <point x="164.91489361702128" y="1234.0" type="line"/>
      <point x="313.6170212765957" y="1234.0" type="line"/>
      <point x="313.6170212765957" y="1247.0" type="line" smooth="yes"/>
      <point x="313.6170212765957" y="1292.8051948051948"/>
      <point x="388.63000828958275" y="1347.6103896103896"/>
      <point x="459.6170212765957" y="1347.6103896103896" type="qcurve" smooth="yes"/>
      <point x="526.6170212765958" y="1347.6103896103896"/>
      <point x="599.6170212765958" y="1276.7142857142858"/>
      <point x="599.6170212765958" y="1202.0" type="qcurve" smooth="yes"/>
    </contour>
    <contour>
      <point x="673.4255319148937" y="1149.0" type="line"/>
      <point x="470.4468085106383" y="1149.0" type="line" smooth="yes"/>
      <point x="304.8085106382979" y="1149.0"/>
      <point x="141.0" y="1028.0"/>
      <point x="141.0" y="918.0851063829788" type="qcurve" smooth="yes"/>
      <point x="141.0" y="816.0"/>
      <point x="265.6170212765957" y="692.0"/>
      <point x="382.2340425531915" y="692.0" type="qcurve" smooth="yes"/>
      <point x="480.93617021276594" y="692.0"/>
      <point x="613.468085106383" y="792.8510638297872"/>
      <point x="673.5957446808511" y="849.4468085106383" type="qcurve"/>
      <point x="673.4255319148937" y="970.6056921801603" type="line"/>
      <point x="614.1489361702128" y="907.7546283503731"/>
      <point x="483.1489361702128" y="820.5844155844156"/>
      <point x="419.6170212765957" y="820.5844155844156" type="qcurve" smooth="yes"/>
      <point x="355.6429953025698" y="820.5844155844156"/>
      <point x="291.6170212765957" y="878.2467532467532"/>
      <point x="291.6170212765957" y="921.9148936170212" type="qcurve" smooth="yes"/>
      <point x="291.6170212765957" y="969.7662337662338"/>
      <point x="381.65598231555674" y="1043.2987012987012"/>
      <point x="471.6170212765957" y="1043.2987012987012" type="qcurve" smooth="yes"/>
      <point x="673.4255319148937" y="1043.2987012987012" type="line"/>
    </contour>
  </outline>
</glyph>
<glyph name="guillemotleft" format="2">
  <advance width="1083.9148936170213"/>
  <unicode hex="00AB"/>
  <guideline y="901.0" identifier="ZftBQarVKw"/>
  <guideline y="555.0" identifier="MVJpdoVRVd"/>
  <outline>
    <contour>
      <point x="108.0" y="522.8510638297872" type="line"/>
      <point x="108.0" y="580.1489361702128" type="line"/>
      <point x="394.9148936170213" y="949.0" type="line"/>
      <point x="556.9148936170212" y="949.0" type="line"/>
      <point x="298.9148936170213" y="551.0" type="line"/>
      <point x="556.9148936170212" y="153.0" type="line"/>
      <point x="394.9148936170213" y="153.0" type="line"/>
    </contour>
    <contour>
      <point x="548.0" y="522.8510638297872" type="line"/>
      <point x="548.0" y="580.1489361702128" type="line"/>
      <point x="834.9148936170212" y="949.0" type="line"/>
      <point x="996.9148936170212" y="949.0" type="line"/>
      <point x="738.9148936170212" y="551.0" type="line"/>
      <point x="996.9148936170212" y="153.0" type="line"/>
      <point x="834.9148936170212" y="153.0" type="line"/>
    </contour>
  </outline>
</glyph>
<glyph name="logicalnot" format="2">
  <advance width="1016.5957446808511"/>
  <unicode hex="00AC"/>
  <outline>
    <contour>
      <point x="920.5957446808511" y="801.0" type="line"/>
      <point x="920.5957446808511" y="376.0" type="line"/>
      <point x="749.8723404255319" y="376.0" type="line"/>
      <point x="749.8723404255319" y="637.0" type="line"/>
      <point x="58.0" y="637.0" type="line"/>
      <point x="58.0" y="801.0" type="line"/>
    </contour>
  </outline>
</glyph>
<glyph name="registered" format="2">
  <advance width="1648.3999999999999"/>
  <unicode hex="00AE"/>
  <outline>
    <contour>
      <point x="35.2" y="687.0000000000002" type="qcurve" smooth="yes"/>
      <point x="35.2" y="1039.0"/>
      <point x="498.2000000000001" y="1519.0000000000002"/>
      <point x="824.1999999999999" y="1519.0000000000002" type="qcurve" smooth="yes"/>
      <point x="1149.2" y="1519.0000000000002"/>
      <point x="1613.2000000000003" y="1039.0"/>
      <point x="1613.2000000000003" y="687.0000000000002" type="qcurve" smooth="yes"/>
      <point x="1613.2000000000003" y="337.00000000000006"/>
      <point x="1149.2" y="-147.0"/>
      <point x="824.1999999999999" y="-147.0" type="qcurve" smooth="yes"/>
      <point x="498.2000000000001" y="-147.0"/>
      <point x="35.2" y="337.00000000000006"/>
    </contour>
    <contour>
      <point x="183.20000000000005" y="687.0000000000002" type="qcurve" smooth="yes"/>
      <point x="183.20000000000005" y="398.5584415584416"/>
      <point x="559.6285714285715" y="2.1298701298701297"/>
      <point x="825.2" y="2.1298701298701297" type="qcurve" smooth="yes"/>
      <point x="1089.784415584416" y="2.1298701298701297"/>
      <point x="1466.2" y="398.5584415584416"/>
      <point x="1466.2" y="687.0000000000002" type="qcurve" smooth="yes"/>
      <point x="1466.2" y="976.4285714285716"/>
      <point x="1089.784415584416" y="1368.8831168831173"/>
      <point x="825.2" y="1368.8831168831173" type="qcurve" smooth="yes"/>
      <point x="559.6285714285715" y="1368.8831168831173"/>
      <point x="183.20000000000005" y="976.4285714285716"/>
    </contour>
    <contour>
      <point x="499.60425531914905" y="225.00000000000003" type="line"/>
      <point x="499.60425531914905" y="1158.0000000000002" type="line"/>
      <point x="816.1574468085107" y="1158.0000000000002" type="line" smooth="yes"/>
      <point x="986.6680851063832" y="1158.0000000000002"/>
      <point x="1188.9234042553194" y="1018.0000000000001"/>
      <point x="1188.9234042553194" y="876.617021276596" type="qcurve" smooth="yes"/>
      <point x="1188.9234042553194" y="764.0000000000001"/>
      <point x="1019.4127659574469" y="597.0000000000001"/>
      <point x="879.6042553191492" y="597.0000000000001" type="qcurve" smooth="yes"/>
      <point x="590.6468085106384" y="597.0000000000001" type="line"/>
      <point x="590.6468085106384" y="736.2597402597403" type="line"/>
      <point x="846.4553191489363" y="736.2597402597403" type="line" smooth="yes"/>
      <point x="919.5592152528325" y="736.2597402597403"/>
      <point x="1015.3276595744683" y="794.2337662337663"/>
      <point x="1015.3276595744683" y="859.3829787234044" type="qcurve" smooth="yes"/>
      <point x="1015.3276595744683" y="940.779220779221"/>
      <point x="939.1306438242611" y="1007.9256700746063"/>
      <point x="821.4553191489362" y="1008.87012987013" type="qcurve" smooth="yes"/>
      <point x="657.8808510638299" y="1008.87012987013" type="line"/>
      <point x="657.8808510638299" y="225.00000000000003" type="line"/>
    </contour>
    <contour>
      <point x="1042.4765957446812" y="225.00000000000003" type="line"/>
      <point x="823.0930643824262" y="671.0519480519481" type="line"/>
      <point x="901.3503177673392" y="671.4581376070739" type="line"/>
      <point x="957.3235147830893" y="637.4343741365018"/>
      <point x="1028.5829787234045" y="558.7872340425532"/>
      <point x="1045.4978723404258" y="529.8297872340427" type="qcurve" smooth="yes"/>
      <point x="1214.1574468085107" y="242.23404255319153" type="line"/>
      <point x="1214.1574468085107" y="225.00000000000003" type="line"/>
    </contour>
  </outline>
</glyph>
<glyph name="degree" format="2">
  <advance width="754.7872340425532"/>
  <unicode hex="00B0"/>
  <outline>
    <contour>
      <point x="129.87234042553192" y="1222.1489361702127" type="qcurve"/>
      <point x="129.87234042553192" y="1326.2340425531916"/>
      <point x="277.7659574468085" y="1477.0"/>
      <point x="379.8936170212766" y="1477.0" type="qcurve" smooth="yes"/>
      <point x="480.97872340425533" y="1477.0"/>
      <point x="625.9148936170212" y="1326.2340425531916"/>
      <point x="625.9148936170212" y="1222.1489361702127" type="qcurve" smooth="yes"/>
      <point x="625.9148936170212" y="1117.1914893617022"/>
      <point x="480.97872340425533" y="970.3404255319149"/>
      <point x="379.8936170212766" y="970.3404255319149" type="qcurve" smooth="yes"/>
      <point x="277.7659574468085" y="970.3404255319149"/>
      <point x="129.87234042553192" y="1117.1914893617022"/>
    </contour>
    <contour>
      <point x="248.89361702127658" y="1222.1489361702127" type="qcurve"/>
      <point x="248.89361702127658" y="1166.2622271345674"/>
      <point x="325.6490743299254" y="1091.6200607902736"/>
      <point x="379.8936170212766" y="1091.6200607902736" type="qcurve" smooth="yes"/>
      <point x="434.027079303675" y="1091.6200607902736"/>
      <point x="506.8936170212766" y="1166.2622271345674"/>
      <point x="506.8936170212766" y="1222.1489361702127" type="qcurve" smooth="yes"/>
      <point x="506.8936170212766" y="1279.0911854103344"/>
      <point x="434.027079303675" y="1355.7203647416413"/>
      <point x="379.8936170212766" y="1355.7203647416413" type="qcurve" smooth="yes"/>
      <point x="325.6490743299254" y="1355.7203647416413"/>
      <point x="248.89361702127658" y="1279.0911854103344"/>
    </contour>
  </outline>
</glyph>
<glyph name="plusminus" format="2">
  <advance width="1016.5106382978723"/>
  <unicode hex="00B1"/>
  <outline>
    <contour>
      <point x="57.0" y="611.0" type="line"/>
      <point x="57.0" y="775.0" type="line"/>
      <point x="959.5106382978723" y="775.0" type="line"/>
      <point x="959.5106382978723" y="611.0" type="line"/>
    </contour>
    <contour>
      <point x="422.0" y="248.0" type="line"/>
      <point x="422.0" y="1160.0" type="line"/>
      <point x="594.6382978723404" y="1160.0" type="line"/>
      <point x="594.6382978723404" y="248.0" type="line"/>
    </contour>
    <contour>
      <point x="57.0" y="1.0" type="line"/>
      <point x="57.0" y="165.0" type="line"/>
      <point x="959.5106382978723" y="165.0" type="line"/>
      <point x="959.5106382978723" y="1.0" type="line"/>
    </contour>
  </outline>
</glyph>
<glyph name="twosuperior" format="2">
  <advance width="736.9148936170213"/>
  <unicode hex="00B2"/>
  <outline>
    <contour>
      <point x="84.65957446808511" y="697.0" type="line"/>
      <point x="84.65957446808511" y="805.0" type="line"/>
      <point x="367.7659574468085" y="1065.3191489361702" type="line" smooth="yes"/>
      <point x="433.6170212765957" y="1126.6382978723404"/>
      <point x="468.27659574468083" y="1214.2978723404256"/>
      <point x="468.27659574468083" y="1249.0" type="qcurve" smooth="yes"/>
      <point x="468.27659574468083" y="1297.8311688311687"/>
      <point x="416.19867366675874" y="1348.7402597402597"/>
      <point x="357.27659574468083" y="1348.7402597402597" type="qcurve" smooth="yes"/>
      <point x="292.3415308096159" y="1348.7402597402597"/>
      <point x="232.27659574468086" y="1283.7402597402597"/>
      <point x="232.27659574468086" y="1208.0" type="qcurve" smooth="yes"/>
      <point x="232.27659574468086" y="1198.0" type="line"/>
      <point x="76.87234042553192" y="1198.0" type="line"/>
      <point x="76.87234042553192" y="1208.0" type="line" smooth="yes"/>
      <point x="76.87234042553192" y="1339.0"/>
      <point x="220.04255319148936" y="1487.0"/>
      <point x="359.27659574468083" y="1487.0" type="qcurve" smooth="yes"/>
      <point x="490.5531914893617" y="1487.0"/>
      <point x="638.0425531914893" y="1359.0"/>
      <point x="638.0425531914893" y="1250.9148936170213" type="qcurve" smooth="yes"/>
      <point x="638.0425531914893" y="1171.0851063829787"/>
      <point x="544.936170212766" y="1048.0"/>
      <point x="458.97872340425533" y="972.3191489361702" type="qcurve" smooth="yes"/>
      <point x="314.3191489361702" y="845.0" type="line"/>
      <point x="668.9148936170213" y="845.0" type="line"/>
      <point x="668.9148936170213" y="697.0" type="line"/>
    </contour>
  </outline>
</glyph>
<glyph name="threesuperior" format="2">
  <advance width="737.7659574468086"/>
  <unicode hex="00B3"/>
  <outline>
    <contour>
      <point x="63.0" y="920.0" type="qcurve" smooth="yes"/>
      <point x="63.0" y="923.0" type="line"/>
      <point x="213.61702127659575" y="923.0" type="line"/>
      <point x="213.61702127659575" y="920.0" type="line" smooth="yes"/>
      <point x="213.61702127659575" y="874.1688311688312"/>
      <point x="293.5650732246477" y="822.2987012987013"/>
      <point x="359.6170212765957" y="822.2987012987013" type="qcurve" smooth="yes"/>
      <point x="428.55208621166065" y="822.2987012987013"/>
      <point x="492.6170212765957" y="875.1818181818181"/>
      <point x="492.6170212765957" y="924.8297872340426" type="qcurve" smooth="yes"/>
      <point x="492.6170212765957" y="978.3506493506494"/>
      <point x="416.6040342636087" y="1028.8311688311687"/>
      <point x="343.6170212765957" y="1029.8181818181818" type="qcurve" smooth="yes"/>
      <point x="259.6170212765957" y="1029.8181818181818" type="line"/>
      <point x="259.6170212765957" y="1150.3246753246754" type="line"/>
      <point x="343.6170212765957" y="1150.3246753246754" type="line" smooth="yes"/>
      <point x="415.5390991986736" y="1150.3246753246754"/>
      <point x="479.6170212765957" y="1206.6493506493507"/>
      <point x="479.6170212765957" y="1255.127659574468" type="qcurve" smooth="yes"/>
      <point x="479.6170212765957" y="1299.8311688311687"/>
      <point x="425.4871511467256" y="1350.7012987012988"/>
      <point x="356.6170212765957" y="1350.7012987012988" type="qcurve" smooth="yes"/>
      <point x="299.52611218568666" y="1350.7012987012988"/>
      <point x="224.61702127659575" y="1299.844155844156"/>
      <point x="224.61702127659575" y="1256.0" type="qcurve" smooth="yes"/>
      <point x="224.61702127659575" y="1252.0" type="line"/>
      <point x="74.0" y="1252.0" type="line"/>
      <point x="74.0" y="1256.0" type="line" smooth="yes"/>
      <point x="74.0" y="1357.0"/>
      <point x="237.29787234042553" y="1487.0"/>
      <point x="353.48936170212767" y="1487.0" type="qcurve" smooth="yes"/>
      <point x="480.468085106383" y="1487.0"/>
      <point x="642.6808510638298" y="1372.0"/>
      <point x="642.6808510638298" y="1262.787234042553" type="qcurve" smooth="yes"/>
      <point x="642.6808510638298" y="1212.0"/>
      <point x="580.6170212765958" y="1119.9574468085107"/>
      <point x="521.6382978723404" y="1098.0" type="qcurve"/>
      <point x="521.6382978723404" y="1097.0" type="line"/>
      <point x="587.8297872340426" y="1073.0"/>
      <point x="653.7659574468086" y="981.0"/>
      <point x="653.7659574468086" y="917.1702127659574" type="qcurve" smooth="yes"/>
      <point x="653.7659574468086" y="807.0"/>
      <point x="481.59574468085106" y="686.0"/>
      <point x="354.48936170212767" y="686.0" type="qcurve" smooth="yes"/>
      <point x="224.4255319148936" y="686.0"/>
      <point x="63.0" y="802.0"/>
    </contour>
  </outline>
</glyph>
<glyph name="micro" format="2">
  <advance width="1182.7659574468084"/>
  <unicode hex="00B5"/>
  <outline>
    <contour>
      <point x="242.0" y="1052.0" type="line"/>
      <point x="420.3829787234043" y="1052.0" type="line"/>
      <point x="288.3829787234043" y="371.0" type="line" smooth="yes"/>
      <point x="263.3829787234043" y="245.0"/>
      <point x="354.3180436584692" y="134.06493506493507"/>
      <point x="458.3180436584692" y="134.06493506493507" type="qcurve" smooth="yes"/>
      <point x="547.4479137883393" y="134.06493506493507"/>
      <point x="703.0063553467809" y="230.05194805194805"/>
      <point x="756.0063553467809" y="306.1168831168831" type="qcurve"/>
      <point x="900.3829787234042" y="1052.0" type="line"/>
      <point x="1078.7659574468084" y="1052.0" type="line"/>
      <point x="874.8085106382979" y="0.0" type="line"/>
      <point x="713.6595744680851" y="0.0" type="line"/>
      <point x="732.0" y="135.0" type="line"/>
      <point x="726.2553191489362" y="135.0" type="line"/>
      <point x="655.3404255319149" y="62.95744680851064"/>
      <point x="474.3829787234043" y="-20.0"/>
      <point x="374.3829787234043" y="-20.0" type="qcurve" smooth="yes"/>
      <point x="328.3829787234043" y="-20.0"/>
      <point x="253.38297872340425" y="15.0"/>
      <point x="224.38297872340425" y="42.0" type="qcurve"/>
      <point x="136.38297872340425" y="-416.0" type="line"/>
      <point x="-42.0" y="-416.0" type="line"/>
    </contour>
  </outline>
</glyph>
<glyph name="paragraph" format="2">
  <advance width="1248.2340425531916"/>
  <unicode hex="00B6"/>
  <guideline y="901.0" identifier="27539Lsr1A"/>
  <guideline y="555.0" identifier="e34wUdCmXR"/>
  <outline>
    <contour>
      <point x="720.2340425531914" y="-146.0" type="line"/>
      <point x="534.2340425531914" y="-146.0" type="line"/>
      <point x="534.2340425531914" y="715.7446808510638" type="line"/>
      <point x="449.48936170212767" y="715.7446808510638" type="line" smooth="yes"/>
      <point x="259.5531914893617" y="715.7446808510638"/>
      <point x="56.0" y="926.1276595744681"/>
      <point x="56.0" y="1085.872340425532" type="qcurve" smooth="yes"/>
      <point x="56.0" y="1243.659574468085"/>
      <point x="259.5531914893617" y="1456.0"/>
      <point x="449.48936170212767" y="1456.0" type="qcurve" smooth="yes"/>
      <point x="720.2340425531914" y="1456.0" type="line"/>
    </contour>
    <contour>
      <point x="862.2340425531914" y="1459.0" type="line"/>
      <point x="1048.2340425531916" y="1459.0" type="line"/>
      <point x="1048.2340425531916" y="-146.0" type="line"/>
      <point x="862.2340425531914" y="-146.0" type="line"/>
    </contour>
  </outline>
</glyph>
<glyph name="periodcentered" format="2">
  <advance width="600.0"/>
  <unicode hex="00B7"/>
  <outline>
    <contour>
      <point x="180.2127659574468" y="749.0" type="qcurve" smooth="yes"/>
      <point x="180.2127659574468" y="796.3404255319149"/>
      <point x="242.04255319148936" y="863.9574468085107"/>
      <point x="300.0" y="863.9574468085107" type="qcurve" smooth="yes"/>
      <point x="357.9574468085106" y="863.9574468085107"/>
      <point x="419.78723404255317" y="796.3404255319149"/>
      <point x="419.78723404255317" y="749.0" type="qcurve" smooth="yes"/>
      <point x="419.78723404255317" y="701.6595744680851"/>
      <point x="357.9574468085106" y="634.0425531914893"/>
      <point x="300.0" y="634.0425531914893" type="qcurve" smooth="yes"/>
      <point x="242.04255319148936" y="634.0425531914893"/>
      <point x="180.2127659574468" y="701.6595744680851"/>
    </contour>
  </outline>
</glyph>
<glyph name="onesuperior" format="2">
  <advance width="708.9765957446809"/>
  <unicode hex="00B9"/>
  <outline>
    <contour>
      <point x="111.7" y="1215.3310306714561" type="line"/>
      <point x="111.7" y="1372.3829787234044" type="line"/>
      <point x="438.9765957446809" y="1486.0" type="line"/>
      <point x="482.9765957446809" y="1486.0" type="line"/>
      <point x="482.9765957446809" y="697.0000000000002" type="line"/>
      <point x="327.57234042553193" y="697.0000000000002" type="line"/>
      <point x="327.57234042553193" y="1292.3310306714563" type="line"/>
    </contour>
  </outline>
</glyph>
<glyph name="ordmasculine" format="2">
  <advance width="918.7659574468086"/>
  <unicode hex="00BA"/>
  <guideline y="1975.0" identifier="Jnt0R9CyOf"/>
  <outline>
    <contour>
      <point x="124.0" y="1043.0" type="qcurve"/>
      <point x="124.0" y="1124.0" type="line"/>
      <point x="124.0" y="1278.0"/>
      <point x="305.468085106383" y="1477.0"/>
      <point x="459.36170212765956" y="1477.0" type="qcurve" smooth="yes"/>
      <point x="614.2553191489362" y="1477.0"/>
      <point x="794.7659574468086" y="1278.0"/>
      <point x="794.7659574468086" y="1124.0" type="qcurve"/>
      <point x="794.7659574468086" y="1043.0" type="line"/>
      <point x="794.7659574468086" y="889.0"/>
      <point x="615.2553191489362" y="691.0"/>
      <point x="461.36170212765956" y="691.0" type="qcurve" smooth="yes"/>
      <point x="306.468085106383" y="691.0"/>
      <point x="124.0" y="889.0"/>
    </contour>
    <contour>
      <point x="280.36170212765956" y="1124.0" type="qcurve"/>
      <point x="280.36170212765956" y="1043.0" type="line"/>
      <point x="280.36170212765956" y="951.2207792207793"/>
      <point x="369.5305332964907" y="828.2857142857143"/>
      <point x="461.36170212765956" y="828.2857142857143" type="qcurve" smooth="yes"/>
      <point x="550.2188449848024" y="828.2857142857143"/>
      <point x="639.3617021276596" y="951.2207792207793"/>
      <point x="639.3617021276596" y="1043.0" type="qcurve"/>
      <point x="639.3617021276596" y="1124.0" type="line"/>
      <point x="639.3617021276596" y="1213.8051948051948"/>
      <point x="549.2188449848024" y="1337.7402597402597"/>
      <point x="459.36170212765956" y="1337.7402597402597" type="qcurve" smooth="yes"/>
      <point x="369.5175462835037" y="1337.7402597402597"/>
      <point x="280.36170212765956" y="1213.8051948051948"/>
    </contour>
  </outline>
</glyph>
<glyph name="guillemotright" format="2">
  <advance width="1083.9148936170213"/>
  <unicode hex="00BB"/>
  <guideline y="98.0" identifier="MTEldNnfdj"/>
  <guideline y="443.0" identifier="G9bQni2n1K"/>
  <outline>
    <contour>
      <point x="87.0" y="153.0" type="line"/>
      <point x="345.0" y="551.0" type="line"/>
      <point x="87.0" y="949.0" type="line"/>
      <point x="249.0" y="949.0" type="line"/>
      <point x="535.9148936170212" y="580.1489361702128" type="line"/>
      <point x="535.9148936170212" y="522.8510638297872" type="line"/>
      <point x="249.0" y="153.0" type="line"/>
    </contour>
    <contour>
      <point x="527.0" y="153.0" type="line"/>
      <point x="785.0" y="551.0" type="line"/>
      <point x="527.0" y="949.0" type="line"/>
      <point x="689.0" y="949.0" type="line"/>
      <point x="975.9148936170212" y="580.1489361702128" type="line"/>
      <point x="975.9148936170212" y="522.8510638297872" type="line"/>
      <point x="689.0" y="153.0" type="line"/>
    </contour>
  </outline>
</glyph>
<glyph name="questiondown" format="2">
  <advance width="952.7234042553191"/>
  <unicode hex="00BF"/>
  <guideline y="-181.0" identifier="apukwP5ffL"/>
  <guideline y="921.0" identifier="5ZPZZL8Rim"/>
  <outline>
    <contour>
      <point x="636.2127659574468" y="1050.659574468085" type="qcurve" smooth="yes"/>
      <point x="636.2127659574468" y="1003.3191489361702"/>
      <point x="574.3829787234042" y="935.7021276595744"/>
      <point x="516.4255319148937" y="935.7021276595744" type="qcurve" smooth="yes"/>
      <point x="458.468085106383" y="935.7021276595744"/>
      <point x="396.63829787234044" y="1003.3191489361702"/>
      <point x="396.63829787234044" y="1050.659574468085" type="qcurve" smooth="yes"/>
      <point x="396.63829787234044" y="1098.0"/>
      <point x="458.468085106383" y="1165.6170212765958"/>
      <point x="516.4255319148937" y="1165.6170212765958" type="qcurve" smooth="yes"/>
      <point x="574.3829787234042" y="1165.6170212765958"/>
      <point x="636.2127659574468" y="1098.0"/>
    </contour>
    <contour>
      <point x="892.7234042553191" y="53.0" type="line"/>
      <point x="892.7234042553191" y="33.0" type="line" smooth="yes"/>
      <point x="892.7234042553191" y="-132.0"/>
      <point x="676.8085106382979" y="-328.0"/>
      <point x="490.3829787234043" y="-328.0" type="qcurve" smooth="yes"/>
      <point x="304.0" y="-328.0"/>
      <point x="94.0" y="-122.0"/>
      <point x="94.0" y="48.0" type="qcurve" smooth="yes"/>
      <point x="94.0" y="181.91489361702128"/>
      <point x="238.4255319148936" y="386.6808510638298"/>
      <point x="310.8085106382979" y="451.40425531914894" type="qcurve" smooth="yes"/>
      <point x="395.1276595744681" y="528.063829787234"/>
      <point x="436.1276595744681" y="654.3829787234042"/>
      <point x="436.1276595744681" y="725.4468085106383" type="qcurve" smooth="yes"/>
      <point x="436.1276595744681" y="738.0" type="line"/>
      <point x="614.5106382978723" y="738.0" type="line"/>
      <point x="614.5106382978723" y="725.4468085106383" type="line" smooth="yes"/>
      <point x="614.5106382978723" y="601.7234042553191"/>
      <point x="551.6170212765958" y="459.21276595744683"/>
      <point x="456.63829787234044" y="366.02127659574467" type="qcurve" smooth="yes"/>
      <point x="374.59574468085106" y="284.93617021276594"/>
      <point x="272.3829787234043" y="149.31914893617022"/>
      <point x="272.3829787234043" y="48.0" type="qcurve" smooth="yes"/>
      <point x="272.3829787234043" y="-53.01298701298701"/>
      <point x="380.3628074053606" y="-168.01298701298703"/>
      <point x="490.29787234042556" y="-168.01298701298703" type="qcurve" smooth="yes"/>
      <point x="600.2718983144515" y="-168.01298701298703"/>
      <point x="715.2978723404256" y="-62.98701298701299"/>
      <point x="715.2978723404256" y="33.0" type="qcurve" smooth="yes"/>
      <point x="715.2978723404256" y="53.0" type="line"/>
    </contour>
  </outline>
</glyph>
<glyph name="AE" format="2">
  <advance width="1900.189361702128"/>
  <unicode hex="00C6"/>
  <anchor x="992.9893617021279" y="1456.0000000000002" name="top"/>
  <outline>
    <contour>
      <point x="-12.5" y="0.0" type="line"/>
      <point x="868.5" y="1456.0000000000002" type="line"/>
      <point x="1827.989361702128" y="1456.0000000000002" type="line"/>
      <point x="1827.989361702128" y="1299.9610389610389" type="line"/>
      <point x="1114.117021276596" y="1299.9610389610389" type="line"/>
      <point x="1114.117021276596" y="156.03896103896108" type="line"/>
      <point x="1837.989361702128" y="156.03896103896108" type="line"/>
      <point x="1837.989361702128" y="0.0" type="line"/>
      <point x="929.9893617021278" y="0.0" type="line"/>
      <point x="929.9893617021278" y="1247.1063829787236" type="line"/>
      <point x="205.18085106382983" y="0.0" type="line"/>
    </contour>
    <contour>
      <point x="1027.7340425531916" y="673.0129870129871" type="line"/>
      <point x="1027.7340425531916" y="829.0519480519482" type="line"/>
      <point x="1735.989361702128" y="829.0519480519482" type="line"/>
      <point x="1735.989361702128" y="673.0129870129871" type="line"/>
    </contour>
    <contour>
      <point x="300.96615087040624" y="354.10389610389615" type="line"/>
      <point x="399.9747167725892" y="526.922077922078" type="line"/>
      <point x="1030.6063829787236" y="526.922077922078" type="line"/>
      <point x="1030.6063829787236" y="354.10389610389615" type="line"/>
    </contour>
  </outline>
</glyph>
